<?xml version="1.0" encoding="UTF-8"?><svg id="b" xmlns="http://www.w3.org/2000/svg" width="209.28" height="343.367" viewBox="0 0 209.28 343.367"><defs><style>.e{fill:#7abee6;}.e,.f,.g,.h{stroke-width:0px;}.f{fill:#fff;}.g{fill:#febe69;}.h{fill:#211715;}</style></defs><g id="c"><g id="d"><path class="g" d="m86.815,143.146c-12.746,2.115-20.879-8.002-20.819-15.287.05-5.016,1.224-13.237,2.598-18.173,2.02-7.215,3.462-19.904,3.462-37.5-.862-25.962,5.967-44.789,16.733-55.096,6.49-6.213,21.115-14.678,37.546-14.678,10.022,0,17.078,1.823,23.852,4.569l3.644,1.477c1.834,1.074,3.669,2.148,3.669,2.148,3.169,1.855,4.299,3.444,7.56,6.569,8.189,7.846,13.88,21.963,14.787,34.605.261,3.647.774,12.357.533,19.703.171,12.726,1.623,25.14,5.241,37.362,2.1,7.093,4.918,16.218,2.65,23.26-2.767,8.593-12.692,13.882-21.311,10.812l-80.147.229Z"/><path class="f" d="m178.635,71.425c-.617-1.07-2.05-2.891-5.417-3.01-1.558-.055-3.381.437-4.718,1.757-6.995-2.137-14.86-9.509-19.495-18.26-1.875-3.54-4.03-10.803-5.548-16.637-7.013,9.486-16.416,16.515-27.734,20.195-.666.217-1.65.351-2.323.107-.871-.413-1.116-.81-1.041-1.957.185-2.854,1.328-7.571,1.655-10.33-2.877,2.826-5.853,5.71-8.861,8.548-6.968,6.574-14.101,12.901-20.546,17.678-1.219-.828-2.664-1.145-3.933-1.101-3.368.119-4.801,1.94-5.417,3.01-1.841,3.192-1.763,9.075-.527,12.715.875,2.578,2.309,6.521,5.764,9.348,1.532,1.253,3.841,2.047,5.976,1.494,1.565,5.318,4.4,11.737,9.379,17.696,3.863,4.624,7.921,8.062,12.442,10.209l-.046.86c-.139,1.612-.229,2.909-.445,4.79-.334,2.904-.696,5.067-4.468,6.907-.141.052-3.913,1.81-7.467,3.453.213.161.346.262.346.262,9.652,7.436,20.141,10.32,31.121,10.32,10.757,0,21.469-2.884,31.121-10.32,0,0,.016-.016.046-.044-3.683-1.701-7.791-3.616-7.938-3.67-3.772-1.84-4.134-4.003-4.468-6.907-.216-1.881-.307-3.179-.445-4.79v-.003s-.049-.767-.049-.767c10.224-4.862,18.4-18.903,19.845-22.825.48-.999,1.265-3.058,1.9-5.158.338.057.53.089.53.089,2.004.339,4.1-.429,5.524-1.594,3.456-2.828,4.889-6.771,5.764-9.348,1.236-3.64,1.313-9.522-.527-12.715Z"/><path class="h" d="m90.28,144.03c1.259-.441,2.478-1.076,3.689-1.631,1.886-.864,3.767-1.736,5.649-2.608,1.46-.677,2.918-1.357,4.38-2.029.146-.067.297-.127.44-.201.306-.157-.507.213-.468.196.564-.245,1.106-.496,1.63-.819,1.316-.809,2.522-1.888,3.28-3.252.763-1.372,1.029-2.852,1.226-4.387.237-1.846.38-3.7.538-5.554.11-1.293-1.182-2.4-2.4-2.4-1.39,0-2.289,1.103-2.4,2.4-.136,1.598-.262,3.197-.445,4.79-.018.156-.129.948-.051.443-.037.239-.074.478-.121.716-.052.262-.111.523-.184.78-.052.181-.366.908-.129.438-.105.207-.215.408-.333.608-.034.058-.281.405-.108.176.177-.234-.107.118-.153.165-.186.192-.374.379-.578.552.246-.208-.076.057-.111.082-.229.155-.46.304-.7.443-.123.071-.281.13-.393.217-.44.341.724-.285-.142.097-.116.051-.234.098-.35.149-.146.064-.291.132-.436.199-3.154,1.447-6.295,2.922-9.449,4.371-.815.374-1.63.748-2.447,1.116-.259.117-.519.231-.779.346-.593.264.554-.202.067-.032-1.223.428-2.036,1.641-1.676,2.952.326,1.186,1.723,2.107,2.952,1.676h0Z"/><path class="h" d="m164.889,139.402c-.502-.176.598.269.173.078-.224-.101-.451-.198-.675-.298-.682-.305-1.361-.616-2.041-.927-1.772-.812-3.541-1.631-5.31-2.451-1.463-.678-2.924-1.358-4.388-2.034-.288-.133-.576-.268-.866-.395-1.219-.536-.484-.252-.293-.146-.175-.098-.354-.188-.528-.288-.311-.18-.626-.372-.91-.594.231.18-.263-.259-.326-.323-.103-.104-.199-.213-.298-.322-.182-.2.148.28-.063-.095-.065-.116-.142-.226-.207-.343-.032-.057-.272-.551-.135-.244.127.286-.033-.096-.056-.169-.049-.157-.101-.312-.144-.471-.07-.259-.127-.522-.176-.785-.025-.136-.045-.272-.07-.408-.124-.684.051.5-.031-.21-.201-1.741-.348-3.485-.497-5.231-.11-1.292-1.024-2.4-2.4-2.4-1.213,0-2.511,1.101-2.4,2.4.143,1.672.274,3.345.471,5.012.154,1.298.3,2.606.793,3.826.578,1.432,1.456,2.615,2.675,3.567.675.527,1.385.999,2.163,1.364.255.12,1.178.625.025.01.015.008.032.013.048.021.06.031.125.056.186.084,3.227,1.506,6.462,2.999,9.698,4.485,1.414.649,2.835,1.399,4.306,1.914,1.223.428,2.626-.487,2.952-1.676.364-1.324-.448-2.522-1.676-2.952h0Z"/><path class="h" d="m69.656,72.186c-.006,7.318-.226,14.645-.906,21.933-.445,4.777-1.052,9.536-2.274,14.203-1.561,5.963-2.601,12.133-2.848,18.301-.198,4.959,1.781,9.542,5.221,13.095,4.886,5.046,11.784,6.811,18.604,5.742,1.282-.201,1.992-1.804,1.676-2.952-.376-1.367-1.667-1.878-2.952-1.676-5.023.787-10.155-.726-13.731-4.301-.798-.798-1.363-1.479-1.941-2.365-.509-.781-1.116-1.931-1.332-2.498-.812-2.13-.838-3.364-.714-5.702.299-5.665,1.332-11.204,2.728-16.689,1.159-4.554,1.771-9.255,2.243-13.924.778-7.694,1.02-15.438,1.026-23.167.002-3.089-4.798-3.094-4.8,0h0Z"/><path class="h" d="m177.981,71.482c.19,12.968,1.753,25.91,5.436,38.369,2.705,9.149,6.701,21.465-2.364,28.434-3.843,2.955-8.863,3.893-13.454,2.317-2.928-1.005-4.185,3.63-1.276,4.629,10.141,3.482,21.888-3.071,24.528-13.411,1.524-5.968.215-12.361-1.35-18.18-1.725-6.416-3.645-12.705-4.768-19.271-1.293-7.559-1.84-15.225-1.952-22.887-.045-3.086-4.845-3.095-4.8,0h0Z"/><path class="h" d="m87.07,68.438c-2.823-2.532-6.87-3.124-10.321-1.52-2.55,1.186-4.063,3.611-4.739,6.267-1.552,6.096-.004,13.132,3.505,18.304,2.352,3.467,6.03,6.585,10.502,5.994,1.285-.17,2.4-.981,2.4-2.4,0-1.165-1.106-2.571-2.4-2.4-3.46.458-5.8-2.403-7.301-5.174-1.228-2.265-2.172-4.875-2.398-7.45-.224-2.553-.226-5.676,1.296-7.874.152-.213.155-.216.008-.01.075-.088.153-.173.235-.254.074-.066.551-.469.401-.363.448-.317.933-.505,1.466-.625,1.384-.311,2.878-.063,3.951.899,2.294,2.057,5.699-1.326,3.394-3.394h0Z"/><path class="h" d="m170.217,71.832c1.029-.923,2.428-1.186,3.768-.937.605.113,1.145.307,1.649.663-.206-.145.272.236.318.279.111.109.216.221.318.339-.147-.206-.144-.203.008.01,1.521,2.195,1.524,5.323,1.296,7.874-.23,2.579-1.17,5.181-2.398,7.45-1.498,2.77-3.843,5.631-7.301,5.174-1.287-.17-2.4,1.225-2.4,2.4,0,1.438,1.109,2.229,2.4,2.4,7.373.976,11.857-7.071,13.7-13.005,1.65-5.313,1.652-13.619-3.519-17.065-3.447-2.297-8.236-1.664-11.233,1.025-2.304,2.067,1.099,5.452,3.394,3.394h0Z"/><path class="h" d="m165.815,91.303c-.627,3.036-1.785,5.995-2.84,8.606.24-.594-.112.237-.253.532-.203.425-.417.845-.637,1.261-.505.957-1.044,1.895-1.607,2.818-2.997,4.922-6.646,9.536-11.108,13.212-2.42,1.994-5.162,3.552-8.19,4.254-3.008.698-1.735,5.327,1.276,4.629,6.363-1.477,11.66-6.106,15.818-10.938,3.44-3.999,6.655-8.502,8.833-13.331.216-.478.406-.967.611-1.45-.3.707.349-.797.379-.869.156-.377.308-.756.453-1.138.779-2.051,1.449-4.159,1.893-6.31.622-3.015-4.003-4.304-4.629-1.276h0Z"/><path class="h" d="m83.33,92.431c1.891,8.335,5.804,16.127,11.381,22.603,5.402,6.273,12.362,11.258,20.698,12.497,1.281.19,2.58-.32,2.952-1.676.311-1.132-.386-2.761-1.676-2.952-7.623-1.133-13.641-5.527-18.58-11.262-5.042-5.855-8.441-12.97-10.146-20.485-.683-3.011-5.312-1.737-4.629,1.276h0Z"/><path class="h" d="m121.508,106.882c.305-.161.612-.315.925-.461.524-.247-.492.172.111-.041.226-.08.451-.161.68-.231.622-.19,1.254-.314,1.894-.426-.354.062-.142.017.091-.008.186-.02.373-.037.559-.051.451-.033.904-.05,1.356-.053.422-.003.843.007,1.265.032.194.011.388.025.582.043.063.006.784.109.222.017.633.104,1.258.229,1.871.421.252.079.515.224.772.277-.076-.016-.488-.233-.209-.083.107.057.219.105.327.161.158.083.313.171.464.266.199.125.751.551.005-.03.988.77,2.444,1.035,3.394,0,.79-.861,1.058-2.57,0-3.394-2.411-1.879-5.415-2.491-8.432-2.51-2.927-.019-5.713.56-8.3,1.927-1.112.587-1.542,2.227-.861,3.284.729,1.131,2.094,1.489,3.284.861h0Z"/><path class="h" d="m126.038,86.102c.356,1.356.697,2.734.901,4.122l-.086-.638c.024.19.035.378.015.569l.086-.638c-.013.089-.033.171-.063.256l.242-.573c-.026.06-.054.11-.09.165l.375-.486c-.042.051-.083.091-.135.133l.486-.375c-.104.067-.214.121-.326.173l.573-.242c-.18.075-.358.13-.55.161l.638-.086c-.174.021-.343.019-.517,0l.638.086c-.195-.027-.386-.074-.581-.101-.319-.1-.638-.114-.957-.043-.319.014-.617.109-.892.285-.498.291-.973.862-1.103,1.434-.14.614-.11,1.304.242,1.849.312.484.835,1.022,1.434,1.103.469.063.924.182,1.401.203.745.033,1.433-.198,2.096-.503.826-.38,1.474-1.139,1.693-2.028.187-.755.108-1.396-.02-2.153-.224-1.328-.531-2.644-.873-3.947-.152-.579-.588-1.133-1.103-1.434s-1.273-.429-1.849-.242c-1.25.404-2.018,1.651-1.676,2.952h0Z"/><path class="h" d="m104.517,74.352c-.688,2.237-.24,7.383,3.999,7.822,5.602-.034,5.9-6.256,4.014-9.181-1.544-2.395-6.084-3.391-8.013,1.36Z"/><path class="h" d="m149.376,74.352c.689,2.237.24,7.383-3.998,7.821-5.602-.034-5.9-6.256-4.014-9.181,1.544-2.395,6.084-3.391,8.013,1.36Z"/><path class="h" d="m141.272,36.418c2.026,7.662,4.182,15.355,8.871,21.862,4.409,6.118,10.382,11.894,17.725,14.208,2.953.93,4.217-3.702,1.276-4.629-6.336-1.996-11.645-7.354-15.34-12.685-4.169-6.015-6.054-13.033-7.904-20.032-.789-2.984-5.42-1.718-4.629,1.276h0Z"/><path class="h" d="m141.347,34.115c-4.775,6.402-10.898,11.75-17.949,15.509-1.723.919-3.493,1.752-5.313,2.461-.984.383-1.984.779-3,1.071-.015.004-1.069.182-1.047.145.147-.244.922.67.694.641-.144-.018,1.556-9.643,1.682-10.652.271-2.167-2.745-3.025-4.097-1.697-7.736,7.594-15.59,15.104-23.977,21.982-1.003.823-.853,2.541,0,3.394.992.992,2.389.825,3.394,0,8.386-6.878,16.241-14.388,23.977-21.982l-4.097-1.697c-.376,3.01-1.291,6.503-1.605,9.736-.184,1.892.296,3.59,2.047,4.555,1.789.986,3.842.386,5.63-.245,7.1-2.506,13.632-6.354,19.261-11.356,3.188-2.833,5.998-6.026,8.546-9.442.775-1.04.169-2.681-.861-3.284-1.225-.716-2.506-.181-3.284.861h0Z"/><path class="h" d="m156.29,12.677c1.576.939,2.907,2.061,4.206,3.351,1.536,1.525,3.137,3.006,4.584,4.617,2.836,3.158,5.06,6.852,6.881,10.673,1.948,4.086,3.378,8.427,4.353,12.844.847,3.838,1.171,7.701,1.384,11.615.285,5.227.444,10.47.283,15.704-.095,3.09,4.705,3.087,4.8,0,.152-4.947.015-9.902-.237-14.844-.212-4.15-.509-8.282-1.312-12.367-1.824-9.271-5.67-18.454-11.698-25.786-1.614-1.963-3.48-3.684-5.272-5.48-1.696-1.699-3.48-3.24-5.549-4.474-2.66-1.585-5.077,2.563-2.423,4.145h0Z"/><path class="h" d="m150.826,4.666C142.426,1.281,133.41-.319,124.347.053c-9.356.384-18.558,3.253-26.723,7.785-6.115,3.394-11.436,7.749-15.583,13.398-4.308,5.869-7.217,12.75-9.138,19.742-2.781,10.122-3.577,20.748-3.248,31.209.097,3.081,4.897,3.095,4.8,0-.494-15.697,1.419-32.652,10.098-46.152,3.274-5.092,7.607-9.217,12.793-12.461,7.129-4.459,15.342-7.586,23.731-8.479,9.71-1.033,19.45.565,28.471,4.2,1.203.485,2.637-.528,2.952-1.676.376-1.37-.469-2.466-1.676-2.952h0Z"/><path class="f" d="m153.554,142.498c-8.317,4.976-17.254,6.98-26.223,6.98-10.562,0-20.67-2.669-30.011-9.5l-1.178.128c-2.181.236-7.194,1.45-8.458,1.847-9.87,3.102-17.479,6.722-24.781,13.108-4.859,4.249-8.511,10.648-10.51,16.701-2.46,7.448-3.473,15.383-4.368,23.147-.984,8.539-1.702,17.204-1.411,25.806.294,11.792.549,23.445,4.544,34.067,2.389,6.351,6.697,12.122,12.763,15.395,2.746,1.482,5.871,2.123,9.013,2.044-.17,2.467-.4,5.058-.7,7.8-.51,4.54-.22,8.81,3.29,10.62h97.59c2.76-.35,6.43.77,7.88-1.26.76-1.07.77-2.49.58-3.79-.88-6.3-1.6-8.49-1.86-15.01-.022-.548-.044-1.121-.052-1.703,9.377-2.509,17.476-7.479,21.933-17.942,3.913-9.187,5.034-21.205,5.284-32.58.01-10.455-.179-21.014-1.176-31.428-1.107-11.558-3.385-23.301-12.04-31.74-9.266-9.034-22.211-13.895-34.7-16.429-1.769,1.398-3.574,2.641-5.41,3.739Z"/><path class="f" d="m40.062,129.99c-1.368.855-2.65,1.19-3.808.993-.684-.115-1.309-.355-1.858-.712-1.956-1.272-3.987-4.339-5.718-8.635-2.225-5.526-.993-9.317.434-13.707.334-1.027.679-2.089.984-3.196.652-2.277.303-4.543-.983-6.377-1.206-1.719-3.142-2.83-5.18-2.97-1.801-.213-3.716.236-5.363,1.265-1.649,1.03-2.904,2.575-3.442,4.239-1.052,2.748-.941,5.592-.693,8.009.063.614.049,1.814-.753,2.958-.435.621-1.068,1.209-1.783,1.655-.787.492-1.646.803-2.482.901-2.244.261-3.972-.786-5.284-3.199-1.381-2.542-1.979-5.643-1.683-8.731.581-6.056,4.724-12.323,10.555-15.967,3.313-2.07,8.65-4.207,15.263-2.63,4.662,1.111,8.944,4.279,11.455,8.474,2.292,3.828,2.956,8.202,1.871,12.316-.685,2.597-1.326,4.492-1.892,6.163-.334.988-.623,1.84-.872,2.694-.605,2.073-.337,4.502.701,6.34l.439.773c.713,1.25,1.329,2.33,1.864,3.596.297.702.489,1.902.249,2.997-.241,1.097-.977,2.1-2.02,2.752Z"/><path class="f" d="m49.654,146.133c-1.671,1.044-3.685,1.23-5.387.496-2.669-1.3-3.674-4.133-3.273-6.255.26-1.375,1.146-2.595,2.562-3.529l.104-.067c.662-.414,3.008-1.684,5.375-.653,2.514,1.096,3.935,4.259,3.105,6.907-.389,1.241-1.272,2.343-2.485,3.101Z"/><path class="e" d="m71.093,341.05c-.477-17.197.463-34.405,6.679-50.406,39.953,0,80,0,95.341,0,1.114-.14,2.375-.043,3.58-.01,6.207,16.004,7.148,33.216,6.671,50.416"/><path class="h" d="m177.265,269.031c.093,4.005.522,7.95,1.171,11.9.315,1.917.806,3.905.841,5.85.007.36.002.722-.148,1.058-.062.139-.33.337-.092.187-.553.348-1.483.224-2.167.211-5.516-.107-11.052.005-16.574.005-16.765,0-33.53,0-50.295,0h-34.475l1.211.328c-2.134-1.173-2.337-3.639-2.292-5.874.07-3.49.647-6.99.891-10.474.091-1.295-1.168-2.4-2.4-2.4-1.374,0-2.309,1.102-2.4,2.4-.201,2.865-.52,5.716-.779,8.575-.213,2.351-.213,4.868.58,7.121.74,2.102,2.503,4.676,4.87,5.081,1.503.257,3.223.043,4.75.043h4.92c12.064,0,24.128,0,36.192,0h43.151c2.956,0,5.943.125,8.896,0,2.334-.099,4.945.362,7.198-.387,3.385-1.125,4.009-4.566,3.576-7.701-.736-5.333-1.698-10.519-1.824-15.922-.072-3.084-4.872-3.095-4.8,0h0Z"/><path class="h" d="m73.493,341.05c-.428-15.854.355-31.89,5.574-47.002,1.011-2.926-3.625-4.183-4.629-1.276-5.347,15.481-6.184,32.035-5.746,48.278.083,3.083,4.884,3.095,4.8,0h0Z"/><path class="h" d="m175.399,294.048c5.21,15.114,5.992,31.149,5.564,47.002-.083,3.09,4.717,3.088,4.8,0,.439-16.243-.398-32.795-5.736-48.278-1.001-2.903-5.639-1.656-4.629,1.276h0Z"/><path class="h" d="m38.851,127.918c-1.115.658-2.084,1.012-3.243.282-.473-.298-1.281-1.179-1.781-1.881-1.666-2.338-3.021-5.151-3.673-7.95-.605-2.595-.156-5.136.591-7.646.859-2.885,2.287-5.863,2.038-8.937-.549-6.786-7.652-10.533-13.758-8.031-2.888,1.183-5.051,3.418-6.152,6.33-1.132,2.992-.937,5.923-.82,9.037.074,1.973-2.523,3.48-4.149,2.769-2.17-.948-2.958-4.705-3.09-6.774-.343-5.357,2.335-10.381,6.145-14,3.621-3.439,8.422-5.555,13.459-5.365,5.476.206,10.589,3.268,13.346,8.009,1.601,2.752,2.355,6.082,1.751,9.24-.586,3.065-1.77,6.006-2.715,8.969-1.025,3.215-.834,6.437.826,9.404.935,1.671,3.575,4.948,1.226,6.54-2.542,1.724-.143,5.885,2.423,4.145,3.041-2.062,4.098-5.645,2.632-9.033-1.056-2.442-3.09-4.69-2.991-7.479.05-1.393.659-2.768,1.101-4.074.497-1.472.985-2.947,1.417-4.441,1.007-3.484,1.409-6.935.566-10.51-1.523-6.459-6.497-11.678-12.564-14.137s-13.01-1.659-18.64,1.465c-5.374,2.982-9.661,8.006-11.711,13.8-1.117,3.157-1.363,6.535-.775,9.826.557,3.118,2.08,6.706,4.905,8.409,3.004,1.811,6.926.875,9.379-1.442,1.255-1.186,2.04-2.722,2.218-4.439.15-1.437-.166-2.902-.14-4.35.054-2.969.974-5.988,3.832-7.339,2.468-1.167,5.652-.597,6.976,1.957.822,1.586.518,3.129.033,4.759-.545,1.831-1.209,3.627-1.697,5.474-.911,3.448-1.024,6.996.063,10.42,1.1,3.467,2.884,7.138,5.396,9.814,2.761,2.941,6.546,3.36,9.999,1.321,2.658-1.57.246-5.721-2.423-4.145Z"/><path class="h" d="m48.442,144.061c-.162.098-.332.182-.494.279-.089.053-.408.242.063-.012-.253.136-.597.211-.875.275-.044.01-.29.089-.356.072l.281-.036c-.119.013-.238.022-.358.027-.259.012-.648.069-.891-.029l.286.035c-.117-.021-.233-.045-.348-.074-.115-.028-.23-.061-.343-.096-.105-.033-.463-.274-.208-.07.279.223-.103-.078-.159-.111-.093-.055-.184-.112-.274-.172l-.132-.09c-.168-.123-.171-.124-.008-.002l.12.091c-.079-.066-.157-.134-.232-.204-.111-.103-.219-.211-.322-.322-.085-.092-.163-.189-.245-.283-.216-.248.322.5.067.072-.124-.208-.258-.406-.369-.621-.031-.061-.082-.219-.124-.256.258.231.157.44.056.117-.076-.242-.157-.48-.213-.728-.024-.109-.035-.224-.064-.332-.084-.312.046.649.028.176-.008-.217-.024-.431-.016-.648.003-.085.012-.169.015-.253.018-.455-.133.493-.03.207.073-.203.209-.587.219-.807-.018.392-.159.343-.021.072.06-.118.124-.234.194-.346-.004.006.152-.267.177-.269l-.179.224c.069-.087.141-.172.215-.255.172-.193.358-.373.552-.543l.066-.058c.203-.166.183-.153-.06.04.028-.07.282-.197.358-.246.243-.156.499-.284.756-.416.219-.113.345-.03-.158.059.082-.015.184-.072.266-.101.294-.106.596-.193.902-.256.054-.011.26-.074.33-.06l-.295.044c.117-.011.235-.018.353-.021.121-.003.241.004.362.003.581-.005-.342-.1.013-.013.257.063.635.079.857.238-.445-.32-.117-.041.02.034.131.072.252.157.381.232.353.206-.117-.056-.127-.112.01.059.287.246.336.293.163.154.307.324.458.489.225.245-.336-.495-.058-.069.055.084.112.166.165.251.079.128.154.258.224.391.085.162.201.591.011-.027.081.264.19.517.259.786.031.122.053.245.083.367.125.509-.034-.565-.003-.043.017.276.028.548.012.825-.013.219-.133.449.03-.116-.041.141-.054.299-.09.442-.031.124-.067.247-.107.368-.192.578.202-.305-.039.105-.09.153-.256.654-.426.708l.173-.218c-.07.088-.143.174-.219.257-.114.127-.234.249-.359.366-.029.027-.199.214-.259.229.259-.193.282-.211.068-.055-.097.068-.196.134-.296.197-1.054.679-1.584,2.162-.861,3.284.68,1.054,2.155,1.588,3.284.861,1.602-1.031,2.813-2.436,3.48-4.228.55-1.477.547-3.186.139-4.698-.895-3.312-3.828-5.918-7.332-5.948-2.988-.026-6.05,1.699-7.609,4.237s-1.283,5.982.409,8.386c1.122,1.594,2.753,2.901,4.694,3.312,2.143.453,4.343.072,6.218-1.061,1.074-.649,1.571-2.183.861-3.284-.696-1.079-2.134-1.556-3.284-.861Z"/><path class="h" d="m44.215,220.715c.273,10.973.463,22.26,3.951,32.782,2.927,8.83,9.168,17.766,18.58,20.379s19.147-1.652,25.134-8.985c3.121-3.822,5.414-8.171,7.499-12.621,2.37-5.062,4.345-10.305,6.045-15.627,3.947-12.355,6.488-25.092,9.523-37.686.723-3.002-3.904-4.283-4.629-1.276-2.535,10.519-4.723,21.127-7.676,31.541-2.72,9.594-6.039,19.24-11.148,27.856-2.208,3.725-4.987,7.3-8.67,9.67-3.427,2.206-7.497,3.283-11.567,3.045-8.29-.484-14.703-7.844-17.577-15.112-4.253-10.757-4.382-22.569-4.666-33.966-.077-3.083-4.877-3.095-4.8,0h0Z"/><path class="h" d="m204.479,218.356c-.235,10.219-.915,20.829-4.603,30.468-2.759,7.211-8.019,12.681-15.076,15.774-6.763,2.964-14.35,3.797-21.643,4.308-10.304.721-20.648,1.057-30.975,1.193-13.068.172-26.285.256-39.312-.909-1.293-.116-2.4,1.186-2.4,2.4,0,1.394,1.104,2.284,2.4,2.4,11.884,1.064,23.922,1.034,35.845.945,11.045-.083,22.098-.434,33.122-1.14,7.92-.507,16.091-1.299,23.523-4.267,7.657-3.058,13.994-8.38,17.625-15.875,5.231-10.798,6.025-23.492,6.296-35.297.071-3.09-4.729-3.089-4.8,0h0Z"/><path class="h" d="m111.764,239.411c17.134-1.406,34.237-3.026,51.297-5.17,1.286-.162,2.4-.987,2.4-2.4,0-1.171-1.105-2.563-2.4-2.4-17.06,2.144-34.162,3.765-51.297,5.17-1.292.106-2.4,1.027-2.4,2.4,0,1.216,1.101,2.507,2.4,2.4h0Z"/><path class="h" d="m169.756,199.334c-.014,3.856-.525,7.753-.882,11.586-.221,2.371-.454,4.741-.711,7.109-.1.919-.203,1.838-.317,2.756-.026.208-.054.416-.08.624.089-.728.039-.271.012-.1-.041.262-.077.525-.126.787-.236,1.273.351,2.588,1.676,2.952,1.168.321,2.715-.395,2.952-1.676.741-4,.987-8.138,1.367-12.183.368-3.922.893-7.91.907-11.855.011-3.089-4.789-3.093-4.8,0h0Z"/><path class="h" d="m94.999,141.23c14.194,10.84,33.929,13.62,50.728,7.59,5.019-1.801,9.701-4.356,13.938-7.59,1.029-.785,1.572-2.067.861-3.284-.592-1.013-2.247-1.652-3.284-.861-6.772,5.17-14.703,8.572-23.185,9.6-8.081.979-16.425.246-24.088-2.556-4.529-1.656-8.723-4.123-12.547-7.044-1.031-.787-2.686-.16-3.284.861-.722,1.235-.172,2.494.861,3.284h0Z"/><path class="h" d="m209.279,218.356c.006-8.195-.105-16.395-.631-24.575-.447-6.949-1.048-13.995-2.738-20.769-1.59-6.369-4.305-12.437-8.603-17.446-4.356-5.076-10.18-9.005-16.139-11.957-6.931-3.433-14.368-5.718-21.934-7.248-1.269-.257-2.592.366-2.952,1.676-.325,1.184.4,2.694,1.676,2.952,12.399,2.506,25.183,7.055,34.301,16.185,9.156,9.167,10.624,22.854,11.49,35.135.611,8.668.736,17.36.73,26.047-.002,3.089,4.798,3.094,4.8,0h0Z"/><path class="h" d="m49.015,220.715c-.253-7.977.323-15.945,1.193-23.871.819-7.458,1.71-14.969,3.804-22.196,1.798-6.205,4.774-12.236,9.423-16.808,4.383-4.31,9.845-7.595,15.431-10.088,3.147-1.405,6.436-2.609,9.746-3.571,1.239-.36,2.501-.651,3.759-.934.754-.17,1.51-.332,2.268-.479.297-.057.594-.113.892-.164.18-.031.361-.061.542-.089-.224.026-.201.023.069-.009,1.287-.151,2.4-.995,2.4-2.4,0-1.18-1.104-2.552-2.4-2.4-5.63.662-11.141,2.408-16.385,4.503-6.344,2.534-12.212,5.847-17.468,10.231-11.946,9.962-14.677,25.751-16.418,40.369-1.103,9.261-1.952,18.57-1.656,27.906.098,3.081,4.898,3.095,4.8,0h0Z"/><path class="f" d="m95.901,140.312c.861-3.74,1.968-7.204,3.355-10.084,3.239-6.726,8.061-8.896,15.239-9.876,3.46-.472,7.06-.159,10.289,1.17,3.64,1.499,6.524,4.722,4.518,8.97,3.111.684,4.418,2.683,4.295,5.202-.066,1.365-1.002,3.858-3.336,4.335l-.397.081c2.008.981,2.337,2.753,2.369,3.944.057,2.112-1.83,4.364-3.577,4.168-1.263-.142-2.294-.255-3.249-.341.634.354.993.554.993.554,1.2.67,1.936,2.096,2.021,3.147.09,1.106-.164,2.275-.798,3.167-.998,1.405-2.694,1.485-4.153,1.65-1.907.216-3.633.717-4.272,2.503-.248.693-1.2,5.214-1.567,6.546-.737,2.68-1.916,5.303-3.879,7.318s-4.796,3.358-7.677,3.137c0,0-1.182-.091-2.062-.157-4.534-1.882-10.674-4.772-12.15-7.046-1.649-2.54,1.496-7.566,1.758-11.808.34-5.499,1.067-11.313,2.28-16.579Z"/><path class="h" d="m131.873,130.52c1.959-5.745-2.604-10.116-7.679-11.762s-10.867-1.162-15.889.477c-4.381,1.43-7.943,4.202-10.278,8.194-2.688,4.595-4.07,10.014-5.06,15.2-.572,3-.994,6.031-1.313,9.068-.276,2.623-.263,5.28-.963,7.834-.642,2.342-1.64,4.682-1.7,7.143-.058,2.389,1.191,4.089,2.999,5.48,2.01,1.547,4.29,2.713,6.576,3.793,1.119.529,2.251,1.031,3.39,1.515.766.326,1.393.618,2.228.696.563.053,1.129.09,1.693.129,5.845.405,10.654-3.738,12.875-8.859.962-2.217,1.486-4.511,2.02-6.855.204-.894.303-1.984.676-2.829.278-.632.952-.743,1.612-.873,1.258-.249,2.54-.232,3.757-.683,1.676-.622,2.881-1.854,3.525-3.517,1.203-3.104.082-6.539-2.731-8.308-2.623-1.649-5.034,2.503-2.423,4.145,1.043.656,1.297,2.529.048,3.166-.761.388-1.938.334-2.759.456-1.077.16-2.162.442-3.103,1.011-3.036,1.836-3.145,6.038-3.92,9.141-.995,3.982-3.257,8.345-7.686,9.157-.701.129-1.405.083-2.112.032-.422-.03-.948-.018-1.319-.139-.376-.122-.803-.376-1.185-.544-2.14-.942-4.264-1.944-6.281-3.13-.656-.385-1.411-.841-1.959-1.266-.279-.216-.542-.458-.791-.708.012.012-.44-.557-.247-.27.153.229-.02-.336-.012-.037-.01-.371-.066-1.118.08-1.774.252-1.126.608-2.223.944-3.325,1.398-4.583,1.318-9.367,1.996-14.083.688-4.788,1.67-9.588,3.346-14.136,1.206-3.273,2.964-6.621,5.887-8.541,3.504-2.301,8.34-3.165,12.523-2.942,3.467.185,10.233,1.901,8.608,6.667-.999,2.93,3.636,4.188,4.629,1.276h0Z"/><path class="h" d="m116.857,131.336c2.435.165,4.873.345,7.292.672-.41-.055.359.053.358.053.248.036.496.074.744.114.586.093,1.17.194,1.754.303.52.097,1.041.194,1.558.308.248.055.495.113.738.188.152.046.303.097.452.153-.185-.083-.203-.09-.053-.019.193.094.374.206.561.309.088.053.173.11.256.171-.22-.174-.229-.174-.027,0,.128.141.268.269.392.415-.36-.421-.011.024.046.125.13.228.179.472.066.098.063.211.122.42.178.633.154.587.045-.241.024.229-.009.196-.016.415-.001.608.033.434.144-.531.015-.06-.043.159-.069.324-.114.483-.019.066-.257.708-.121.391s-.183.331-.22.392c-.068.113-.427.54-.081.154-.136.151-.272.29-.42.43.363-.34-.075.027-.184.098-.245.123-.25.128-.015.016-.142.048-.287.087-.434.117-1.262.298-2.011,1.736-1.676,2.952.355,1.291,1.687,1.975,2.952,1.676,5.327-1.257,6.815-8.89,2.764-12.343-2.144-1.828-5.066-2.149-7.755-2.55-3.003-.448-6.022-.71-9.05-.915-1.295-.088-2.4,1.166-2.4,2.4,0,1.372,1.102,2.312,2.4,2.4h0Z"/><path class="h" d="m116.635,140.695c2.308.12,4.614.299,6.911.564.298.034.596.07.893.108.126.016.253.032.379.049-.109-.015-.385-.055.108.017.557.082,1.112.168,1.666.266.531.094,1.069.185,1.589.33.22.061.44.131.651.218-.438-.181.201.151.32.214.141.076.272.279-.054-.055.059.061.13.108.188.171.166.179.336.546.093.058.065.13.162.257.237.382-.006-.01.139.242.129.26-.005.009-.17-.546-.089-.181.034.153.091.301.126.455.014.063.023.129.04.192.079.294-.159-.028-.03-.265-.097.177.046.802.025,1.016.046-.461-.084.191-.132.336-.085.261.007-.013.028-.056-.066.134-.146.26-.214.393-.185.362.126-.068-.148.223-.099.105-.201.203-.301.306-.161.167-.196.122-.002.008-.114.067-.229.132-.344.198.028-.016.382-.135.129-.07-.27.069.164-.003.185-.002-.122-.006-.24,0-.363-.007-.634-.039-1.27-.142-1.902-.209-2.554-.268-5.098-.366-7.666-.327-1.255.019-2.459,1.09-2.4,2.4.058,1.284,1.055,2.421,2.4,2.4,2.654-.041,5.279.072,7.918.353,1.543.164,2.879.321,4.296-.488,1.395-.796,2.372-2.163,2.935-3.639.752-1.97.43-4.509-.803-6.227-1.716-2.39-4.497-2.889-7.23-3.283-3.173-.457-6.366-.744-9.567-.91-1.256-.065-2.456,1.151-2.4,2.4.061,1.356,1.055,2.33,2.4,2.4h0Z"/></g></g></svg>