<?xml version="1.0" encoding="UTF-8"?><svg id="b" xmlns="http://www.w3.org/2000/svg" width="290.796" height="278.487" viewBox="0 0 290.796 278.487"><defs><style>.e{fill:#fff;}.e,.f,.g,.h,.i{stroke-width:0px;}.f{fill:#3d8dcc;}.g{fill:#febe69;}.h{fill:#211715;}.i{fill:#645d5c;}</style></defs><g id="c"><g id="d"><path class="e" d="m187.688,85.975c1.693-1.627,3.974-2.238,5.925-2.169,4.247.15,6.054,2.447,6.832,3.796,2.321,4.026,2.223,11.445.665,16.035-1.104,3.251-2.911,8.224-7.27,11.79-1.977,1.617-4.979,2.627-7.724,1.838-1.943,6.778-5.488,14.983-11.756,22.609-4.135,5.032-8.105,8.458-12.626,11.004,0,4.889,0,8.128,0,8.128,0,1.437,0,3.004.531,4.402.712,1.838,1.67,3.431,3.211,4.674,3.263,2.628,6.616,3.884,10.746,5.438l5.645,2.227s-6.596,22.686-46.596,22.686-45.489-22.686-45.489-22.686l5.658-2.227c4.13-1.554,7.483-2.81,10.746-5.438,1.541-1.243,2.499-2.835,3.211-4.674.531-1.398.531-2.965.531-4.402,0,0,0-2.601-.004-6.903-5.058-2.773-9.658-6.883-14.052-12.23-6.245-7.6-9.788-15.774-11.736-22.539-2.672.653-5.546-.344-7.459-1.909-4.358-3.566-6.166-8.539-7.27-11.79-1.558-4.59-1.656-12.009.665-16.035.778-1.349,2.585-3.646,6.832-3.796,1.952-.069,4.232.542,5.925,2.169,0,0-4.06-41.784,51.44-41.784s53.418,41.784,53.418,41.784Z"/><path class="h" d="m159.334,152.274v5.414c0,2.117-.104,4.333.617,6.359,1.371,3.856,4.225,6.457,7.738,8.4,4.24,2.345,9.033,3.837,13.54,5.615,1.206.476,2.635-.522,2.952-1.676.374-1.363-.466-2.475-1.676-2.952-3.795-1.497-7.784-2.788-11.426-4.621-2.82-1.42-5.663-3.238-6.632-6.426-.53-1.742-.313-3.721-.313-5.517v-4.594c0-3.089-4.8-3.094-4.8,0h0Z"/><path class="h" d="m107.527,153.491v4.898c0,1.638.072,3.23-.605,4.758-1.299,2.932-4.048,4.565-6.836,5.909-3.517,1.694-7.308,2.947-10.943,4.377-1.205.474-2.046,1.607-1.676,2.952.316,1.148,1.739,2.154,2.952,1.676,4.339-1.708,8.91-3.169,13.037-5.337,3.418-1.796,6.336-4.168,7.884-7.782,1.513-3.534.987-7.688.987-11.451,0-3.089-4.8-3.094-4.8,0h0Z"/><path class="e" d="m159.489,223.431c5.333-17.782,10.269-36.235,14.43-54.031.024-.104.047-.206.076-.305.502-2.237-.544-5.065-1.925-6.664-2.554-2.958-5.772-7.236-8.382-10.157-1.109.898-23.723,18.728-25.437,19.943h-3.984c-1.715-1.215-24.328-19.045-25.437-19.943-2.61,2.92-5.829,7.199-8.382,10.157-1.381,1.6-2.427,4.427-1.925,6.664.029.099.053.2.076.305,5.67,24.25,12.78,49.72,20.37,73.05,2.91,8.93,4.9,15.07,7.01,21.11h20.56c1.75-5.02,3.43-10.12,5.61-16.83.45-1.35.91-2.78,1.4-4.28,2.02-6.209,4.006-12.57,5.94-19.019Z"/><path class="f" d="m18.259,263.56c2.01-22.47,4.6-46.42,18.89-63.88,4.92-6.03,11.1-11.02,18.02-14.57,5.31-2.72,11.02-4.59,16.69-6.44,2.751-.9,5.533-1.811,8.334-2.601,4.955-4.799,11.099-9.407,15.689-12.451.584-.387,1.368-.07,1.523.614.342,1.504.693,3.011,1.044,4.529.05.21.1.42.15.64,5.67,24.25,12.78,49.72,20.37,73.05,2.91,8.93,4.9,15.07,7.01,21.11H18.259Z"/><path class="f" d="m252.259,263.56c-2.01-22.47-4.6-46.42-18.89-63.88-4.92-6.03-11.1-11.02-18.02-14.57-5.31-2.72-11.02-4.59-16.69-6.44-1.811-.6-3.641-1.19-5.472-1.751-5.087-5.101-11.69-10.078-16.551-13.302-.584-.387-1.368-.07-1.523.614-.342,1.504-.693,3.011-1.044,4.529-.05.21-.1.42-.15.64-5.67,24.25-12.78,49.72-20.37,73.05-.49,1.5-.95,2.93-1.4,4.28-2.18,6.71-3.86,11.81-5.61,16.83h105.72Z"/><path class="i" d="m102.652,67.536c-4.322,3.882-8.433,8.049-11.442,11.402l-8.38,7.036c-1.693-1.627-3.974-2.238-5.925-2.169-.975.034-1.822.182-2.556.405-1.988-7.273-2.832-14.475-2.568-20.725,1.057-25.016,14.269-40.472,25.936-49.148,10.048-7.473,22.604-11.931,37.391-11.931,15.448,0,27.441,4.757,37.71,12.156,12.076,8.718,24.575,24.122,25.623,48.924.3,7.11-.536,12.908-2.499,20.659-.681-.186-1.453-.308-2.328-.339-1.952-.069-4.232.542-5.925,2.169l-8.316-6.589c-2.685-6.756-8.748-14.221-15.072-19.662-3.69-3.175-6.242-4.577-9.595-6.035l-10.417-1.28c-7.025,2.96-16.933,9.178-22.493,12.266-1.327.737-2.888-.434-2.712-2.043.116-1.06.118-2.179-.24-3.654-.37-1.526-1.543-2.174-2.457-1.695-4.062,2.13-9.024,6.022-13.735,10.253Z"/><path class="h" d="m171.293,10.61c-9.045-5.88-19.261-9.402-30.01-10.34-11.404-.995-23.02.741-33.494,5.397-16.501,7.335-29.628,22.138-35.183,39.273-4.101,12.65-4.117,26.138-.824,38.965.767,2.99,5.398,1.723,4.629-1.276-2.803-10.918-3.04-22.21-.139-33.138,2.23-8.401,6.281-16.286,11.896-22.93,5.248-6.208,11.304-11.225,18.425-14.991,9.241-4.887,19.686-6.969,30.095-6.747,11.544.246,22.51,3.643,32.183,9.931,2.597,1.689,5.006-2.465,2.423-4.145h0Z"/><path class="h" d="m198.473,83.906c1.311-5.35,2.287-10.793,2.411-16.312.12-5.325-.41-10.704-1.461-15.924-1.776-8.82-5.384-17.321-10.691-24.6-2.599-3.565-5.532-6.858-8.799-9.823-2.283-2.072-5.687,1.313-3.394,3.394,5.607,5.089,10.202,11.126,13.507,17.947,4.036,8.328,5.932,17.648,6.048,26.874.073,5.839-.863,11.512-2.25,17.169-.735,3,3.892,4.28,4.629,1.276h0Z"/><path class="h" d="m153.494,55.762c5.258,2.302,9.552,5.72,13.525,9.838,4.027,4.174,7.842,9.005,10.038,14.424.486,1.2,1.599,2.048,2.952,1.676,1.139-.313,2.166-1.744,1.676-2.952-2.471-6.098-6.453-11.477-10.967-16.224-4.29-4.511-9.076-8.4-14.802-10.907-1.186-.519-2.576-.348-3.284.861-.595,1.018-.333,2.761.861,3.284h0Z"/><path class="h" d="m92.907,80.635c6.251-6.946,13.172-13.75,20.934-19,.846-.572,1.707-1.122,2.591-1.634.218-.126.887-.455.826-.5.552.399-.938-.119-.774-.169-.191-.205-.177-.149.041.169-.002.113.016.224.054.332.286,1.056.075,2.073.094,3.138.025,1.436.781,2.856,1.993,3.636,2.272,1.463,4.356.151,6.377-1.012,1.938-1.116,3.864-2.252,5.797-3.376,4.77-2.771,9.577-5.573,14.661-7.736,1.193-.508,1.456-2.266.861-3.284-.722-1.235-2.086-1.371-3.284-.861-4.493,1.911-8.762,4.336-12.988,6.768-2.122,1.222-4.231,2.465-6.349,3.695-.808.469-1.616.936-2.429,1.396-.15.084-.348.171-.49.275-.411.302.117.016.505.144.026.009.021.044.057.044.07.369.101.417.093.143.002-.164.015-.327.037-.489.148-2.471-.197-5.725-2.6-7.069-2.286-1.278-4.475.296-6.385,1.516-4.131,2.638-7.94,5.815-11.58,9.085-4.003,3.596-7.836,7.396-11.435,11.396-2.061,2.291,1.322,5.696,3.394,3.394h0Z"/><path class="h" d="m80.79,113.893c1.718,7.799,4.834,15.365,9.221,22.044,4.68,7.125,10.84,13.81,18.325,18.03,3.811,2.149,7.983,3.613,12.308,4.272,1.28.195,2.58-.323,2.952-1.676.312-1.135-.387-2.756-1.676-2.952-15.542-2.369-27.115-15.986-32.973-29.808-1.527-3.602-2.687-7.367-3.529-11.186-.664-3.015-5.293-1.739-4.629,1.276h0Z"/><path class="h" d="m184.814,112.617c-1.479,6.717-3.998,13.156-7.566,19.042-3.776,6.228-8.752,12.133-14.94,16.078-3.147,2.006-6.55,3.463-10.09,4.616-2.925.952-1.673,5.589,1.276,4.629,6.957-2.265,13.223-5.732,18.459-10.888,6.096-6.003,10.771-13.311,14.035-21.193,1.474-3.559,2.626-7.246,3.455-11.008.663-3.01-3.963-4.296-4.629-1.276h0Z"/><path class="h" d="m134.718,105.631c.449,1.711.879,3.448,1.136,5.199l-.086-.638c.03.24.044.476.019.718l.086-.638c-.017.112-.041.216-.079.323l.242-.573c-.033.075-.068.139-.114.208l.375-.486c-.053.065-.104.115-.17.167l.486-.375c-.131.084-.27.153-.412.218l.573-.242c-.227.095-.451.164-.694.202l.638-.086c-.219.026-.433.024-.651-.001l.638.086c-.246-.034-.487-.094-.732-.127-.67-.09-1.239-.115-1.849.242-.498.291-.973.862-1.103,1.434-.14.614-.11,1.304.242,1.849.312.484.835,1.022,1.434,1.103.535.072,1.055.209,1.6.233.823.036,1.591-.213,2.328-.549.903-.412,1.607-1.21,1.847-2.183.203-.823.114-1.558-.025-2.382-.283-1.675-.67-3.335-1.101-4.978-.318-1.214-1.729-2.072-2.952-1.676-1.25.404-2.018,1.651-1.676,2.952h0Z"/><path class="h" d="m106.973,90.978c-.868,2.821-.302,9.312,5.043,9.864,7.065-.042,7.44-7.889,5.062-11.578-1.947-3.021-7.672-4.277-10.105,1.715Z"/><path class="h" d="m163.545,90.978c.868,2.821.303,9.312-5.042,9.864-7.065-.043-7.441-7.889-5.063-11.579,1.947-3.021,7.672-4.277,10.105,1.715Z"/><path class="h" d="m84.527,84.278c-3.438-3.121-8.556-3.74-12.69-1.616-2.983,1.532-4.648,4.612-5.361,7.776-1.696,7.532.223,16.069,4.625,22.385,3.108,4.459,7.523,7.72,13.181,6.929,1.285-.18,1.988-1.819,1.676-2.952-.38-1.383-1.663-1.857-2.952-1.676-3.178.445-5.967-2.202-7.65-4.568-1.638-2.303-2.75-4.886-3.634-7.556-.964-2.914-1.211-6.028-.957-9.078.116-1.396.384-2.832.906-4.137.176-.44.397-.862.65-1.262.102-.162.209-.323.325-.475-.281.367.255-.255.353-.355.718-.73,1.997-1.291,3.268-1.444,1.754-.211,3.542.223,4.866,1.424,2.283,2.072,5.687-1.312,3.394-3.394h0Z"/><path class="h" d="m189.385,87.672c2.047-1.859,5.508-1.988,7.732-.345.123.091.597.551.868.873-.247-.293.031.04.112.168.12.19.239.379.348.576.671,1.209.999,2.628,1.2,3.985.842,5.691-.731,11.688-3.753,16.532-1.721,2.758-4.732,6.172-8.379,5.662-1.282-.179-2.578.312-2.952,1.676-.309,1.123.384,2.772,1.676,2.952,9.354,1.309,14.761-7.976,17.237-15.625,1.25-3.86,1.434-8.122.854-12.117-.494-3.406-1.813-6.686-4.675-8.748-4.077-2.937-10.037-2.274-13.661,1.017-2.292,2.081,1.11,5.467,3.394,3.394h0Z"/><path class="g" d="m146.539,263.56c1.75-5.02,3.43-10.12,5.615-16.844-2.477-21.239-5.753-46.493-5.753-47.237,0-1.338.304-2.661.608-3.968.152-.593.289-1.186.411-1.779.654-2.95.774-4.46,1.534-7.585,0,0,.014-.059.04-.164-3.647-4.916-8.055-10.743-10.742-13.765h-3.984c-2.659,2.991-7.003,8.728-10.626,13.612l.309.993c1.014,2.112,1.292,4.211,1.865,6.065.716,2.285,1.432,4.635,1.473,7.027.021,1.249-3.427,25.204-6.624,47.737,2.042,6.261,3.641,11.116,5.315,15.907h20.56Z"/><path class="h" d="m145.532,194.782c-5.894-.002-11.787-.123-17.681-.126-3.089-.001-3.094,4.799,0,4.8,5.894.002,11.787.123,17.681.126,3.089.001,3.094-4.799,0-4.8h0Z"/><path class="h" d="m146.639,185.509c-.55,2.3-.908,4.634-1.396,6.947-.485,2.296-1.339,4.723-1.238,7.095.069,1.62.377,3.261.576,4.869,1.023,8.29,2.069,16.577,3.084,24.868.714,5.834,1.418,11.67,2.099,17.508.15,1.287.996,2.4,2.4,2.4,1.181,0,2.551-1.104,2.4-2.4-1.157-9.916-2.377-19.825-3.609-29.732-.712-5.72-1.651-11.461-2.12-17.208-.14-1.71.438-3.39.806-5.041.594-2.667.992-5.372,1.628-8.03.719-3.002-3.909-4.284-4.629-1.276h0Z"/><path class="h" d="m123.136,247.18c1.431-10.08,2.873-20.159,4.291-30.241.507-3.603,1.011-7.205,1.497-10.811.263-1.954.626-3.934.746-5.905.129-2.117-.459-4.349-1.049-6.364-.81-2.766-1.395-5.619-2.599-8.249-.54-1.179-2.244-1.469-3.284-.861-1.211.708-1.403,2.101-.861,3.284.951,2.078,1.319,4.456,1.978,6.64.525,1.741,1.117,3.613,1.023,5.454-.081,1.575-.417,3.496-.593,4.801-1.018,7.584-2.21,15.874-3.323,23.706-.818,5.756-1.638,11.513-2.455,17.269-.182,1.282.314,2.578,1.676,2.952,1.125.309,2.769-.385,2.952-1.676h0Z"/><path class="h" d="m161.991,153.971c1.505,1.695,2.925,3.462,4.344,5.228,1.33,1.655,2.768,3.251,4.05,4.94.956,1.26,1.583,3.002,1.23,4.578.098-.438-.062.118-.176.317-.202.354-.412.704-.624,1.052-3.066,5.055-6.461,9.98-10.231,14.535-1.207,1.458-2.461,2.882-3.803,4.218-.565.563-1.146,1.11-1.751,1.63-.702.602-.737.635-1.549,1.165l3.284.861c-5.519-7.366-10.711-15.073-16.816-21.975l-.486,3.769c3.228-2.306,6.298-4.867,9.418-7.315,4.351-3.412,8.696-6.832,13.036-10.258,1.157-.913,2.321-1.82,3.469-2.746,1.009-.815.848-2.546,0-3.394-.998-.998-2.382-.817-3.394,0-7.119,5.746-14.362,11.348-21.577,16.973-.456.356-.913.711-1.37,1.066-.188.146-.377.292-.566.438-.323.251.107-.082.142-.109-.105.081-.21.163-.316.244-.419.322-.835.65-1.265.957-1.304.932-1.578,2.534-.486,3.769,5.836,6.597,10.791,13.964,16.066,21.004.747.997,2.098,1.634,3.284.861,2.791-1.82,5.121-4.292,7.273-6.81,2.508-2.934,4.823-6.04,7.03-9.205,1.653-2.371,3.255-4.783,4.754-7.255.426-.702.902-1.417,1.179-2.196.816-2.3.259-4.917-.732-7.065-1.059-2.294-3.055-4.183-4.628-6.136-1.771-2.2-3.518-4.422-5.394-6.535-2.055-2.315-5.44,1.09-3.394,3.394Z"/><path class="h" d="m107.133,150.577c-1.598,1.8-3.101,3.68-4.608,5.556-1.494,1.86-3.183,3.641-4.549,5.595-2.089,2.989-2.678,6.957-.799,10.146,3.278,5.563,7.066,10.912,11.162,15.898,2.424,2.951,5.052,5.905,8.275,8.006,1.174.766,2.538.135,3.284-.861,5.275-7.04,10.23-14.407,16.066-21.004,1.093-1.235.819-2.837-.486-3.769-.364-.26-.716-.536-1.071-.808-.134-.103-.268-.206-.402-.309-.299-.23.428.333-.087-.068-.379-.295-.759-.589-1.138-.884-1.987-1.546-3.969-3.099-5.95-4.653-4.309-3.38-8.612-6.767-12.91-10.16-1.132-.894-2.271-1.781-3.394-2.687-1.008-.813-2.409-.985-3.394,0-.842.842-1.014,2.576,0,3.394,7.195,5.807,14.514,11.47,21.808,17.152,1.363,1.062,2.708,2.161,4.115,3.166l-.486-3.769c-6.106,6.902-11.298,14.609-16.816,21.975l3.284-.861c-1.024-.668-1.824-1.36-2.907-2.408-1.158-1.12-2.245-2.312-3.294-3.534-2.218-2.584-4.256-5.316-6.208-8.106-1.583-2.261-3.113-4.561-4.564-6.91-.391-.634-.82-1.269-1.151-1.937-.033-.066-.144-.37-.066-.124.046.145-.051-.613-.05-.801.008-.848.248-1.708.613-2.471.967-2.025,2.849-3.751,4.246-5.489,1.595-1.985,3.18-3.979,4.87-5.884,2.045-2.303-1.338-5.71-3.394-3.394Z"/><path class="h" d="m20.659,263.56c1.28-14.29,2.71-28.785,7.464-42.415s13.49-25.664,26.24-32.876c3.981-2.252,8.226-3.932,12.541-5.424,4.601-1.591,9.24-3.129,13.923-4.462,2.966-.844,1.705-5.477-1.276-4.629-4.307,1.226-8.566,2.642-12.807,4.08-4.135,1.402-8.242,2.939-12.156,4.884-6.965,3.462-13.284,8.388-18.335,14.303-9.884,11.574-14.741,26.231-17.322,41.018-1.474,8.445-2.308,16.986-3.072,25.519-.116,1.293,1.186,2.4,2.4,2.4,1.395,0,2.284-1.104,2.4-2.4h0Z"/><path class="h" d="m192.551,179.234c7.743,2.38,15.738,4.732,22.875,8.631,6.362,3.475,11.949,8.183,16.5,13.824,8.766,10.868,12.824,24.682,15.137,38.23,1.336,7.827,2.088,15.737,2.796,23.64.116,1.291,1.02,2.4,2.4,2.4,1.209,0,2.516-1.101,2.4-2.4-1.316-14.696-2.744-29.674-7.636-43.691-4.952-14.19-13.715-26.725-26.652-34.685-8.116-4.994-17.494-7.797-26.544-10.578-2.959-.91-4.225,3.722-1.276,4.629h0Z"/><path class="h" d="m125.662,129.707c3.165,1.671,6.574,2.368,10.151,2.344,3.615-.023,7.292-.724,10.19-2.982,1.023-.797.837-2.557,0-3.394-1.01-1.01-2.368-.799-3.394,0,.712-.554.1-.089-.082.028-.206.132-.419.255-.636.369-.152.08-.902.392-.299.162-.291.111-.581.223-.878.319-1.868.601-3.241.711-5.232.699-1.949-.012-3.172-.128-4.991-.672-.321-.096-.635-.211-.952-.32-.103-.035-.202-.089-.307-.119.592.173.176.079.018.004-.394-.185-.781-.379-1.166-.582-1.146-.605-2.61-.291-3.284.861-.634,1.084-.289,2.676.861,3.284h0Z"/><path class="g" d="m20.499,118.603c-.214.92-1.515.936-1.752.022-.991-3.82-2.529-8.383-4.865-11.103-2.85-3.318-6.968-4.727-10.785-5.547-.948-.204-.944-1.562.004-1.763,3.78-.801,7.947-2.212,10.718-5.203,2.638-2.847,4.127-8.576,4.961-12.463.202-.942,1.538-.957,1.761-.021.928,3.887,2.581,9.632,5.224,12.483,2.744,2.96,6.709,4.373,10.373,5.179.951.209.942,1.573-.013,1.764-3.913.784-8.203,2.127-11.051,5.444-2.335,2.719-3.677,7.353-4.575,11.206Z"/><path class="h" d="m18.184,117.965v-.13c.287-.287.574-.574.861-.861.517-.143,1.017-.076,1.499.2l.617,1.059c-.846-2.066-1.247-4.318-2.107-6.399-.919-2.225-2.005-4.347-3.611-6.161-1.516-1.713-3.48-3.068-5.556-4.013-1.06-.482-2.146-.908-3.258-1.253-.771-.239-2.459-.509-2.776-.746l.861.861c.097.381.098.762.003,1.143l-.861.861c.378-.281,2.211-.556,3.042-.816,1.198-.376,2.372-.837,3.509-1.369,2.273-1.065,4.372-2.598,5.9-4.602,1.425-1.87,2.351-4.079,3.108-6.292.366-1.071.684-2.158.969-3.252.15-.573.29-1.149.424-1.726.05-.218.1-.436.148-.655.037-.168.252-.667.135-.509l-.861.861c-.511.134-1.006.069-1.484-.195l-.617-1.059c.791,2.033,1.124,4.274,1.868,6.341.783,2.174,1.7,4.377,3.088,6.241,1.464,1.967,3.419,3.527,5.6,4.641,1.174.6,2.411,1.101,3.663,1.514.823.272,2.655.569,3.034.856l-.861-.861c-.097-.379-.1-.76-.009-1.141l.861-.861c.174-.127-.097.045-.243.068-.3.047-.603.129-.899.198-.486.112-.969.234-1.449.368-1.139.318-2.244.716-3.332,1.179-2.163.92-4.212,2.205-5.811,3.948-3.121,3.405-4.423,8.172-5.455,12.561-.707,3.004,3.92,4.287,4.629,1.276.854-3.632,1.786-7.97,4.491-10.729,1.323-1.349,3.003-2.323,4.77-2.972.945-.347,1.913-.631,2.89-.874.961-.239,1.987-.331,2.831-.878,2.25-1.457,1.691-4.951-.763-5.819-1.918-.678-3.901-.971-5.748-1.89-1.649-.821-3.257-1.891-4.344-3.408s-1.829-3.297-2.444-5.057c-.64-1.833-1.044-3.717-1.604-5.57-.681-2.255-3.38-3.51-5.328-1.835-1.475,1.268-1.551,3.818-2.05,5.605-.515,1.843-1.105,3.684-1.998,5.383-1.844,3.511-5.315,5.207-9.016,6.212-.925.251-2.029.334-2.868.825-1.049.614-1.668,1.774-1.631,2.976.084,2.771,2.726,3.066,4.807,3.665,2.064.594,4.119,1.432,5.801,2.798,1.773,1.44,2.922,3.375,3.817,5.45.459,1.065.837,2.168,1.186,3.274s.531,2.356,1.041,3.399c.591,1.208,1.741,1.918,3.09,1.89,1.535-.031,2.555-1.096,3.069-2.445.461-1.212-.511-2.632-1.676-2.952-1.351-.371-2.489.46-2.952,1.676Z"/><path class="g" d="m241.782,147.911c-.214.92-1.515.936-1.752.022-.991-3.82-2.529-8.383-4.865-11.103-2.85-3.318-6.968-4.727-10.785-5.547-.948-.204-.944-1.562.004-1.763,3.78-.801,7.947-2.212,10.718-5.203,2.638-2.847,4.127-8.576,4.961-12.463.202-.942,1.538-.957,1.761-.021.928,3.887,2.581,9.632,5.224,12.483,2.744,2.96,6.709,4.373,10.373,5.179.951.209.942,1.573-.013,1.764-3.913.784-8.203,2.127-11.051,5.444-2.335,2.719-3.677,7.353-4.575,11.206Z"/><path class="h" d="m239.468,147.273v-.13c.287-.287.574-.574.861-.861.517-.143,1.017-.076,1.499.2l.617,1.059c-.846-2.066-1.247-4.318-2.107-6.399-.919-2.225-2.005-4.347-3.611-6.161-1.516-1.713-3.48-3.068-5.556-4.013-1.06-.482-2.146-.908-3.258-1.253-.771-.239-2.459-.509-2.776-.746l.861.861c.097.381.098.762.003,1.143l-.861.861c.378-.281,2.211-.556,3.042-.816,1.198-.376,2.372-.837,3.509-1.369,2.273-1.065,4.372-2.598,5.9-4.602,1.425-1.87,2.351-4.079,3.108-6.292.366-1.071.684-2.158.969-3.252.15-.573.29-1.149.424-1.726.05-.218.1-.436.148-.655.037-.168.252-.667.135-.509l-.861.861c-.511.134-1.006.069-1.484-.195l-.617-1.059c.791,2.033,1.124,4.274,1.868,6.341.783,2.174,1.7,4.377,3.088,6.241,1.464,1.967,3.419,3.527,5.6,4.641,1.174.6,2.411,1.101,3.663,1.514.823.272,2.655.569,3.034.856l-.861-.861c-.097-.379-.1-.76-.009-1.141l.861-.861c.174-.127-.097.045-.243.068-.3.047-.603.129-.899.198-.486.112-.969.234-1.449.368-1.139.318-2.244.716-3.332,1.179-2.163.92-4.212,2.205-5.811,3.948-3.121,3.405-4.423,8.172-5.455,12.561-.707,3.004,3.92,4.287,4.629,1.276.854-3.632,1.786-7.97,4.491-10.729,1.323-1.349,3.003-2.323,4.77-2.972.945-.347,1.913-.631,2.89-.874.961-.239,1.987-.331,2.831-.878,2.25-1.457,1.691-4.951-.763-5.819-1.918-.678-3.901-.971-5.748-1.89-1.649-.821-3.257-1.891-4.344-3.408s-1.829-3.297-2.444-5.057c-.64-1.833-1.044-3.717-1.604-5.57-.681-2.255-3.38-3.51-5.328-1.835-1.475,1.268-1.551,3.818-2.05,5.605-.515,1.843-1.105,3.684-1.998,5.383-1.844,3.511-5.315,5.207-9.016,6.212-.925.251-2.029.334-2.868.825-1.049.614-1.668,1.774-1.631,2.976.084,2.771,2.726,3.066,4.807,3.665,2.064.594,4.119,1.432,5.801,2.798,1.773,1.44,2.922,3.375,3.817,5.45.459,1.065.837,2.168,1.186,3.274s.531,2.356,1.041,3.399c.591,1.208,1.741,1.918,3.09,1.89,1.535-.031,2.555-1.096,3.069-2.445.461-1.212-.511-2.632-1.676-2.952-1.351-.371-2.489.46-2.952,1.676Z"/><path class="g" d="m276.54,104.96c-.155.667-1.099.679-1.271.016-.719-2.771-1.835-6.082-3.529-8.055-2.068-2.407-5.055-3.429-7.825-4.024-.687-.148-.685-1.133.003-1.279,2.742-.581,5.766-1.605,7.776-3.775,1.914-2.065,2.994-6.222,3.599-9.042.147-.683,1.116-.694,1.278-.015.674,2.82,1.873,6.988,3.79,9.057,1.99,2.148,4.867,3.173,7.526,3.757.69.152.683,1.141-.01,1.28-2.839.569-5.951,1.543-8.018,3.95-1.694,1.972-2.668,5.334-3.319,8.13Z"/><path class="h" d="m274.468,103.749l.085-.075,1.059-.617.595.009,1.059.617c.257.413.297.387.121-.078-.052-.188-.105-.375-.16-.562-.13-.446-.267-.89-.415-1.331-.279-.833-.598-1.65-.945-2.458-.676-1.573-1.515-3.065-2.693-4.323-1.171-1.251-2.65-2.235-4.211-2.926-1.506-.667-3.133-.904-4.635-1.513l1.059.617.328.51v1.276l-.326.511-1.059.617c.76-.305,1.62-.406,2.406-.648.932-.287,1.847-.644,2.731-1.055,1.735-.808,3.338-1.973,4.509-3.495,1.092-1.418,1.8-3.075,2.384-4.758.544-1.569.724-3.325,1.338-4.851l-.617,1.059-.516.323h-1.276c-.822-1.068-1.115-1.251-.879-.549.055.219.111.439.169.657.091.345.186.69.285,1.033.243.841.512,1.677.822,2.496.615,1.626,1.324,3.207,2.391,4.589,1.113,1.44,2.605,2.583,4.233,3.389.879.435,1.805.809,2.738,1.112.794.257,1.661.368,2.427.683l-1.059-.617-.33-.507v-1.276l.321-.513,1.059-.617c-1.54.6-3.206.802-4.75,1.467-1.589.684-3.101,1.622-4.291,2.895-2.399,2.566-3.412,6.145-4.2,9.483-.709,3.004,3.918,4.286,4.629,1.276.665-2.816,1.384-6.294,3.816-8.16.984-.755,2.148-1.253,3.323-1.617,1.591-.494,3.565-.502,4.445-2.156.944-1.775-.084-3.795-1.914-4.38-1.407-.45-2.817-.692-4.14-1.396-2.587-1.377-3.703-3.672-4.568-6.361-.419-1.303-.558-3.004-1.269-4.176-1.04-1.714-3.513-1.934-4.862-.473-.927,1.005-1.003,2.683-1.351,3.948-.398,1.451-.853,2.906-1.595,4.222-1.385,2.456-4.129,3.467-6.74,4.091-1.81.433-3.377,1.664-2.914,3.753.415,1.872,1.973,2.214,3.588,2.654,3.267.891,5.552,2.615,6.89,5.762.337.793.609,1.617.863,2.439.269.869.402,1.9.885,2.681,1.201,1.943,4.338,1.883,5.299-.259.531-1.182.341-2.581-.861-3.284-1.026-.6-2.75-.327-3.284.861Z"/><path class="h" d="m128.293,262.922c-7.063-20.244-13.4-40.773-19.065-61.45-3.031-11.062-5.864-22.179-8.465-33.35-.537-2.306-.636-6.24-3.448-6.955-2.215-.563-4.299,1.477-5.97,2.67-3.765,2.69-7.421,5.559-10.853,8.665-3.499,3.167-7.025,6.682-9.371,10.819-.669,1.179-1.391,2.541-1.007,3.936.44,1.602,1.955,2.317,3.278,3.072,2.978,1.698,5.957,3.394,8.935,5.093l-.486-3.769c-3.196,3.006-6.377,6.032-9.421,9.194-1.554,1.615-3.408,3.245-3.54,5.64-.118,2.14,1.279,4.133,2.221,5.961,4.165,8.076,8.438,16.095,12.781,24.077,2.512,4.616,5.048,9.219,7.602,13.813,1.501,2.7,5.648.282,4.145-2.423-4.175-7.51-8.303-15.046-12.356-22.623-2.005-3.747-3.991-7.504-5.956-11.272-.947-1.817-1.889-3.637-2.825-5.459-.239-.465-.91-1.317-.834-1.88.082-.615,1.11-1.342,1.507-1.76,3.238-3.409,6.646-6.653,10.07-9.873,1.123-1.056.826-3.021-.486-3.769-1.843-1.052-3.687-2.102-5.531-3.153-.851-.485-1.702-.97-2.553-1.455-.425-.242-.851-.485-1.276-.728-.283-.162-.567-.323-.85-.485-.368-.215-.381-.231-.039-.049l.328,1.211c-.098.141-.104.135-.018-.02.06-.123.122-.244.186-.365.131-.249.269-.495.412-.739.276-.471.573-.93.881-1.381.658-.961,1.387-1.864,2.152-2.741,1.86-2.134,3.902-4.108,6.015-5.99s4.318-3.689,6.583-5.399c1.037-.783,2.086-1.551,3.146-2.302.538-.381,1.079-.758,1.623-1.13.259-.177.518-.353.778-.528l.254-.17c.593-.339.288-.353-.916-.042l-.861-.861c.218.288.404,1.564.544,2.174.175.757.349,1.513.525,2.27.404,1.735.815,3.468,1.23,5.2.809,3.375,1.638,6.744,2.487,10.109,1.756,6.959,3.595,13.898,5.512,20.815,3.75,13.526,7.832,26.951,12.18,40.296,2,6.14,3.993,12.282,6.12,18.38.427,1.223,1.643,2.036,2.952,1.676,1.188-.326,2.105-1.723,1.676-2.952h0Z"/><path class="h" d="m148.853,264.198c8.833-25.372,16.586-51.152,23.227-77.182.977-3.828,1.928-7.662,2.853-11.502.439-1.824.871-3.649,1.3-5.475.192-.819.381-1.638.571-2.457.169-.729.359-2.242.649-2.627l-.861.861c-1.154-.306-1.501-.32-1.042-.042.127.084.253.169.379.253.26.175.52.351.778.528.498.34.993.685,1.485,1.033,1.108.782,2.202,1.582,3.285,2.399,2.265,1.71,4.463,3.512,6.583,5.399s4.155,3.855,6.015,5.99c.731.839,1.43,1.7,2.065,2.615.341.491.666.992.968,1.508.143.243.281.489.412.739.083.157.16.627.168.385l.328-1.211c.342-.182.329-.166-.039.049-.213.121-.425.243-.638.364-.425.243-.851.485-1.276.728-.922.526-1.844,1.051-2.766,1.576-1.844,1.05-3.687,2.101-5.531,3.153-1.312.749-1.608,2.713-.486,3.769,3.025,2.845,6.036,5.708,8.93,8.688.708.728,1.423,1.455,2.102,2.21.435.483.646.664.388,1.298-.761,1.871-1.888,3.673-2.818,5.465-3.788,7.303-7.66,14.562-11.597,21.785-2.312,4.241-4.645,8.471-6.994,12.692-1.503,2.702,2.641,5.125,4.145,2.423,4.394-7.898,8.735-15.826,12.982-23.805,2.034-3.822,4.047-7.654,6.038-11.499,1.003-1.937,2.335-3.943,2.967-6.037.689-2.282-.35-4.252-1.876-5.888-3.475-3.723-7.164-7.238-10.873-10.726l-.486,3.769c2.552-1.456,5.106-2.91,7.658-4.365,1.183-.674,2.587-1.267,3.589-2.207,1.201-1.128,1.27-2.771.634-4.198-1.618-3.635-4.523-6.776-7.309-9.554-3.328-3.319-6.972-6.311-10.716-9.146-1.653-1.252-3.335-2.465-5.048-3.633-.885-.603-1.765-1.27-2.894-1.27-1.498,0-2.796,1.005-3.256,2.408-.822,2.508-1.225,5.236-1.835,7.809-.653,2.753-1.319,5.502-1.999,8.248-1.376,5.558-2.805,11.103-4.285,16.634-2.98,11.137-6.164,22.219-9.561,33.236-3.463,11.233-7.081,22.435-10.946,33.537-.426,1.224.486,2.625,1.676,2.952,1.322.363,2.525-.448,2.952-1.676h0Z"/><path class="e" d="m105.374,235.382c-.4-4.861-.708-9.815,1.095-14.903,3.155-8.244,7.922-11.642,19.126-13.208-.495-2.084,1.393-4.06,3.64-4.913,2.16-.82,4.582-1.001,6.943-1.13,3.431-.188,6.872-.455,10.308-.354s6.958.757,9.726,2.489c4.286,2.682,6.015,7.405,6.804,11.877.466,2.639.697,5.308.69,7.977-.01,3.816-.505,7.635-.202,11.443.506,6.365,3.281,12.593,7.912,17.622-.902,5.05-2.599,9.674-5.171,15.602l-12.48-1.284c-4.586-.907-8.775-2.496-12.123-4.877l-1.606.842-24.74,12.969c-1.44.975-3.38.661-4.467-.696-3.281-4.096-6.181-8.412-8.664-12.896-.647-1.167-1.278-2.403-1.2-3.691.093-1.529,1.16-2.868,1.973-4.235,3.638-6.113,2.958-12.294,2.436-18.633Z"/><path class="h" d="m124.219,205.064c-4.329.668-8.87,1.731-12.508,4.298-3.325,2.346-5.532,5.601-7.088,9.318-2.225,5.316-2.113,11.055-1.65,16.692.428,5.213,1.066,10.757-1.178,15.672-1.215,2.662-3.5,4.921-3.184,8.055.3,2.977,2.468,5.877,4.022,8.348,1.656,2.633,3.454,5.17,5.357,7.629.856,1.106,1.652,2.21,2.949,2.831,1.327.635,2.832.757,4.239.315,1.859-.584,3.714-1.869,5.425-2.766l8.659-4.539c3.995-2.094,7.99-4.189,11.986-6.283,2.737-1.435.313-5.579-2.423-4.145-7.916,4.15-15.833,8.3-23.749,12.45-.395.207-.899.584-1.331.71-.775.226-1.196-.479-1.65-1.055-.872-1.105-1.709-2.239-2.523-3.388-1.669-2.356-3.229-4.791-4.667-7.296-.567-.988-1.569-2.257-1.54-3.449.025-1.046.916-2.044,1.438-2.896,2.858-4.665,3.593-9.984,3.328-15.366-.249-5.058-1.221-10.251-.335-15.295.745-4.243,2.606-8.281,5.793-10.98,1.056-.894,2.972-1.922,4.456-2.462,2.405-.875,4.927-1.383,7.451-1.772,1.282-.198,1.991-1.806,1.676-2.952-.376-1.369-1.666-1.875-2.952-1.676h0Z"/><path class="h" d="m171.518,248.711c-3.484-4.671-5.589-10.103-5.705-15.958-.063-3.183.286-6.356.293-9.538.007-3.113-.299-6.251-.905-9.305-1.016-5.119-3.472-10.124-8.128-12.832-5.378-3.128-11.974-2.761-17.952-2.422-3.474.197-7.228.132-10.524,1.386-2.877,1.095-5.761,3.611-5.452,6.985.118,1.291,1.018,2.4,2.4,2.4,1.207,0,2.519-1.102,2.4-2.4-.184-2.01,2.701-2.697,4.236-2.998,2.736-.537,5.635-.513,8.413-.653,4.925-.247,10.936-.666,15.103,2.527,3.474,2.662,4.659,7.242,5.229,11.372.791,5.727-.247,11.417.161,17.144.431,6.059,2.66,11.851,6.286,16.714.774,1.037,2.076,1.567,3.284.861,1.023-.598,1.64-2.239.861-3.284h0Z"/><path class="h" d="m148.226,207.454c-3.682-.153-7.367-.152-11.048.025-3.395.162-7.071.204-10.367,1.099-2.502.679-4.779,2.199-5.489,4.811-.779,2.865.844,5.405,3.282,6.803,2.684,1.54,5.105-2.606,2.423-4.145-.265-.152-.755-.456-.847-.565-.112-.133-.171-.302-.267-.444.193.285-.015-.281.007-.012-.008-.103.009-.231.032-.362.074-.417-.08.087.026-.125.063-.125.135-.242.206-.363.132-.227-.263.214.052-.068.038-.034.333-.297.247-.232.196-.148.717-.39,1.061-.509,1.107-.385,2.282-.516,3.441-.632,5.728-.57,11.49-.72,17.242-.481,3.089.128,3.083-4.672,0-4.8h0Z"/><path class="h" d="m149.499,217.142c-3.755-.209-7.51-.418-11.265-.627-3.474-.193-6.947-.395-10.416-.002-3.148.356-6.277,1.295-7.621,4.462-1.264,2.979.131,5.933,2.359,8.01,2.258,2.104,5.66-1.283,3.394-3.394-.641-.597-1.347-1.454-1.455-2.074-.079-.454.034-.786.443-1.215.632-.664,1.748-.843,2.647-.962,1.394-.184,2.811-.25,4.216-.262,5.889-.051,11.82.538,17.697.865,3.086.172,3.077-4.629,0-4.8h0Z"/><path class="h" d="m146.88,227.629c-4.048-.485-8.099-.949-12.158-1.332-4.451-.42-9.76-1.519-13.482,1.676-3.637,3.123-1.84,8.315,1.935,10.328,1.785.952,3.894,1.179,5.86,1.526,2.236.395,4.477.761,6.709,1.176,1.273.237,2.588-.352,2.952-1.676.321-1.168-.395-2.714-1.676-2.952-3.433-.639-6.918-1.087-10.323-1.871-1.013-.233-2.545-.842-2.671-2.046-.103-.987,1.265-1.508,2.165-1.721,1.745-.413,3.682-.075,5.443.079,1.826.16,3.652.33,5.476.513,3.261.328,6.516.71,9.77,1.099,1.289.154,2.4-1.214,2.4-2.4,0-1.425-1.107-2.245-2.4-2.4h0Z"/><path class="h" d="m133.173,240.274c-2.299,2.88-2.047,7.277-1.388,10.712.638,3.329,2.218,6.399,4.382,8.986,4.201,5.022,10.691,7.673,16.961,8.941,1.269.257,2.592-.366,2.952-1.676.325-1.184-.4-2.694-1.676-2.952-5.111-1.034-10.29-2.914-13.982-6.748-1.636-1.7-2.87-3.758-3.559-6.016-.5-1.638-.678-3.256-.662-4.963.007-.767-.088-2.318.367-2.888.808-1.012.989-2.406,0-3.394-.838-.838-2.581-1.018-3.394,0h0Z"/><path class="h" d="m169.559,248.396c-.453,4.458-1.647,8.775-3.22,12.962-1.552,4.131-3.229,8.09-5.828,11.674-.761,1.05-.18,2.675.861,3.284,1.212.709,2.521.192,3.284-.861,2.831-3.906,4.621-8.322,6.312-12.821,1.734-4.615,2.893-9.33,3.391-14.238.131-1.291-1.197-2.4-2.4-2.4-1.407,0-2.268,1.105-2.4,2.4h0Z"/></g></g></svg>