<?xml version="1.0" encoding="UTF-8"?><svg id="b" xmlns="http://www.w3.org/2000/svg" width="209.944" height="320.122" viewBox="0 0 209.944 320.122"><defs><style>.d{fill:#fff;}.e{fill:#74c66d;}.f{fill:none;}.g{fill:#f8b8b4;}.h{fill:#ffe16c;}.i{fill:#211715;}.j{fill:#645d5c;}</style></defs><g id="c"><path class="j" d="M56.609,162.119c-14.464,2.4-23.693-9.08-23.625-17.347.056-5.692,1.389-15.021,2.948-20.623,2.293-8.188,3.929-22.587,3.929-42.555-.978-29.461,6.771-50.826,18.989-62.523,7.365-7.051,23.961-16.657,42.607-16.657,11.373,0,19.38,2.068,27.067,5.184l8.299,4.114c3.596,2.105,4.879,3.909,8.579,7.454,9.293,8.904,15.751,24.924,16.78,39.27.297,4.138.878,14.022.605,22.359.194,14.441,1.842,28.528,5.948,42.399,2.383,8.049,5.581,18.404,3.008,26.395-3.14,9.752-14.402,15.754-24.184,12.27l-90.95.26Z"/><path class="d" d="M60.419,73.622c8.837-7.243,18.349-16.267,27.055-24.819-.371,3.131-1.667,8.484-1.878,11.723-.085,1.302.193,1.753,1.181,2.221.763.277,1.88.124,2.636-.121,12.843-4.176,23.514-12.153,31.472-22.917,1.723,6.621,4.168,14.862,6.295,18.879,5.262,9.934,14.191,18.302,22.131,20.724,1.529-1.458,3.583-2,5.339-1.931,3.821.15,5.439,2.223,6.134,3.439,2.075,3.631,1.96,10.305.542,14.43-1.004,2.921-2.648,7.389-6.582,10.582-1.621,1.316-4.002,2.178-6.275,1.785,0,0-.218-.038-.601-.104-.731,2.381-1.631,4.713-2.179,5.845-1.586,4.253-10.209,18.998-21.136,25.052.038,2.278-.031,3.104.178,5.973.094,1.29.194,2.683.672,3.941.641,1.654,1.503,3.087,2.889,4.205,2.935,2.365,5.952,3.495,9.668,4.892l3.875,1.525c-9.807,6.687-25.992,10.447-39.723,10.756-13.535-.308-29.526-3.968-39.347-10.496,1.32-.52,4.534-1.785,4.534-1.785,3.716-1.398,6.733-2.528,9.668-4.892,1.386-1.118,2.248-2.551,2.889-4.205.478-1.258.578-2.651.672-3.941.194-2.66.149-3.564.17-5.496-5.105-2.457-9.683-6.371-14.035-11.622-5.623-6.783-8.811-14.078-10.564-20.12-2.426.616-5.042-.295-6.775-1.723-3.909-3.224-5.518-7.704-6.499-10.633-1.386-4.136-1.448-10.811.655-14.425.705-1.211,2.338-3.272,6.161-3.391,1.52-.048,3.26.364,4.684,1.428,1.981-1.475,4.018-3.078,6.093-4.778Z"/><path class="i" d="M146.458,103.415c-.421,2.012-1.03,3.981-1.719,5.916-.527,1.477-.957,2.399-1.519,3.783-.112.276.213-.481.082-.196-.041.09-.078.182-.121.271-.092.195-.181.392-.274.586-.23.48-.473.954-.722,1.425-.581,1.095-1.202,2.168-1.85,3.224-3.428,5.59-7.606,10.872-12.711,15.025-2.806,2.282-5.977,4.097-9.487,4.893-3.011.683-1.737,5.312,1.276,4.629,7.178-1.628,13.167-6.854,17.867-12.281,3.91-4.514,7.577-9.611,10.047-15.078.155-.343.302-.69.446-1.038.063-.154.357-.817.078-.19.41-.92.799-1.848,1.155-2.79.85-2.247,1.589-4.551,2.082-6.903.631-3.014-3.995-4.302-4.629-1.276h0Z"/><path class="i" d="M52.863,104.159c1.554,6.987,4.371,13.764,8.328,19.734,4.246,6.405,9.828,12.412,16.596,16.182,3.445,1.919,7.204,3.228,11.103,3.82,1.28.194,2.58-.323,2.952-1.676.312-1.135-.387-2.757-1.676-2.952-13.891-2.107-24.242-14.138-29.531-26.486-1.364-3.183-2.391-6.52-3.143-9.898-.671-3.014-5.299-1.738-4.629,1.276h0Z"/><path class="i" d="M93.19,118.814c2.88,1.535,5.985,2.182,9.248,2.174,3.329-.009,6.675-.659,9.347-2.724,1.026-.793.834-2.56,0-3.394-1.013-1.013-2.365-.795-3.394,0,.73-.565.16-.133-.027-.015s-.378.228-.574.329c-.101.053-.205.1-.307.151-.388.196.094-.022.095-.033,0,.061-.716.26-.791.284-.72.228-1.464.392-2.212.496.354-.049-.07.002-.212.015-.217.021-.434.038-.651.051-.523.032-1.047.043-1.571.038-.469-.005-.938-.022-1.406-.056-.215-.015-.429-.036-.644-.056-.787-.072.424.087-.312-.038-.697-.118-1.386-.261-2.063-.466-.289-.088-.571-.192-.855-.291-.613-.214.351.182-.201-.082-.353-.169-.702-.344-1.047-.528-1.144-.61-2.612-.288-3.284.861-.636,1.088-.287,2.672.861,3.284h0Z"/><path class="i" d="M101.307,97.043c.398,1.541.779,3.105,1.004,4.682l-.086-.638c.027.216.038.429.015.646l.086-.638c-.016.1-.038.194-.072.29l.242-.573c-.03.068-.062.125-.103.186l.375-.486c-.048.058-.094.103-.153.15l.486-.375c-.119.075-.244.136-.371.195l.573-.242c-.204.084-.407.146-.625.18l.638-.086c-.197.023-.389.02-.586-.003l.638.086c-.221-.032-.438-.086-.659-.117-.668-.093-1.241-.114-1.849.242-.498.291-.973.862-1.103,1.434-.14.614-.11,1.304.242,1.849.313.485.834,1.02,1.434,1.103.503.07.991.197,1.503.222.785.037,1.515-.204,2.216-.523.869-.396,1.541-1.173,1.775-2.106.198-.789.112-1.48-.019-2.271-.249-1.508-.591-3.003-.973-4.482-.314-1.216-1.733-2.071-2.952-1.676-1.254.406-2.013,1.649-1.676,2.952h0Z"/><path class="i" d="M76.624,83.69c-.791,2.535-.305,8.377,4.503,8.893,6.356-.013,6.722-7.072,4.595-10.4-1.741-2.725-6.888-3.875-9.098,1.507Z"/><path class="i" d="M127.525,83.888c.771,2.542.24,8.379-4.571,8.857-6.356-.063-6.667-7.124-4.515-10.436,1.762-2.711,6.918-3.821,9.086,1.578Z"/><path class="i" d="M151.009,81.008c2.213-1.986,5.851-1.458,7.464.601-.331-.422.059.115.113.211.14.248.289.49.407.75.321.707.515,1.502.672,2.266.353,1.722.366,3.525.241,5.273-.219,3.063-1.25,6.096-2.677,8.805-1.495,2.837-4.389,6.913-8.122,6.388-1.282-.18-2.578.313-2.952,1.676-.309,1.124.384,2.771,1.676,2.952,8.609,1.21,13.653-7.253,15.908-14.342,1.146-3.603,1.294-7.613.682-11.327-.5-3.039-1.81-5.954-4.431-7.71-3.782-2.534-9.067-1.909-12.377,1.063-2.304,2.068,1.1,5.453,3.394,3.394h0Z"/><path class="i" d="M56.663,77.247c-3.093-2.82-7.578-3.424-11.371-1.684-2.734,1.254-4.371,3.868-5.141,6.687-1.859,6.805-.138,14.689,3.69,20.531,2.579,3.935,6.713,7.541,11.747,6.874,1.285-.17,2.4-.981,2.4-2.4,0-1.164-1.106-2.572-2.4-2.4-4.036.535-6.805-2.848-8.536-6.072-1.469-2.736-2.53-5.851-2.751-8.956-.129-1.813-.106-3.674.274-5.457.141-.662.308-1.348.562-1.977.134-.331.314-.653.5-.957.056-.092.509-.707.164-.279,1.6-1.983,5.231-2.557,7.469-.516,2.279,2.078,5.683-1.307,3.394-3.394h0Z"/><path class="i" d="M118.718,40.919c1.725,6.529,3.427,13.464,6.687,19.429,3.457,6.327,8.252,11.993,14.001,16.348,2.803,2.124,5.902,3.873,9.268,4.929,2.954.927,4.218-3.705,1.276-4.629-7.244-2.273-13.31-8.378-17.544-14.462-4.78-6.869-6.944-14.889-9.059-22.892-.788-2.984-5.42-1.718-4.629,1.276h0Z"/><path class="i" d="M118.77,38.555c-4.215,5.656-9.38,10.667-15.251,14.585-2.973,1.984-6.118,3.71-9.389,5.151-1.622.715-3.289,1.345-4.974,1.895-.354.116-.727.263-1.1.305-.1.011-.274-.033-.356-.001-.471.18.012-.202.041.082.019.186.168.758.246.48.1-.357.035-.888.073-1.274.369-3.688,1.357-7.296,1.814-10.975.269-2.167-2.744-3.025-4.097-1.697-8.778,8.618-17.691,17.141-27.209,24.945-1.003.822-.853,2.541,0,3.394.992.992,2.389.824,3.394,0,9.518-7.804,18.431-16.327,27.209-24.945l-4.097-1.697c-.425,3.418-1.449,7.327-1.814,10.975-.206,2.066.231,3.916,2.168,4.971,2.071,1.128,4.47.28,6.511-.456,7.877-2.84,15.126-7.143,21.381-12.712,3.576-3.184,6.736-6.767,9.595-10.603.775-1.04.17-2.681-.861-3.284-1.224-.716-2.507-.182-3.284.861h0Z"/><path class="i" d="M160.387,80.796c.215,14.811,2.038,29.55,6.252,43.775,1.792,6.048,3.726,12.284,3.653,18.655-.061,5.366-2.215,10.275-6.504,13.598-4.434,3.435-10.278,4.553-15.592,2.721-2.926-1.009-4.184,3.626-1.276,4.629,11.359,3.917,24.531-3.46,27.452-15.05,1.721-6.827.159-14.135-1.65-20.777-1.942-7.131-4.047-14.133-5.299-21.435-1.479-8.625-2.11-17.372-2.237-26.116-.045-3.086-4.845-3.095-4.8,0h0Z"/><path class="i" d="M135.611,13.785c1.926,1.146,3.527,2.544,5.108,4.123,1.733,1.731,3.547,3.399,5.169,5.236,3.214,3.64,5.734,7.887,7.793,12.271,2.167,4.614,3.761,9.512,4.845,14.49.931,4.273,1.292,8.574,1.532,12.93.329,5.978.514,11.975.329,17.961-.096,3.09,4.704,3.087,4.8,0,.173-5.584.019-11.176-.265-16.753-.24-4.711-.568-9.402-1.482-14.039-2.043-10.371-6.311-20.63-12.995-28.878-1.851-2.285-4.002-4.275-6.074-6.353-1.941-1.946-3.966-3.721-6.337-5.132-2.661-1.583-5.078,2.565-2.423,4.145h0Z"/><path class="i" d="M129.162,5.285C119.605,1.431,109.339-.387,99.028.069c-10.615.469-21.054,3.763-30.293,8.952-6.807,3.823-12.727,8.706-17.341,15.024-4.855,6.649-8.129,14.427-10.291,22.337-3.123,11.423-4.016,23.41-3.642,35.212.098,3.081,4.898,3.095,4.8,0-.566-17.856,1.625-37.151,11.487-52.511,3.767-5.866,8.749-10.601,14.719-14.325,8.079-5.04,17.366-8.564,26.861-9.604,11.09-1.216,22.254.604,32.558,4.76,1.203.485,2.637-.528,2.952-1.676.377-1.37-.469-2.466-1.676-2.952h0Z"/><path class="i" d="M37.46,81.594c-.006,8.275-.255,16.562-1.02,24.805-.505,5.437-1.193,10.863-2.57,16.173-1.747,6.735-2.94,13.661-3.243,20.623-.245,5.633,1.929,10.802,5.855,14.839,5.457,5.61,13.159,7.599,20.764,6.399,1.281-.202,1.992-1.803,1.676-2.952-.375-1.366-1.667-1.879-2.952-1.676-5.693.898-11.556-.747-15.682-4.753-1.636-1.589-3.162-3.765-3.919-5.637-.418-1.034-.724-2.116-.907-3.216-.065-.393-.015.119-.041-.407-.013-.266-.034-.53-.037-.796-.01-.711.024-1.424.059-2.134.319-6.48,1.471-12.85,3.084-19.122,1.339-5.206,2.039-10.585,2.577-15.925.877-8.708,1.151-17.473,1.157-26.222.002-3.089-4.798-3.094-4.8,0h0Z"/><path class="i" d="M78.295,139.689c-.006,1.221-.024,2.44-.096,3.66-.086,1.443-.113,2.986-.649,4.338-1.074,2.711-3.509,4.202-6.055,5.444-3.181,1.552-6.627,2.682-9.923,3.979-1.205.474-2.046,1.607-1.676,2.952.316,1.148,1.739,2.154,2.952,1.676,3.959-1.558,8.139-2.887,11.895-4.883,1.554-.826,3.106-1.83,4.391-3.038,1.343-1.262,2.247-2.873,2.923-4.567,1.164-2.92,1.022-6.455,1.038-9.562.016-3.089-4.784-3.093-4.8,0h0Z"/><path class="i" d="M122.167,139.689c.016,3.108-.126,6.642,1.038,9.562.675,1.694,1.58,3.305,2.923,4.567,1.285,1.208,2.837,2.212,4.391,3.038,3.755,1.996,7.936,3.325,11.895,4.883,1.206.475,2.635-.521,2.952-1.676.374-1.362-.465-2.476-1.676-2.952-3.296-1.297-6.742-2.427-9.923-3.979-2.537-1.238-4.993-2.733-6.055-5.444-.531-1.357-.563-2.892-.649-4.338-.072-1.22-.09-2.438-.096-3.66-.016-3.088-4.816-3.094-4.8,0h0Z"/><path class="g" d="M42.585,166.8c6.214-3.211,13.86-6.487,18.927-8.488,9.654,7.091,26.467,11.067,40.601,11.389,13.714-.308,29.876-4.059,39.682-10.733.348.134.604.234.604.234,10.67,3.793,21.516,8.888,27.77,12.619,7.818,4.677,13.568,9.998,18.423,16.805,2.951,4.129,7.853,13.119,10.1,19.796,3.917,11.637,6.559,41.395,7.879,57.733.539,6.678.951,13.357.951,20.056,0,8.745-2.163,20.608-13.416,26.285-5.646,2.849-13.973,2.155-19.868.515-2.194-.61-6.583-2.153-9.648-3.899-.002,2.456-.017,4.915-.079,7.266-.007.27-.109.627-.258.852-.152.23-.822.387-1.098.387-10.167,0-117.338.126-122.168.1-.48-.003-.856-.153-1.121-.553-.193-.293-.153-1.698-.167-1.501-3.963,1.239-8.093,1.701-12.572,1.162-16.833-2.024-21.504-17.082-22.523-21.024-2.7-10.444-2.709-23.957-1.144-40.259,1.778-18.518,4.052-30.101,8.333-46.089,4.168-15.567,10.861-30.065,24.407-39,1.75-1.155,3.958-2.398,6.383-3.652Z"/><path class="i" d="M61.435,161.195c9.221,6.124,20.631,8.878,31.482,10.222,5.622.697,11.145.791,16.779.188,5.803-.621,11.571-1.687,17.17-3.348,5.673-1.682,11.313-3.943,16.23-7.276,2.542-1.724.143-5.885-2.423-4.145-8.53,5.784-19.231,8.531-29.348,9.78-5.347.66-10.607.797-15.97.271s-10.722-1.543-15.92-3.024c-5.469-1.559-10.821-3.655-15.577-6.813-2.581-1.714-4.987,2.442-2.423,4.145h0Z"/><path class="i" d="M162.193,306.847c0,2.634,0,5.268-.046,7.902-.006.321-.198,1.326-.035,1.63.654,1.224.442-1.388,1.044-1.161-.029-.011-.068.008-.098,0-.147-.038-.355,0-.507,0-.89,0-1.78,0-2.67.001-3.028.002-6.056.005-9.085.008-9.575.009-19.149.019-28.724.028-11.435.012-22.87.023-34.305.034-10.076.01-20.152.019-30.228.026-5.35.004-10.7.017-16.05.004-.097,0-.212-.018-.308,0-.393.069-.045-.349.382.149l.617,1.059c-.178-.447,0,.452-.064-.285-.017-.191-.011-.387-.014-.579-.045-3.086-4.845-3.095-4.8,0,.01.713.03,1.46.25,2.14.485,1.501,1.951,2.246,3.435,2.315.197.009.396.001.593.002.794.002,1.587.002,2.381.002,2.976,0,5.953-.001,8.929-.003,9.823-.006,19.646-.015,29.469-.024,11.909-.011,23.818-.023,35.727-.035,10.282-.01,20.563-.021,30.845-.031,3.379-.003,6.759-.006,10.138-.009,1.027,0,2.054-.002,3.081-.002.333,0,.672.019,1.004,0,1.12-.066,2.274-.418,2.983-1.333.825-1.064.781-2.423.805-3.702.051-2.712.05-5.424.05-8.137,0-3.089-4.8-3.094-4.8,0h0Z"/><path class="i" d="M139.303,160.559c13.757,5.361,28.577,10.501,39.636,20.695,5.196,4.79,9.134,10.454,12.44,16.663,2.949,5.538,5.301,11.187,6.638,17.322,2.847,13.06,4.011,26.533,5.211,39.824.671,7.434,1.339,14.879,1.681,22.336.314,6.867.675,13.747-1.397,20.279-1.829,5.763-6,11.23-11.882,13.28-6.71,2.34-14.434.809-20.888-1.644-1.697-.645-3.352-1.385-4.937-2.271-2.699-1.509-5.122,2.636-2.423,4.145,6.708,3.75,14.772,5.963,22.476,5.621,4.066-.18,7.943-1.16,11.408-3.337,3.122-1.962,5.758-4.588,7.746-7.692,3.445-5.379,4.728-11.913,4.893-18.219.226-8.625-.58-17.29-1.301-25.877-1.201-14.297-2.475-28.67-4.994-42.805-1.077-6.043-2.588-11.74-5.117-17.353-3.099-6.878-6.874-13.507-11.84-19.215-11.245-12.926-27.984-19.582-43.644-25.431-.815-.304-1.621-.632-2.431-.947-1.208-.471-2.634.518-2.952,1.676-.373,1.359.464,2.48,1.676,2.952h0Z"/><path class="i" d="M61.045,155.931c-7.15,2.822-14.261,5.891-21.043,9.518-6.95,3.717-12.901,8.614-17.673,14.907-4.85,6.395-8.213,13.81-10.739,21.394-2.617,7.857-4.543,16.013-6.227,24.116-1.747,8.408-2.965,16.912-3.875,25.449-.995,9.339-1.738,18.753-1.41,28.151.384,10.988,2.042,22.67,9.704,31.13,4.672,5.159,11.098,8.006,17.964,8.696,8.596.863,16.779-2.179,23.885-6.823,1.881-1.229,3.693-2.557,5.471-3.93,1.024-.791,1.575-2.063.861-3.284-.589-1.008-2.251-1.658-3.284-.861-6.228,4.81-13.302,9.437-21.352,10.141-6.492.568-13.325-1.097-18.155-5.36-2.027-1.789-3.387-3.468-4.724-5.649-.577-.941-1.102-1.913-1.576-2.909-.102-.215-.202-.43-.3-.647-.064-.141-.36-.839-.145-.32-.173-.416-.337-.835-.494-1.257-1.775-4.797-2.485-9.977-2.85-15.053-.625-8.687-.162-17.437.619-26.098.763-8.456,1.792-16.893,3.335-25.245,1.444-7.815,3.299-15.567,5.43-23.223,2.041-7.335,4.701-14.531,8.658-21.063,3.814-6.294,8.883-11.819,15.145-15.738,6.158-3.853,12.945-6.816,19.63-9.617,1.467-.615,2.94-1.214,4.42-1.798,1.205-.476,2.046-1.607,1.676-2.952-.315-1.148-1.74-2.155-2.952-1.676h0Z"/><path class="f" d="M29.983,271.8c4.569-3.392,12-8.333,16.667-11.793"/><path class="f" d="M38.308,210.349c2.24,10.648,5.261,23.211,8.33,32.381"/><path class="h" d="M130.811,189.651c-8.249-10.3-17.231-21.336-26.169-32.1-3.89-4.685-11.477-2.735-12.631,3.244-4.189,21.704-10.944,56.701-14.414,74.675-1.066,5.522.393,11.223,3.974,15.559,10.067,12.19,19.685,23.803,30.393,37.083.884,1.096,2.101,1.794,3.405,2.046l18.989-98.379c-1.358-.254-2.627-.978-3.547-2.127Z"/><path class="e" d="M174.742,170.894c-12.058,6.454-24.342,13.309-36.31,20.189-1.274.732-2.718.948-4.073.695l-18.989,98.379c1.303.252,2.693.057,3.922-.632,14.874-8.337,28.118-15.533,41.991-23.097,4.95-2.699,8.436-7.467,9.504-13.002l14.436-74.792c1.151-5.961-5.129-10.606-10.481-7.741Z"/><path class="i" d="M131.905,191.858c-.605,3.134-1.21,6.268-1.815,9.402-1.461,7.57-2.922,15.14-4.383,22.71-1.761,9.122-3.521,18.243-5.282,27.365-1.529,7.92-3.057,15.84-4.586,23.76-.739,3.829-1.546,7.652-2.218,11.494-.01.055-.021.109-.032.163-.245,1.271.358,2.59,1.676,2.952,1.175.323,2.705-.397,2.952-1.676l1.815-9.402c1.461-7.57,2.922-15.14,4.383-22.71,1.761-9.122,3.521-18.243,5.282-27.365,1.529-7.92,3.057-15.84,4.586-23.76.739-3.829,1.546-7.652,2.218-11.494.01-.055.021-.109.032-.163.245-1.271-.358-2.59-1.676-2.952-1.175-.323-2.705.397-2.952,1.676h0Z"/><path class="i" d="M132.508,187.954c-6.439-8.038-12.928-16.037-19.469-23.992-1.658-2.016-3.319-4.029-4.984-6.04-1.304-1.574-2.523-3.237-4.366-4.221-3.01-1.609-6.8-1.526-9.701.308-1.436.908-2.673,2.192-3.432,3.721-.818,1.648-1.056,3.447-1.401,5.234-.703,3.64-1.405,7.279-2.108,10.919-1.56,8.081-3.119,16.161-4.679,24.242-1.505,7.798-3.01,15.595-4.515,23.393-.643,3.332-1.286,6.665-1.93,9.997-.757,3.922-1.408,7.65-.656,11.642.888,4.715,3.525,8.261,6.507,11.871,3.143,3.805,6.287,7.61,9.425,11.419s6.246,7.593,9.356,11.4c3.245,3.972,6.367,8.074,9.711,11.962,1.423,1.655,3.445,2.649,5.616,2.824,2.402.194,4.321-.869,6.345-2.001,4.449-2.488,8.906-4.961,13.369-7.422,8.613-4.748,17.251-9.451,25.887-14.159,5.959-3.248,10.325-8.407,11.653-15.178.365-1.858.718-3.718,1.077-5.578,1.674-8.671,3.347-17.341,5.021-26.012l5.738-29.725,1.907-9.882c.335-1.737.863-3.614.88-5.391.037-3.894-2.424-7.424-5.982-8.91-1.796-.75-3.733-.918-5.64-.528-2.221.454-4.262,1.86-6.231,2.922-9.189,4.96-18.314,10.04-27.388,15.209-1.133.645-2.265,1.292-3.396,1.94-.853.489-1.708,1.123-2.653,1.413-1.55.475-2.958-.198-3.963-1.377-.841-.987-2.529-.865-3.394,0-.978.978-.843,2.404,0,3.394,1.34,1.573,3.219,2.573,5.262,2.841,2.26.297,4.179-.41,6.112-1.519,4.39-2.52,8.791-5.018,13.205-7.494s8.846-4.931,13.289-7.358c2.205-1.205,4.414-2.403,6.627-3.594,1.555-.837,3.073-1.915,4.883-1.79,2.516.174,4.667,2.505,4.457,5.183-.033.418-.127.828-.207,1.241l-1.302,6.745c-1.688,8.747-3.377,17.495-5.065,26.242-1.816,9.41-3.633,18.82-5.449,28.23l-1.818,9.418c-.305,1.58-.548,3.199-.977,4.752-.95,3.435-3.024,6.537-5.86,8.706-1.715,1.312-3.735,2.241-5.623,3.271-2.067,1.127-4.134,2.253-6.201,3.381-8.39,4.576-16.772,9.166-25.126,13.809-2.128,1.182-4.253,2.368-6.377,3.557-1.399.783-2.816,1.321-4.297.362-.789-.511-1.336-1.351-1.918-2.073-.82-1.015-1.641-2.03-2.462-3.044-1.557-1.921-3.117-3.84-4.679-5.757-6-7.359-12.042-14.684-18.089-22.005-2.721-3.294-5.863-6.436-7.125-10.623-1.076-3.568-.617-6.913.073-10.486,1.287-6.668,2.574-13.335,3.861-20.003,2.97-15.389,5.941-30.777,8.911-46.166.32-1.658.64-3.316.96-4.974.277-1.436.568-2.54,1.542-3.492,1.625-1.59,4.197-1.886,6.16-.494,1.514,1.074,2.803,3.128,4.029,4.611,1.611,1.949,3.219,3.901,4.824,5.855,3.184,3.878,6.355,7.766,9.515,11.664,2.967,3.66,5.922,7.328,8.867,11.005.811,1.012,2.549.846,3.394,0,1-1,.813-2.379,0-3.394Z"/><path class="d" d="M163.864,241.6c-3.135-.784-6.03-1.035-8.222-.51-2.477.593-4.31,3.1-3.403,5.481.541,1.422,1.878,2.359,3.161,3.176,5.421,3.453,11.197,6.35,17.207,8.629-6.968-.939-13.937-1.876-20.906-2.813-1.472-.198-2.967-.396-4.436-.177s-2.934.915-3.745,2.159c-1.068,1.636-.803,4.256.319,5.855.681.97,1.623,1.597,2.668,2.091-1.01.147-1.688.247-1.688.247-2.31.341-4.08,2.529-3.985,4.912.094,2.365,1.314,4.098,3.39,5.234,1.378.754,3.174,1.299,4.906,1.705-.746.837-1.219,1.372-1.219,1.372-1.34,1.515-1.287,3.928-.266,5.674,2.499,4.276,9.947,5.312,15.311,6.082,3.916.562,7.633.15,10.777-.906,5.467-1.836,8.899-4.077,11.984-9.904,2.091-3.95,2.682-8.4,2.753-13.104.04-2.666-.477-6.704-1.759-10.118-.877-2.335-2.431-4.355-4.428-5.848-1.442-1.078-3.141-2.248-4.991-3.404-4.086-2.554-8.996-4.727-13.428-5.835Z"/><path class="i" d="M170.546,254.991c-4.622-1.967-9.089-4.279-13.346-6.946-1.054-.66-3.421-1.838-2.65-3.386.584-1.173,2.081-1.383,2.999-1.429,3.69-.187,7.429,1.017,10.819,2.353,4.131,1.627,7.971,3.928,11.575,6.504,1.678,1.199,3.083,2.538,4.054,4.381.99,1.88,1.442,4.115,1.776,6.197.659,4.113.373,8.639-.782,12.636-1.005,3.481-3.051,7.026-5.949,9.263-2.813,2.171-6.689,3.522-10.191,3.888-4.358.456-9.127-.376-13.324-1.575-1.689-.483-3.508-1.133-4.814-2.28-.9-.791-2.132-2.658-1.104-3.936.812-1.009.986-2.408,0-3.394-.84-.84-2.578-1.015-3.394,0-3.534,4.396-1.02,9.913,3.449,12.406,3.837,2.141,8.368,2.765,12.655,3.361,5.549.771,10.869-.083,15.939-2.445,4.104-1.912,7.189-5.16,9.339-9.109,2.618-4.809,3.493-10.564,3.253-15.995-.235-5.323-1.513-11.163-5.388-15.058-1.89-1.9-4.308-3.39-6.563-4.816-2.178-1.378-4.453-2.594-6.811-3.634-4.379-1.931-9.239-3.651-14.094-3.56-2.571.048-5.132.716-6.829,2.78-2.024,2.462-2.007,5.751.037,8.199,1.937,2.32,5.168,3.825,7.765,5.271,2.97,1.654,6.03,3.138,9.158,4.47,1.192.507,2.572.356,3.284-.861.59-1.008.338-2.773-.861-3.284h0Z"/><path class="i" d="M170.873,255.74c-6.284-.845-12.568-1.691-18.853-2.534-2.849-.382-5.852-.615-8.404.992-2.281,1.437-3.397,3.988-3.124,6.641.479,4.652,4.311,6.998,8.488,8.106,2.965.786,5.975,1.422,8.969,2.087,3.055.679,6.112,1.345,9.171,2.002,3.012.647,4.299-3.979,1.276-4.629-5.155-1.107-10.311-2.218-15.443-3.427-2.127-.501-4.837-.907-6.57-2.326-1.011-.828-1.634-2.743-.792-3.895,1.171-1.601,4.042-1.06,5.666-.852,6.117.784,12.226,1.642,18.338,2.464,1.283.172,2.576-.308,2.952-1.676.307-1.117-.383-2.779-1.676-2.952h0Z"/><path class="i" d="M144.181,263.425c-3.305.619-5.743,3.726-5.748,7.057-.005,3.375,2.056,6.259,5.04,7.712,4.405,2.145,9.65,2.619,14.43,3.505,2.04.378,4.078.768,6.121,1.125,1.275.223,2.586-.342,2.952-1.676.318-1.157-.392-2.728-1.676-2.952-4.169-.728-8.324-1.54-12.487-2.305-2.659-.489-6.141-.856-8.285-2.666-1.86-1.57-1.744-4.67.928-5.171,1.275-.239,1.999-1.777,1.676-2.952-.367-1.337-1.674-1.916-2.952-1.676h0Z"/><path class="d" d="M64.43,231.717c1.367-1.774,3.617-3.774,5.4-4.761,5.458-2.618,11.504-4.323,17.087-4.353,2.127-.012,4.369.171,6.135,1.356,1.766,1.186,2.34,2.975,1.867,4.615-.36,1.249-1.357,2.296-2.618,2.61s-2.849.845-4.067,1.298c-3.951,1.467-5.227,1.847-9.47,4.252l-.612,3.891c4.848.776,9.802,1.955,12.889,2.811,2.767.767,4.445,1.407,6.751,2.634,1.473.783,2.817,1.616,3.544,3.117.603,1.245.765,2.143.638,3.316-.157,1.445-.982,2.436-2.295,3.059-1.382.655-2.92.798-4.411.459-1.235-.281-2.479-.584-3.733-.894,3.594,1.787,3.832,3.149,4.474,5.193.303.965.122,2.792-.462,3.45-1.107,1.247-3.169,2.163-5.19,1.647-1.499-.383-2.905-.722-4.32-1.031.984.704,1.662,1.189,1.662,1.189,2.993,2.14,2.224,7.109-.342,7.934-2.087.671-5.512.082-9.165-.201-.385,5.079-5.406,10.062-7.169,11.061-1.097.622-4.535,2.157-7.187,2.111-5.55-.096-10.159-3.921-13.234-8.532-1.916-2.873-2.016-7.802-.385-10.846,2.472-4.613,4.393-9.52,5.707-14.586,1.466-5.843,4.962-16.5,8.504-20.799"/><path class="i" d="M71.042,229.028c3.735-1.771,7.729-3.105,11.825-3.722,1.861-.28,3.78-.386,5.659-.263,1.321.086,3.243.384,3.946,1.676.447.821.139,1.805-.808,2.151-1.701.622-3.472,1.078-5.178,1.708-3.102,1.145-6.05,2.457-8.932,4.083-2.69,1.518-.274,5.666,2.423,4.145,2.664-1.503,5.142-2.623,7.963-3.665,1.594-.588,3.189-1.139,4.825-1.597,1.824-.511,3.322-1.678,4.115-3.423,1.654-3.643-.447-7.428-3.94-8.921s-7.679-1.091-11.347-.522c-4.517.701-8.853,2.253-12.971,4.206-1.171.555-1.475,2.234-.861,3.284.701,1.199,2.108,1.418,3.284.861h0Z"/><path class="i" d="M62.733,230.02c-3.582,4.443-5.554,10.203-7.296,15.567-.866,2.668-1.535,5.381-2.314,8.072-1.056,3.648-2.426,7.195-4.127,10.592-1.474,2.945-2.568,5.701-2.271,9.076.305,3.468,1.775,6.127,4.008,8.738,4.195,4.907,10.559,8.078,17.03,6.207,2.595-.75,4.932-1.87,6.884-3.751,2.51-2.418,4.592-5.469,5.559-8.837.854-2.975-3.776-4.245-4.629-1.276-.69,2.402-2.163,4.518-3.896,6.293-1.283,1.314-2.181,1.913-4.132,2.6-2.512.885-4.882,1.021-7.392.014-2.327-.934-4.279-2.629-5.906-4.501-1.6-1.842-2.693-3.737-2.77-6.225-.09-2.921,1.268-5.015,2.463-7.579,1.452-3.117,2.697-6.336,3.677-9.632.724-2.436,1.31-4.907,2.068-7.335.846-2.709,1.778-5.404,2.881-8.02.534-1.267,1.119-2.516,1.767-3.729.29-.543.594-1.08.92-1.603.302-.486.68-1.042.87-1.277.813-1.008.985-2.409,0-3.394-.841-.841-2.576-1.014-3.394,0h0Z"/><path class="i" d="M77.514,242.94c4.142.673,8.256,1.558,12.308,2.652,1.737.469,3.485.969,5.121,1.729,1.323.615,3.07,1.278,3.974,2.473.732.967,1.078,2.666.135,3.389-1.504,1.154-3.616.423-5.241.03-4.467-1.079-8.907-2.269-13.449-2.994-1.278-.204-2.582.329-2.952,1.676-.314,1.142.389,2.747,1.676,2.952,4.256.679,8.424,1.764,12.606,2.789,1.962.481,3.987,1.122,6.027.904,2.011-.215,4.042-1.022,5.336-2.63,2.558-3.179,1.257-8.051-1.755-10.436-2.743-2.172-6.285-3.425-9.619-4.353-4.235-1.178-8.551-2.106-12.889-2.811-1.278-.208-2.583.332-2.952,1.676-.315,1.145.389,2.743,1.676,2.952h0Z"/><path class="i" d="M92.209,258.3c.17.126.33.287.477.436.281.285.057-.006.271.325.108.166.2.342.288.52.109.22-.066-.208.07.187.157.458.321.923.434,1.394-.084-.351.003.034.003.205,0,.219.004.443-.026.661.049-.345-.114.372-.113.367.093-.185.101-.208.024-.07-.078.135-.067.116.031-.058-.266.167-.477.428-.894.619-.839.384-1.564.268-2.527.027-4.672-1.171-9.392-1.985-14.167-2.607-1.288-.168-2.4,1.223-2.4,2.4,0,1.436,1.109,2.232,2.4,2.4,2.82.367,5.63.82,8.414,1.401,2.845.593,5.94,1.91,8.853,1.232,1.436-.334,2.915-1.162,3.898-2.272s1.336-2.649,1.307-4.099c-.058-2.931-1.621-5.507-3.92-7.212-1.042-.773-2.68-.172-3.284.861-.715,1.222-.183,2.509.861,3.284h0Z"/><path class="i" d="M86.49,267.648c-.546-.405.008.031.114.14.072.074.141.15.207.228-.215-.289-.248-.33-.099-.123.09.149.178.302.27.449.309.496-.105-.396.028.037.058.188.122.372.168.565.022.095.042.191.059.287.042.26.033.192-.026-.204-.09.227.015.751.005,1.01-.018.432.124-.599-.02.06-.03.135-.064.269-.105.402-.026.087-.055.173-.086.258-.091.236-.062.169.088-.202-.101.115-.169.323-.248.458-.291.491.061-.096.079-.078.02.019-.345.344-.341.35.333-.246.4-.298.202-.156-.066.044-.133.085-.202.123-.294.241.58-.146.071-.034-.167.037-.33.091-.498.125-.679.138.307.001-.146.027-.41.024-.815.051-1.226.05-1.014-.003-2.026-.088-3.035-.181-2.319-.214-4.634-.481-6.966-.456-1.255.013-2.458,1.094-2.4,2.4.058,1.289,1.055,2.414,2.4,2.4,2.111-.022,4.209.191,6.308.394,1.732.167,3.506.372,5.243.157,1.925-.238,3.481-.928,4.586-2.591.849-1.276,1.231-2.997,1.091-4.515-.211-2.297-1.246-4.148-3.098-5.523-1.012-.751-2.723-.199-3.284.861-.663,1.255-.219,2.482.861,3.284h0Z"/></g></svg>