<?xml version="1.0" encoding="UTF-8"?><svg id="b" xmlns="http://www.w3.org/2000/svg" width="290.132" height="325.526" viewBox="0 0 290.132 325.526"><defs><style>.d{fill:#3d8dcc;}.e{fill:#fff;}.f{fill:#74c66d;}.g{fill:#ffe16c;}.h{fill:#211715;}.i{fill:#c6c6c6;}.j{fill:#645d5c;}</style></defs><g id="c"><path class="e" d="M193.963,81.388c1.567-1.506,3.678-2.071,5.485-2.008,3.931.139,5.604,2.265,6.324,3.513,2.149,3.727,2.058,10.594.616,14.843-1.021,3.009-2.695,7.612-6.729,10.913-1.662,1.36-4.109,2.256-6.448,1.861l-.619-.105c-.742,2.452-1.658,4.855-2.218,6.022-1.733,4.703-11.757,21.871-24.146,27.084,0,2.342,0,5.658,0,5.584v1.437c-5.922,4.674-17.644,13.895-18.782,14.702h-3.466c-1.117-.791-12.42-9.682-18.44-14.431,0-.834,0-1.381,0-1.381,0,0,0-3.374-.003-5.635-6.042-2.403-11.364-6.707-16.403-12.737-5.811-6.955-9.12-14.447-10.947-20.653-2.493.641-5.189-.286-6.977-1.749-4.034-3.301-5.707-7.904-6.729-10.913-1.442-4.249-1.533-11.116.616-14.843.72-1.249,2.393-3.375,6.324-3.513,1.807-.064,3.918.502,5.485,2.008,0,0-16.784-53.099,50.772-53.099s46.288,53.099,46.288,53.099Z"/><path class="i" d="M229.476,291.025c-5.492-2.439-10.27-6.27-13.811-10.242l-.856-.96c-.191,18.375-.336,35.431-.379,43.385H76.818c-.048-5.952-.184-17.909-.359-31.822-4.802,11.03-18.251,14.502-28.284,13.032-10.559-1.547-16.668-9.033-20.881-17.182-7.497-14.5-11.59-31.938-16.223-57.242l23.737-17.371,17.967-20.549c1.041-1.578,2.182-3.077,3.436-4.51,3.133-3.581,6.905-6.726,11.146-9.591.022-.011.034-.034.056-.034,8.194-5.521,22.263-10.216,35.754-14.789,3.045-2.42,6.074-4.552,8.462-6.081,5.129,22.776,11.831,47.132,19.042,69.279,5.343,16.408,7.102,21.977,13.937,38.844h2.205c6.835-16.868,8.594-22.436,13.937-38.844,7.212-22.146,13.913-46.502,19.042-69.279,2.302,1.474,5.199,3.508,8.133,5.821,1.438.565,2.249.884,2.249.884l7.526,2.956c18.241,7.657,35.406,15.606,43.803,28.387,5.987,9.104,11.167,29.273,12.837,45.025l11.545,12.027,6.657,7.287c-4.768,12.447-8.889,22.667-15.393,27.923-4.507,3.642-9.979,6.299-15.773,6.299-4.184,0-8.203-1.012-11.9-2.653Z"/><path class="h" d="M72.95,221.976c.31,13.205.499,26.412.695,39.619.223,15.019.423,30.039.6,45.059.065,5.518.129,11.036.174,16.554.025,3.087,4.825,3.095,4.8,0-.094-11.627-.25-23.254-.402-34.88-.202-15.458-.42-30.917-.681-46.374-.113-6.66-.229-13.319-.386-19.978-.072-3.084-4.873-3.095-4.8,0h0Z"/><path class="e" d="M146.813,265.192c6.835-16.868,8.594-22.436,13.937-38.844,6.621-20.333,12.812-42.529,17.751-63.654.535-1.972-.393-4.541-1.631-5.975-2.222-2.574-5.022-6.296-7.293-8.837-.965.781-20.641,16.295-22.133,17.353h-3.466c-1.492-1.057-21.168-16.571-22.133-17.353-2.271,2.541-5.071,6.264-7.293,8.837-1.238,1.434-2.166,4.003-1.631,5.975,4.939,21.125,11.13,43.321,17.751,63.654,5.343,16.408,7.102,21.977,13.937,38.844h2.205Z"/><path class="d" d="M152.754,249.988c-1.578,4.269-3.412,8.963-5.941,15.204h-2.205c-6.292-15.528-8.283-21.48-12.728-35.13,2.156-18.482,5.007-40.46,5.007-41.108,0-1.164-.265-2.315-.529-3.453-.132-.516-.251-1.032-.357-1.548-.569-2.567-.673-3.881-1.335-6.6l-.041-.133c3.174-4.28,7.013-9.355,9.353-11.987h3.466c2.319,2.609,6.113,7.621,9.272,11.877-.179.503-.295.831-.295.831-.882,1.837-1.124,3.664-1.623,5.277-.623,1.988-1.246,4.033-1.282,6.115-.018,1.087,2.982,21.928,5.763,41.533-2.515,7.719-4.255,12.98-6.525,19.121Z"/><path class="h" d="M137.643,189.357c5.128-.002,10.256-.107,15.384-.109,1.255,0,2.458-1.104,2.4-2.4s-1.055-2.401-2.4-2.4c-5.128.002-10.256.107-15.384.109-1.255,0-2.458,1.104-2.4,2.4s1.055,2.4,2.4,2.4h0Z"/><path class="h" d="M132.352,177.992c.487,2.04.807,4.109,1.239,6.16.335,1.591.964,3.256.891,4.898-.064,1.446-.338,2.91-.516,4.345-.887,7.181-1.793,14.36-2.672,21.542-.62,5.061-1.23,10.123-1.821,15.188-.151,1.29,1.211,2.4,2.4,2.4,1.422,0,2.249-1.107,2.4-2.4,1.02-8.739,2.095-17.472,3.182-26.203.609-4.89,1.496-9.833,1.815-14.753.115-1.77-.447-3.564-.83-5.272-.535-2.385-.893-4.803-1.46-7.18-.717-3.003-5.346-1.732-4.629,1.276h0Z"/><path class="h" d="M161.457,229.266c-1.203-8.475-2.415-16.949-3.609-25.426-.447-3.177-.893-6.355-1.325-9.534-.022-.163-.107-.789-.093-.686.018.135-.065-.49-.08-.604-.061-.463-.122-.925-.181-1.388-.08-.627-.178-1.258-.224-1.889-.099-1.34.231-2.664.587-3.947.6-2.165,1.032-4.593,1.961-6.638.536-1.179.338-2.583-.861-3.284-1.03-.603-2.745-.325-3.284.861-.923,2.031-1.353,4.157-1.998,6.278-.616,2.023-1.292,4.215-1.234,6.356.035,1.326.304,2.676.478,3.987.95,7.138,1.975,14.265,2.988,21.394.748,5.266,1.498,10.531,2.246,15.797.182,1.285,1.817,1.988,2.952,1.676,1.381-.379,1.859-1.664,1.676-2.952h0Z"/><path class="h" d="M165.767,267.13c12.843-22.262,25.54-44.629,37.294-67.489.886-1.724,1.939-3.445,1.467-5.462-.404-1.726-1.835-2.985-3.013-4.214-2.655-2.769-5.437-5.413-8.234-8.036l-.486,3.769c2.256-1.288,4.512-2.575,6.768-3.863,1.952-1.114,4.635-2.261,4.012-5.037-.33-1.468-1.383-2.919-2.261-4.117-1.068-1.458-2.236-2.837-3.483-4.146-4.946-5.192-10.805-9.666-16.826-13.538-1.265-.813-3.193-.04-3.526,1.434-3.543,15.709-7.6,31.303-12.106,46.764-3.997,13.715-8.303,27.373-13.026,40.857-2.419,6.908-5.101,13.719-7.848,20.503-.487,1.202.53,2.637,1.676,2.952,1.372.377,2.464-.47,2.952-1.676,4.752-11.735,8.973-23.597,12.892-35.633,4.965-15.248,9.551-30.605,13.634-46.113,2.305-8.754,4.461-17.547,6.453-26.377l-3.526,1.434c4.033,2.594,7.89,5.479,11.497,8.639,1.898,1.663,3.734,3.407,5.413,5.293.72.808,1.412,1.637,2.031,2.526.277.398.543.804.791,1.22.141.236.277.475.406.718l.123.236c.155.316.156.313.004-.007l.328-1.211c.371-.242.439-.291.204-.146-.179.11-.362.215-.547.316-.422.243-.846.483-1.269.724-.775.443-1.551.885-2.326,1.328-1.621.926-3.243,1.851-4.864,2.777-1.31.748-1.61,2.715-.486,3.769,2.331,2.186,4.65,4.385,6.895,6.66.562.569,1.119,1.143,1.67,1.723.374.393,1.11.897,1.305,1.396.256.652-.96,2.348-1.359,3.123-2.789,5.406-5.634,10.783-8.519,16.139-5.87,10.896-11.902,21.705-18.015,32.467-3.392,5.972-6.81,11.929-10.242,17.877-1.546,2.681,2.6,5.1,4.145,2.423h0Z"/><path class="h" d="M129.8,264.708c-12.276-21.279-24.41-42.657-35.731-64.464-.76-1.465-1.615-2.921-2.284-4.43-.282-.637-.284-.514.203-1.062.582-.655,1.203-1.281,1.813-1.91,2.504-2.582,5.112-5.059,7.735-7.519,1.125-1.055.825-3.021-.486-3.769-1.621-.926-3.243-1.851-4.864-2.777-.775-.443-1.551-.885-2.326-1.328-.423-.241-.847-.481-1.269-.724l-.423-.241c-.357-.222-.331-.198.08.071l.328,1.211c-.134.281-.152.322-.055.124.058-.119.119-.237.181-.354.107-.202.22-.4.335-.597.269-.458.558-.904.862-1.34.586-.842,1.239-1.63,1.918-2.399,1.71-1.934,3.586-3.719,5.525-5.419,3.606-3.161,7.464-6.046,11.497-8.639l-3.526-1.434c3.543,15.709,7.6,31.303,12.106,46.764,3.997,13.715,8.303,27.373,13.026,40.857,2.419,6.908,5.101,13.719,7.848,20.503.486,1.201,1.599,2.048,2.952,1.676,1.139-.313,2.166-1.744,1.676-2.952-4.752-11.735-8.973-23.597-12.892-35.633-4.965-15.248-9.551-30.605-13.634-46.113-2.305-8.754-4.461-17.547-6.453-26.377-.333-1.474-2.261-2.248-3.526-1.434-6.021,3.872-11.881,8.346-16.826,13.538-1.246,1.308-2.415,2.688-3.483,4.146-.88,1.202-1.93,2.645-2.261,4.117-.624,2.777,2.06,3.923,4.012,5.037,2.256,1.288,4.512,2.575,6.768,3.863l-.486-3.769c-2.448,2.296-4.883,4.606-7.232,7.003-2.305,2.352-5.198,4.83-3.673,8.436,1.208,2.857,2.836,5.594,4.275,8.342,1.506,2.875,3.026,5.741,4.558,8.602,6.101,11.39,12.388,22.68,18.763,33.918,3.582,6.315,7.195,12.612,10.823,18.901,1.543,2.675,5.693.261,4.145-2.423h0Z"/><path class="h" d="M100.689,161.459c-14.368,4.87-29.479,9.416-41.182,19.484-3.371,2.901-6.336,6.217-8.805,9.919-1.719,2.577,2.437,4.983,4.145,2.423,3.861-5.788,9.291-10.551,15.194-14.185s12.491-6.144,18.984-8.513c4.29-1.565,8.615-3.034,12.94-4.5,2.91-.986,1.661-5.624-1.276-4.629h0Z"/><path class="h" d="M8.757,230.632c3.064,16.713,6.165,33.796,12.679,49.577,2.805,6.797,6.088,13.721,11.365,18.973,5.738,5.711,13.455,8.31,21.483,7.915,8.802-.433,17.609-4.057,22.65-11.551,1.729-2.57-2.428-4.975-4.145-2.423-3.81,5.664-10.718,8.535-17.338,9.095-7.043.596-13.835-1.169-19.015-6.194-4.732-4.591-7.734-10.787-10.25-16.798-2.765-6.606-4.842-13.491-6.613-20.422-2.483-9.721-4.38-19.585-6.188-29.449-.234-1.276-1.781-1.998-2.952-1.676-1.341.369-1.911,1.673-1.676,2.952h0Z"/><path class="h" d="M256.741,240.142c-.888-8.258-2.423-16.46-4.57-24.483-1.863-6.962-4.097-14.133-7.752-20.39-3.725-6.379-9.418-11.394-15.465-15.51-6.981-4.752-14.659-8.417-22.369-11.813-5.21-2.295-10.475-4.405-15.772-6.486-1.207-.474-2.635.52-2.952,1.676-.374,1.361.465,2.477,1.676,2.952,11.589,4.552,23.278,9.238,33.897,15.807,5.959,3.686,11.74,8.148,15.712,14.006,3.678,5.425,5.784,11.912,7.594,18.154,2.468,8.511,4.253,17.275,5.201,26.087.139,1.289,1.004,2.4,2.4,2.4,1.19,0,2.54-1.103,2.4-2.4h0Z"/><path class="h" d="M213.969,282.48c7.144,7.944,18.007,14.472,29.053,13.527,5.909-.506,11.276-3.226,15.824-6.931,3.56-2.9,6.162-6.899,8.29-10.919,3.063-5.787,5.381-11.96,7.72-18.063.464-1.211-.513-2.633-1.676-2.952-1.353-.372-2.487.461-2.952,1.676-1.924,5.019-3.839,10.058-6.205,14.889-1.857,3.791-3.982,7.588-7.011,10.577-3.336,3.293-7.796,5.776-12.4,6.69-4.715.937-9.914-.185-14.229-2.159-4.992-2.284-9.359-5.657-13.021-9.73-2.07-2.302-5.456,1.102-3.394,3.394h0Z"/><path class="h" d="M167.88,149.579c1.316,1.484,2.558,3.029,3.8,4.575,1.152,1.434,2.435,2.812,3.518,4.295.45.617.763,1.315.938,2.056.065.277.11.525.119.81.005.159-.14,1.021.044.547-.195.502-.56.984-.838,1.441-2.657,4.367-5.589,8.627-8.853,12.562-1.039,1.253-2.118,2.475-3.272,3.623-.497.495-1.009.976-1.542,1.432-.631.54-.55.479-1.255.94l3.284.861c-4.817-6.431-9.353-13.156-14.681-19.184l-.486,3.769c2.796-2,5.458-4.217,8.162-6.338,3.823-2.998,7.64-6.003,11.454-9.013,1.002-.791,2.009-1.575,3.003-2.377,1.01-.815.848-2.546,0-3.394-.998-.998-2.382-.817-3.394,0-6.197,5-12.5,9.878-18.781,14.773-.384.299-.768.598-1.153.897-.168.13-.336.26-.504.39-.313.243.392-.3-.068.052-.379.29-.754.587-1.143.865-1.304.933-1.578,2.533-.486,3.769,5.058,5.722,9.357,12.107,13.93,18.212.746.996,2.099,1.636,3.284.861,5.166-3.377,9-8.955,12.478-13.934,1.449-2.074,2.851-4.184,4.166-6.345.352-.578.721-1.154.985-1.779.857-2.028.436-4.396-.41-6.351-.931-2.15-2.708-3.859-4.164-5.665-1.558-1.934-3.094-3.888-4.742-5.746-2.054-2.316-5.438,1.089-3.394,3.394Z"/><path class="h" d="M120.148,146.185c-1.459,1.645-2.828,3.365-4.205,5.079-1.302,1.62-2.813,3.171-3.958,4.906-1.784,2.704-2.178,6.167-.516,8.977,2.869,4.853,6.175,9.52,9.754,13.872,2.122,2.58,4.423,5.144,7.239,6.986,1.173.767,2.538.134,3.284-.861,4.573-6.105,8.872-12.49,13.93-18.212,1.093-1.236.818-2.837-.486-3.769-.306-.219-.602-.45-.901-.679-.115-.088-.23-.177-.346-.266-.297-.228.409.318-.025-.019-.332-.258-.665-.516-.997-.774-1.745-1.357-3.484-2.721-5.223-4.085-3.747-2.939-7.49-5.885-11.228-8.836-.977-.771-1.96-1.537-2.929-2.318-1.008-.813-2.409-.985-3.394,0-.841.841-1.014,2.576,0,3.394,6.272,5.061,12.652,9.999,19.01,14.951,1.196.931,2.375,1.894,3.609,2.776l-.486-3.769c-5.328,6.027-9.863,12.753-14.681,19.184l3.284-.861c-.213-.139-.421-.283-.627-.431-.217-.155-.011,0,.027.029-.126-.097-.25-.198-.373-.3-.494-.411-.971-.842-1.434-1.288-1.008-.97-1.955-2.004-2.867-3.064-1.865-2.167-3.58-4.455-5.225-6.792-1.406-1.999-2.765-4.033-4.053-6.11-.363-.585-.723-1.173-1.061-1.773-.044-.078-.098-.158-.132-.241.108.266.032.048.031-.219-.002-.685.102-1.35.361-1.991.733-1.816,2.461-3.349,3.672-4.856,1.422-1.769,2.833-3.547,4.34-5.246,2.043-2.304-1.34-5.711-3.394-3.394Z"/><path class="h" d="M123.138,145.592v3.831c0,.615.268,1.262.703,1.697.416.416,1.099.73,1.697.703.621-.028,1.264-.232,1.697-.703s.703-1.047.703-1.697v-3.831c0-.615-.268-1.262-.703-1.697-.416-.416-1.099-.73-1.697-.703-.621.028-1.264.232-1.697.703s-.703,1.047-.703,1.697h0Z"/><path class="h" d="M163.826,145.358v3.958c0,.615.268,1.262.703,1.697.416.416,1.099.73,1.697.703.621-.028,1.264-.232,1.697-.703s.703-1.047.703-1.697v-.22c0-.615-.268-1.262-.703-1.697-.416-.416-1.099-.73-1.697-.703-.621.028-1.264.232-1.697.703s-.703,1.047-.703,1.697v.22c0,.615.268,1.262.703,1.697.416.416,1.099.73,1.697.703.621-.028,1.264-.232,1.697-.703s.703-1.047.703-1.697v-3.958c0-.615-.268-1.262-.703-1.697-.416-.416-1.099-.73-1.697-.703-.621.028-1.264.232-1.697.703s-.703,1.047-.703,1.697h0Z"/><path class="j" d="M197.877,33.41c-2.191-3.627-4.956-6.732-8.347-9.795l-7.75-6.889c-10.046-11.194-23.4-14.289-36.561-14.289-13.806,0-25.905,3.92-36.92,12.136-2.462,1.837-7.284,6.315-10.405,10.836-6.745,6.602-12.127,21.025-11.725,35.329.055,5.796.507,12.459,2.358,19.199.794-.307,1.748-.516,2.893-.556,1.807-.064,3.918.502,5.485,2.008,0,0,1.092.765,2.174,1.524.24-3.23.341-5.029.948-8.719,1.009-6.129,7.369-8.954,10.071-14.425,1.557-3.152,2.483-6.836,5.146-9.078,2.005-1.689,4.681-2.261,7.263-2.533,3.998-.421,17.522.182,22.045,1.017,3.826.215,7.535.979,12.992,1.674,2.96.377,8.45,1.345,10.549,1.767,8.257,1.898,11.42,3.959,15.568,9.578,1.589,2.153,3.281,6.083,4.847,11.197l5.457,7.999c1.567-1.506,3.678-2.071,5.485-2.008,1.049.037,1.937.216,2.69.481,1.798-7.156,2.565-12.536,2.287-19.124-.534-12.638-2.617-20.822-6.547-27.328Z"/><path class="h" d="M137.286,122.313c2.957,1.562,6.143,2.216,9.487,2.194,3.4-.022,6.835-.691,9.558-2.813,1.023-.797.837-2.557,0-3.394-1.01-1.01-2.368-.799-3.394,0,.724-.564.146-.121-.04-.002-.191.122-.388.236-.589.341-.161.085-.879.372-.234.132-.271.101-.537.207-.812.295-.74.238-1.504.406-2.273.519.346-.051-.109.009-.236.021-.223.022-.446.041-.67.055-.538.035-1.077.048-1.616.045-.483-.003-.965-.019-1.447-.052-.221-.015-.442-.033-.663-.055-.012-.001-.799-.109-.34-.037-.717-.112-1.428-.263-2.124-.471-.298-.089-.588-.196-.881-.296-.086-.029-.209-.06-.284-.111.48.327.256.115.059.022-.364-.172-.723-.351-1.079-.539-1.146-.605-2.61-.291-3.284.861-.634,1.084-.289,2.676.861,3.284h0Z"/><path class="h" d="M145.587,99.921c.415,1.583.814,3.191,1.052,4.812l-.086-.638c.028.222.041.441.018.664l.086-.638c-.016.103-.038.2-.073.299l.242-.573c-.031.07-.063.129-.105.192l.375-.486c-.049.06-.096.106-.157.155l.486-.375c-.122.078-.25.141-.381.202l.573-.242c-.21.088-.418.152-.642.187l.638-.086c-.203.024-.4.022-.603-.001l.638.086c-.227-.032-.45-.087-.678-.118-.67-.09-1.239-.115-1.849.242-.498.291-.973.862-1.103,1.434-.14.614-.11,1.304.242,1.849.312.484.835,1.022,1.434,1.103.511.069,1.008.199,1.528.222.795.035,1.534-.208,2.244-.533.876-.401,1.559-1.184,1.792-2.127.197-.798.112-1.5-.023-2.299-.262-1.55-.62-3.087-1.019-4.607-.318-1.214-1.729-2.072-2.952-1.676-1.25.404-2.018,1.651-1.676,2.952h0Z"/><path class="h" d="M119.976,86.311c-.804,2.612-.28,8.619,4.668,9.13,6.539-.039,6.887-7.302,4.686-10.717-1.802-2.796-7.102-3.959-9.353,1.587Z"/><path class="h" d="M172.542,86.311c.804,2.612.28,8.619-4.667,9.13-6.539-.039-6.887-7.303-4.686-10.718,1.802-2.796,7.102-3.959,9.354,1.587Z"/><path class="h" d="M98.6,79.691c-3.199-2.894-7.875-3.503-11.759-1.622-2.832,1.372-4.469,4.18-5.189,7.147-1.692,6.967.063,14.892,4.032,20.809,2.92,4.354,7.152,7.545,12.61,6.8,1.286-.176,1.987-1.822,1.676-2.952-.381-1.386-1.663-1.852-2.952-1.676-3.817.521-6.768-3.571-8.316-6.481-1.5-2.818-2.579-5.999-2.804-9.192-.126-1.776-.113-3.606.235-5.358.241-1.211.813-2.859,1.358-3.584-.156.208.33-.363.387-.425.291-.314.25-.268.499-.44.634-.44,1.313-.697,2.077-.838,1.688-.31,3.461.039,4.752,1.207,2.286,2.068,5.691-1.316,3.394-3.394h0Z"/><path class="h" d="M195.66,83.085c2.291-2.072,6.096-1.553,7.779.575-.329-.416.124.217.176.303.183.302.358.62.493.946.293.71.476,1.5.626,2.255.348,1.752.361,3.582.235,5.358-.222,3.138-1.27,6.255-2.723,9.035-1.545,2.958-4.52,7.167-8.398,6.638-1.283-.175-2.577.309-2.952,1.676-.308,1.12.384,2.776,1.676,2.952,8.817,1.204,13.939-7.483,16.225-14.744,1.155-3.666,1.292-7.722.688-11.499-.493-3.077-1.771-5.996-4.351-7.854-3.848-2.772-9.448-2.131-12.869.964-2.296,2.077,1.107,5.463,3.394,3.394h0Z"/><path class="h" d="M191.193,106.205c-.438,2.132-1.079,4.22-1.807,6.269-.229.643-.632,1.72-.801,2.114-.172.402-.361.795-.526,1.201-.04.098-.267.68-.107.289.168-.412-.104.232-.139.31-.09.199-.182.396-.276.592-.245.512-.504,1.018-.769,1.52-.6,1.133-1.241,2.245-1.91,3.339-3.511,5.744-7.788,11.177-13.025,15.446-2.866,2.336-6.1,4.194-9.675,5.018-3.009.694-1.735,5.323,1.276,4.629,7.334-1.692,13.441-7.043,18.235-12.604,3.997-4.636,7.711-9.854,10.258-15.447.257-.563.482-1.139.722-1.71-.319.757.409-.933.428-.979.198-.477.389-.957.571-1.44.893-2.365,1.666-4.794,2.174-7.272.26-1.269-.368-2.593-1.676-2.952-1.187-.326-2.69.401-2.952,1.676h0Z"/><path class="h" d="M94.905,107.308c1.621,7.158,4.531,14.093,8.604,20.204,4.38,6.572,10.135,12.718,17.095,16.582,3.557,1.975,7.443,3.313,11.467,3.907,1.281.189,2.579-.319,2.952-1.676.311-1.131-.386-2.762-1.676-2.952-14.407-2.126-25.182-14.616-30.646-27.418-1.363-3.195-2.402-6.536-3.168-9.922-.682-3.011-5.311-1.737-4.629,1.276h0Z"/><path class="h" d="M183.476,15.029c-6.833-7.538-16.027-12.227-26.003-13.968s-20.549-1.383-30.302,1.406c-9.51,2.719-18.539,7.793-25.526,14.821-1.943,1.954-3.66,4.056-5.345,6.233-1.278,1.651-2.735,3.126-3.911,4.876-2.719,4.05-4.656,8.666-6.053,13.325-1.797,5.994-2.682,12.312-2.579,18.569.108,6.589.623,13.149,2.259,19.554.764,2.991,5.395,1.723,4.629-1.276-1.353-5.3-1.923-10.713-2.05-16.173-.122-5.234.18-10.371,1.343-15.49,1.054-4.64,2.622-9.189,4.934-13.358.947-1.708,2.001-3.383,3.265-4.876.686-.81,1.436-1.533,2.065-2.391.718-.979,1.465-1.925,2.264-2.841,6.078-6.969,13.708-12.111,22.562-15.251,8.974-3.183,18.644-3.977,28.082-2.94,10.353,1.137,19.925,5.401,26.972,13.175,2.079,2.294,5.465-1.109,3.394-3.394h0Z"/><path class="h" d="M204.608,79.844c1.223-4.991,2.136-10.072,2.256-15.221.114-4.873-.318-9.796-1.011-14.616-1.005-6.996-3.105-13.926-7.181-19.772-2.14-3.069-4.679-5.807-7.446-8.317-2.283-2.071-5.688,1.313-3.394,3.394,4.473,4.058,8.205,8.614,10.396,14.123,2.882,7.247,3.739,15.314,3.845,23.057.075,5.469-.796,10.778-2.094,16.076-.735,3,3.893,4.28,4.629,1.276h0Z"/><path class="h" d="M145.189,46.859c-3.896-.7-7.91-.886-11.857-1.065-3.707-.169-7.536-.424-11.234.008-3.036.354-5.981,1.083-8.391,3.062-2.072,1.702-3.268,4.137-4.298,6.554-.962,2.258-1.897,4.421-3.525,6.289-1.553,1.782-3.329,3.362-4.822,5.197-1.856,2.281-3.049,4.668-3.5,7.587-.487,3.151-.723,6.313-.973,9.488-.102,1.294,1.176,2.4,2.4,2.4,1.383,0,2.298-1.102,2.4-2.4.346-4.409.066-9.688,2.838-13.386,2.676-3.571,6.349-6.143,8.267-10.297,1.02-2.208,1.756-4.651,3.219-6.624,1.478-1.994,3.84-2.715,6.204-3.047,3.312-.465,6.791-.215,10.117-.086,2.334.09,4.667.219,6.995.404.965.076,1.929.162,2.89.268.203.022.405.046.608.069.044.005.802.105.255.029.378.053.755.112,1.13.179,1.274.229,2.587-.346,2.952-1.676.319-1.162-.394-2.722-1.676-2.952h0Z"/><path class="h" d="M167.454,54.928c2.371.551,5.174,1.316,7.023,2.206.935.45,1.811.982,2.664,1.572.448.31-.006-.026.316.237.175.143.348.288.518.437.407.356.797.731,1.173,1.119,3.605,3.717,5.482,8.467,7.044,13.528.908,2.943,5.543,1.687,4.629-1.276-1.003-3.251-2.14-6.518-3.724-9.538-1.173-2.236-2.798-4.298-4.554-6.108-3.748-3.864-8.676-5.613-13.813-6.806-3.006-.698-4.289,3.929-1.276,4.629h0Z"/><path class="h" d="M160.155,49.266c-.753-3.205-3.263-5.939-5.786-7.902-4.186-3.258-9.153-4.953-14.374-5.64-1.287-.169-2.4,1.224-2.4,2.4,0,1.437,1.109,2.23,2.4,2.4,2.141.281,4.545.927,6.645,1.791-.338-.139.282.126.345.154.258.118.515.24.769.366.456.227.905.467,1.345.722.42.243.832.5,1.235.769.209.14.416.283.62.43.087.063.586.438.184.127.667.516,1.3,1.081,1.891,1.684.25.255.493.517.726.788.129.15.246.313.38.458.111.14.07.086-.122-.161.064.085.128.172.19.259.36.525.705,1.054.987,1.626.036.073.186.293.166.357.016-.05-.198-.579-.056-.112.077.254.165.501.226.76.296,1.262,1.737,2.01,2.952,1.676,1.292-.355,1.974-1.686,1.676-2.952h0Z"/><path class="h" d="M216.831,323.208c.084-15.675.25-31.35.417-47.024.059-5.576.121-11.152.187-16.728.036-3.09-4.763-3.092-4.8,0-.214,18.102-.398,36.205-.539,54.307-.025,3.148-.048,6.296-.065,9.445-.017,3.089,4.783,3.093,4.8,0h0Z"/><path class="g" d="M239.249,147.77c-6.295-9.606-13.165-19.91-20.019-29.974-2.983-4.38-9.718-3.319-11.212,1.766-5.424,18.457-14.169,48.221-18.661,63.507-1.38,4.696-.587,9.756,2.157,13.809,7.714,11.394,15.087,22.25,23.267,34.641.675,1.023,1.672,1.728,2.781,2.054l24.585-83.665c-1.155-.332-2.195-1.065-2.897-2.136Z"/><path class="f" d="M278.861,135.151c-10.981,4.595-22.19,9.519-33.128,14.49-1.164.529-2.433.597-3.586.266l-24.585,83.665c1.109.326,2.329.272,3.45-.223,13.576-5.994,25.645-11.133,38.29-16.54,4.511-1.929,7.926-5.772,9.309-10.479l18.69-63.606c1.49-5.069-3.567-9.613-8.441-7.573Z"/><path class="h" d="M239.46,149.825c-2.67,9.087-5.34,18.174-8.01,27.261-4.257,14.486-8.513,28.971-12.77,43.457-.978,3.328-1.956,6.655-2.933,9.983-.945,3.217,4.071,4.591,5.014,1.382,2.67-9.087,5.34-18.174,8.01-27.261,4.257-14.486,8.513-28.971,12.77-43.457.978-3.328,1.956-6.655,2.933-9.983.945-3.217-4.071-4.591-5.014-1.382h0Z"/><path class="h" d="M241.494,146.457c-4.892-7.462-9.83-14.895-14.817-22.294-1.274-1.89-2.551-3.778-3.831-5.664-1.107-1.63-2.106-3.276-3.721-4.448-2.546-1.849-5.954-2.023-8.786-.774-3.073,1.355-4.373,4.046-5.27,7.098-.916,3.119-1.833,6.237-2.749,9.356-2.016,6.861-4.032,13.723-6.049,20.584-1.962,6.676-3.923,13.352-5.885,20.028-.833,2.836-1.666,5.671-2.5,8.507-.94,3.198-1.954,6.352-1.768,9.736.237,4.293,1.936,7.81,4.305,11.309s4.751,7.015,7.123,10.525c4.893,7.242,9.763,14.5,14.581,21.792,1.143,1.73,2.44,3.052,4.43,3.761,1.776.633,3.74.474,5.455-.248,4.225-1.779,8.401-3.686,12.607-5.511,7.812-3.389,15.642-6.735,23.472-10.082,3.441-1.471,6.638-3.039,9.111-5.953,1.807-2.129,3.123-4.542,3.932-7.216.424-1.403.826-2.812,1.24-4.218,2.135-7.267,4.271-14.534,6.406-21.801,2.492-8.482,4.985-16.964,7.477-25.446l2.595-8.831c.367-1.248.821-2.503,1.085-3.78.759-3.669-.747-7.394-3.91-9.439-1.446-.934-3.243-1.456-4.968-1.39-2.118.081-3.96,1.032-5.876,1.84-8.443,3.562-16.841,7.229-25.199,10.983-1.827.82-3.702,1.928-5.619,2.505-1.029.31-2.213.004-2.872-.929-.809-1.146-2.271-1.685-3.557-.933-1.133.663-1.747,2.404-.933,3.557,2.363,3.347,6.285,4.447,10.041,2.804,4.035-1.766,8.029-3.626,12.057-5.409,3.959-1.752,7.926-3.484,11.903-5.193,2.013-.865,4.028-1.724,6.046-2.576,1.446-.61,3.093-1.615,4.669-1.44,2.062.229,3.688,2.366,3.121,4.588-.082.321-.182.638-.276.955l-1.733,5.898c-2.191,7.458-4.383,14.915-6.574,22.373l-7.047,23.982-2.312,7.868c-.399,1.359-.729,2.809-1.28,4.117-1.141,2.708-3.157,5.02-5.677,6.521-1.607.957-3.388,1.607-5.103,2.34-1.878.803-3.756,1.605-5.634,2.408-7.622,3.261-15.238,6.533-22.834,9.854-1.999.874-3.983,1.79-5.995,2.632-1.015.425-1.933.587-2.854-.1-.577-.43-.923-1.145-1.312-1.734-.627-.948-1.254-1.895-1.883-2.842-1.185-1.786-2.374-3.57-3.564-5.353-4.575-6.848-9.188-13.67-13.806-20.49-2.088-3.084-4.547-6.049-5.371-9.758-.702-3.163.068-6.054.956-9.073,1.674-5.696,3.348-11.392,5.021-17.088,3.802-12.94,7.604-25.879,11.407-38.819.416-1.415.832-2.831,1.248-4.246.371-1.261.557-2.015,1.447-2.803.154-.136.755-.502.991-.595-.059.023.557-.155.708-.192.007-.002.436-.077.181-.042-.222.031.271-.014.319-.014.815.002,1.812.258,2.334.656,1.289.983,2.154,2.804,3.117,4.226,1.233,1.82,2.463,3.641,3.69,5.465,2.39,3.552,4.768,7.111,7.136,10.677,2.298,3.461,4.585,6.928,6.862,10.402,1.827,2.788,6.332.185,4.49-2.625Z"/><path class="e" d="M10.672,205.235c-1.457-4.636-3.983-11.109-5.834-14.181-2.147-3.565-2.732-7.264-2.305-10.463.216-1.618,1.419-5.1,2.223-6.114,4.246-5.353,7.921-10.033,12.238-14.501.922-.954,2.26-2.103,3.288-2.941,1.85-1.507,4.305-2.25,6.68-2.021,1.836.177,4.815,2.066,5.456,4.182l4.242-.401c.855-.654,1.613-1.452,2.524-2.032,2.536-1.615,5.947-1.289,8.608.112,2.66,1.402,4.709,3.719,6.579,6.074,1.408,1.773,2.315,4.195,2.492,6.529.136,1.789-.721,3.077-1.768,3.972-.782.668-2.23,1.469-4.069,1.616.462.937,1.191,2.413,1.191,2.413.789.289,1.882,1.183,2.537,1.775,1.809,1.74,2.206,5.024,1.202,7.258-.545,1.213-3.074,6.521-4.07,7.951l-3.603-1.538c-1.579,2.771-2.499,5.835-1.849,8.341,3.383,14.238,2.048,21.041-2.803,24.491-3.958,2.816-9.71,4.955-12.875,5.293-1.278.136-7.138.543-8.249-.105-2.182-1.276-4.356-2.013-5.843-4.218-1.223-1.813-1.846-4.01-2.214-6.144-.448-2.595-1.963-9.056-3.169-13.284-.171-.627-.377-1.322-.611-2.064Z"/><path class="h" d="M34.734,158.558c-1.019-2.879-3.867-5.242-6.875-5.823-3.479-.672-6.899.666-9.56,2.84-5.415,4.423-9.718,10.247-14.04,15.694-.823,1.037-1.703,2.009-2.26,3.218-.62,1.347-1.14,2.756-1.512,4.192-.782,3.021-.588,6.326.347,9.29.886,2.807,2.57,5.258,3.774,7.929,1.151,2.555,2.14,5.189,3.048,7.839,1.791,5.232,3.111,10.662,4.213,16.077.602,2.956,1.137,5.966,2.966,8.461,1.006,1.372,2.295,2.42,3.763,3.268,1.121.648,2.382,1.522,3.646,1.858,2.081.553,4.467.324,6.59.198,2.262-.135,4.439-.479,6.6-1.186,4.701-1.538,10.188-3.894,12.95-8.248s2.594-10.022,1.967-14.916c-.235-1.833-.534-3.655-.901-5.465-.345-1.698-1.008-3.427-.772-5.177.423-3.136,2.448-6.107,4.559-8.363s-1.279-5.656-3.394-3.394-3.841,4.852-4.99,7.739c-.515,1.294-.844,2.631-.975,4.018-.152,1.613.216,3.117.566,4.681.622,2.787,1.152,5.605,1.367,8.456.08,1.058.121,2.12.102,3.181-.019,1.041-.117,2.2-.24,2.872-.336,1.839-.619,2.718-1.542,4.111-.109.164-.222.327-.342.484.054-.072.301-.357.009-.029-.258.29-.519.574-.804.838-.127.118-.846.689-.412.367-.564.418-1.16.799-1.76,1.162-3.961,2.394-8.247,3.876-12.522,4.096-1.054.054-2.111.089-3.167.069-.427-.008-.854-.026-1.28-.062-.653-.055.368-.117-.17-.026-.103-.021-.205-.048-.306-.08.4.183.458.198.174.045-1.068-.779-2.392-1.194-3.478-1.965-1.145-.813-1.879-1.985-2.38-3.283-.872-2.26-1.126-4.768-1.652-7.127-.603-2.7-1.259-5.389-1.977-8.06-1.339-4.978-3.077-9.845-5.171-14.556-1.001-2.253-2.487-4.356-3.292-6.678-.847-2.445-1.064-5.059-.405-7.447.324-1.172.694-2.4,1.303-3.457.775-1.345,1.939-2.53,2.909-3.743,2.32-2.903,4.675-5.781,7.175-8.532,1.14-1.254,2.293-2.497,3.558-3.628,1.182-1.057,2.37-2.154,3.926-2.611,1.08-.317,2.308-.516,3.374-.105.961.37,2.316,1.26,2.666,2.251.432,1.221,1.638,2.037,2.952,1.676,1.183-.325,2.111-1.725,1.676-2.952h0Z"/><path class="h" d="M22.698,175.966c2.897-3.244,5.883-6.417,8.91-9.539.457-.471.938-.923,1.389-1.399.046-.048.097-.092.147-.136.098-.084.048-.047-.151.113.175-.127.357-.244.545-.351.464-.25.981-.377,1.358-.38.957-.008,1.944.519,2.579,1.386.393.538.553.947.69,1.474.046.177.084.355.115.535-.03-.191-.032-.137-.004.162.006.175.004.35-.007.525.047-.209.041-.168-.017.123-.239,1.273.354,2.589,1.676,2.952,1.17.322,2.712-.396,2.952-1.676.552-2.936-.356-6.06-2.591-8.108-2.451-2.246-5.915-2.796-8.897-1.286-1.337.677-2.343,1.807-3.368,2.868-1.425,1.474-2.831,2.966-4.232,4.463-1.51,1.614-3.017,3.232-4.489,4.881-.863.966-.953,2.441,0,3.394.878.878,2.527.971,3.394,0h0Z"/><path class="h" d="M33.756,179.477c1.947-1.907,4.117-3.878,6.234-5.434,1.061-.78,2.137-1.597,3.269-2.272.23-.137-.038.002-.083.019.139-.052.278-.08.418-.122.121-.036.424-.016.021-.008.114-.002.226-.008.34-.006.064,0,.536.04.254.004-.258-.033.119.03.141.036.151.043.304.085.456.126l.225.079c-.168-.073-.176-.073-.025,0,.248.13.502.264.722.439-.344-.273.362.411.145.149-.138-.166.214.367.277.48.222.397.077.169.037.064.07.186.129.376.181.567.034.127.144.815.107.404.026.291.038.591.005.881.06-.528-.098.163-.095.156-.046.111-.325.574-.477.807-.99,1.518-2.33,2.919-3.689,4.251-1.613,1.582-3.265,3.124-4.915,4.667-.947.886-.895,2.499,0,3.394.944.944,2.445.888,3.394,0,1.7-1.591,3.403-3.179,5.062-4.812,1.77-1.742,3.669-3.694,4.784-5.926,1.574-3.153.486-7.217-2.393-9.228-1.281-.895-2.967-1.424-4.535-1.333-1.723.1-2.965.873-4.338,1.825-3.168,2.197-6.159,4.699-8.914,7.397-2.21,2.165,1.185,5.558,3.394,3.394h0Z"/><path class="h" d="M48.895,180.077c.321-.175.491-.269.77-.363.067-.023.765-.189.408-.137.664-.098.758.002,1.369.168.203.07.186.062-.051-.022.14.074.277.154.41.239.216.136.429.283.63.439-.25-.195.251.217.297.257.225.193.441.39.635.614-.263-.304.092.151.146.243.115.194.226.399.314.607-.172-.406.081.321.105.409.071.263.135.532.169.803-.054-.424-.006.201-.003.298.006.234-.01.466-.015.7-.029.292-.027.308.005.049-.025.149-.055.298-.09.445-.052.217-.122.428-.189.641.133-.42-.102.227-.157.345-.137.295-.276.589-.415.882-.367.772-.74,1.541-1.12,2.307-.71,1.432-1.397,2.924-2.299,4.248-.73,1.072-.203,2.661.861,3.284,1.186.694,2.552.213,3.284-.861,1.096-1.608,1.911-3.444,2.761-5.188.929-1.907,1.945-3.774,2.14-5.921.251-2.766-.773-5.661-2.921-7.456-1.246-1.041-2.54-1.948-4.174-2.224-1.89-.319-3.627.142-5.293,1.047-1.139.618-1.501,2.19-.861,3.284.673,1.15,2.141,1.482,3.284.861h0Z"/><path class="h" d="M36.998,161.45c1.332-.788,2.336-2.048,3.685-2.786.998-.546,2.167-.685,3.291-.545,2.954.368,5.263,2.514,7.144,4.651.944,1.071,1.855,2.158,2.467,3.459.523,1.112,1.072,2.696.878,3.937-.064.409-.297.797-.464,1.002-.078.096-.886.8-.428.458-.183.137-.38.261-.577.376-.926.54-2.116.838-3.328.642-1.278-.207-2.583.331-2.952,1.676-.315,1.145.389,2.744,1.676,2.952,3.088.5,6.27-.129,8.611-2.31,2.639-2.459,2.633-6.053,1.517-9.26-1.076-3.093-3.22-5.721-5.566-7.965-2.473-2.365-5.402-4.036-8.84-4.4-1.859-.197-3.727.157-5.41.955-1.568.743-2.654,2.141-4.126,3.012-2.656,1.572-.244,5.723,2.423,4.145h0Z"/><path class="e" d="M269.478,208.23c-.469-.479-.966-.935-1.491-1.362-.052-.043-.105-.085-.157-.128-4.333-3.399-8.528-6.308-14.537-9.71-3.37-1.908-7.134-.794-8.676,1.03-1.83,2.166-2.6,5.799.472,8.314-3.772-1.393-6.897-.503-8.89,1.866-2.11,2.508-1.507,6.361,1.411,8.721l2.072,1.676c-.845-.317-1.69-.634-1.69-.634-2.899-1.088-6.078.005-7.376,2.319-1.727,3.08-.97,6.088,1.811,8.478l1.996,1.715c-.724-.225-1.449-.45-1.449-.45-3.143-.977-5.231-.477-6.903,1.245-1.389,1.43-1.763,4.25-.545,6.277,1.41,2.347,2.776,3.755,4.366,5.551-2.119,4.015-3.296,10.544-2.941,14.196.269,2.015,2.394,4.924,4.19,6.027,4.658,2.846,11.138,3.043,17.51,1.362,4.579-1.208,9.518-4.211,11.419-8.721,3.837-9.104,7.846-15.873,12.724-24.821,4.007-7.349,2.487-17.02-3.317-22.952Z"/><path class="h" d="M259.2,214.639c-3.632-2.945-7.307-5.837-10.948-8.772-1.311-1.057-2.988-2.093-2.832-3.934.121-1.423,1.041-2.709,2.45-3.215,2.573-.924,4.754.669,6.876,1.933,2.343,1.396,4.639,2.869,6.871,4.437,3.665,2.574,7.196,5.123,9.231,9.233,1.867,3.77,2.302,8.289,1.192,12.342-.659,2.405-1.97,4.506-3.165,6.674-1.369,2.483-2.747,4.961-4.09,7.458s-2.64,4.994-3.867,7.537-2.146,5.313-3.561,7.737c-2.291,3.926-6.866,5.877-11.124,6.761-4.805.998-11.912,1.24-15.38-2.954-1.663-2.011-1.689-3.67-1.452-6.178.265-2.8.982-5.599,2.017-8.211.478-1.205-.523-2.635-1.676-2.952-1.364-.375-2.473.466-2.952,1.676-1.11,2.801-1.755,5.748-2.107,8.736-.317,2.686-.349,5.26.947,7.709,2.932,5.54,9.179,7.505,15.105,7.537,6.034.032,12.316-1.623,17.061-5.447,2.306-1.859,3.743-4.153,4.906-6.836,1.302-3.002,2.717-5.954,4.213-8.864,1.466-2.853,3.007-5.667,4.555-8.475,1.563-2.835,3.342-5.634,4.536-8.652,1.933-4.888,1.886-10.623.057-15.536-.961-2.58-2.318-4.931-4.121-7.016s-4.107-3.675-6.311-5.285c-2.425-1.771-4.927-3.433-7.493-4.994-2.821-1.715-5.682-3.653-9.134-3.43-3.149.204-6.02,1.82-7.432,4.702-1.389,2.836-1.251,6.114.763,8.615,1.673,2.078,4.239,3.664,6.314,5.32,2.39,1.908,4.784,3.812,7.159,5.738,1.006.816,2.411.984,3.394,0,.843-.843,1.012-2.574,0-3.394h0Z"/><path class="h" d="M245.728,204.06c-3.508-1.238-7.335-.931-10.243,1.511-2.562,2.15-3.633,5.713-2.472,8.893s3.869,4.976,6.382,7.037c2.85,2.337,5.706,4.668,8.588,6.966,1.013.807,2.405.989,3.394,0,.837-.837,1.019-2.582,0-3.394-2.488-1.984-4.958-3.991-7.419-6.008-.983-.806-1.965-1.613-2.95-2.417-.926-.757-2.07-1.515-2.771-2.434-.633-.829-.896-1.775-.891-2.604.004-.713.314-1.458.926-2.087.749-.768,1.414-1.124,2.481-1.342.407-.083,1.112-.105,1.715-.029.65.083,1.349.312,1.985.536,1.222.431,2.626-.489,2.952-1.676.364-1.326-.449-2.52-1.676-2.952h0Z"/><path class="h" d="M238.63,215.69c-2.932-1.031-6.323-.447-8.652,1.638-2.272,2.033-3.219,5.591-2.367,8.499.832,2.837,3.046,4.627,5.216,6.444,2.276,1.905,4.562,3.798,6.813,5.732.983.844,2.429.965,3.394,0,.864-.864.988-2.546,0-3.394-1.9-1.632-3.825-3.236-5.748-4.842-1.469-1.227-3.591-2.642-4.523-4.133-.141-.226-.277-.457-.392-.697.129.27-.129-.38-.131-.385-.012-.041-.174-.75-.112-.35-.039-.252-.019-.504-.031-.757.028-.296.023-.339-.014-.13.02-.13.045-.26.076-.388.06-.265.133-.527.229-.781.05-.131.113-.264.23-.478.048-.089.475-.708.247-.432.55-.665,1.012-.922,1.842-1.138.84-.218,1.622-.139,2.648.222,1.223.43,2.626-.488,2.952-1.676.364-1.325-.449-2.521-1.676-2.952h0Z"/><path class="h" d="M233.613,227.752c-2.395-.721-4.901-.845-7.18.305-2.014,1.016-3.518,3.005-3.887,5.232-.209,1.266-.207,2.563.167,3.802s1.086,2.332,1.837,3.373c1.412,1.958,3.087,3.687,4.643,5.526.814.962,2.567.901,3.394,0,.94-1.023.869-2.368,0-3.394-1.224-1.446-2.564-2.802-3.718-4.307.25.326-.128-.183-.175-.247-.14-.194-.277-.39-.411-.588-.277-.411-.524-.839-.789-1.257-.28-.443.043.277-.09-.184-.057-.197-.107-.399-.167-.595-.16-.518-.021.324-.031-.174-.005-.239-.019-.474-.007-.713.004-.101.011-.202.022-.303-.04.272-.045.32-.013.142.053-.19.083-.385.14-.575.027-.093.057-.186.09-.277-.113.246-.132.291-.059.133.116-.176.212-.384.317-.568.229-.4-.3.24.072-.073.139-.118.275-.257.404-.385.342-.338-.358.199.081-.065.151-.091.293-.19.448-.275.153-.084.594-.203.058-.05.169-.048.331-.116.502-.162.174-.046.351-.08.528-.112-.61.111-.042.021.11.016.199-.006.398-.003.596.008.167.009.627.074.208.006.555.089,1.096.229,1.634.391,1.202.362,2.669-.433,2.952-1.676.295-1.294-.389-2.565-1.676-2.952h0Z"/></g></svg>