<!--?xml version="1.0" encoding="utf-8"?-->
<!-- Generator: Adobe Illustrator 25.2.3, SVG Export Plug-In . SVG Version: 6.00 Build 0)  -->
<svg version="1.1" id="_x34_" xmlns="http://www.w3.org/2000/svg" xmlns:xlink="http://www.w3.org/1999/xlink" x="0px" y="0px" viewBox="0 0 800 129.7" style="enable-background:new 0 0 800 129.7;" xml:space="preserve">
<style type="text/css">
	.st0{fill:#FFFFFF;}
	.st1{fill:#A2FFD9;}
</style>
<g>
	<polygon class="st0" points="758.7,8 24.8,8 24.8,102.6 41.3,121.7 775.2,121.7 775.2,42.6 	"></polygon>
	<polygon class="st1" points="24.8,102.6 41.3,121.7 775.2,121.7 775.2,99.3 	"></polygon>
	<polygon class="st1" points="758.7,14.5 775.2,42.6 775.2,121.7 758.7,99.3 	"></polygon>
	<rect x="63.4" y="100.1" transform="matrix(0.7941 -0.6078 0.6078 0.7941 -54.4014 63.6837)" width="6.8" height="24"></rect>
	<rect x="94" y="100.1" transform="matrix(0.7941 -0.6078 0.6078 0.7941 -48.0952 82.2974)" width="6.8" height="24"></rect>
	<rect x="124.6" y="100.1" transform="matrix(0.7941 -0.6078 0.6078 0.7941 -41.7866 100.9101)" width="6.8" height="24"></rect>
	<rect x="155.3" y="100.1" transform="matrix(0.7941 -0.6078 0.6078 0.7941 -35.48 119.5232)" width="6.8" height="24"></rect>
	<rect x="185.9" y="100.1" transform="matrix(0.7941 -0.6078 0.6078 0.7941 -29.1767 138.1378)" width="6.8" height="24"></rect>
	<rect x="216.5" y="100.1" transform="matrix(0.7941 -0.6078 0.6078 0.7941 -22.8675 156.7493)" width="6.8" height="24"></rect>
	<rect x="247.1" y="100.1" transform="matrix(0.7941 -0.6078 0.6078 0.7941 -16.5632 175.3632)" width="6.8" height="24"></rect>
	<rect x="277.8" y="100.1" transform="matrix(0.7941 -0.6078 0.6078 0.7941 -10.2592 193.9782)" width="6.8" height="24"></rect>
	<rect x="308.4" y="100.1" transform="matrix(0.7941 -0.6078 0.6078 0.7941 -3.953 212.5911)" width="6.8" height="24"></rect>
	<rect x="339" y="100.1" transform="matrix(0.7941 -0.6078 0.6078 0.7941 2.3533 231.2048)" width="6.8" height="24"></rect>
	<rect x="369.6" y="100.1" transform="matrix(0.7941 -0.6078 0.6078 0.7941 8.6622 249.8156)" width="6.8" height="24"></rect>
	<rect x="400.3" y="100.1" transform="matrix(0.7941 -0.6078 0.6078 0.7941 14.9655 268.4316)" width="6.8" height="24"></rect>
	<rect x="430.9" y="100.1" transform="matrix(0.7941 -0.6078 0.6078 0.7941 21.2719 287.0452)" width="6.8" height="24"></rect>
	<rect x="461.5" y="100.1" transform="matrix(0.7941 -0.6078 0.6078 0.7941 27.5811 305.6553)" width="6.8" height="24"></rect>
	<rect x="492.1" y="100.1" transform="matrix(0.7941 -0.6078 0.6078 0.7941 33.8903 324.266)" width="6.8" height="24"></rect>
	<rect x="522.7" y="100.1" transform="matrix(0.7941 -0.6078 0.6078 0.7941 40.1927 342.8825)" width="6.8" height="24"></rect>
	<rect x="553.4" y="100.1" transform="matrix(0.7941 -0.6078 0.6078 0.7941 46.5032 361.4919)" width="6.8" height="24"></rect>
	<rect x="584" y="100.1" transform="matrix(0.7941 -0.6078 0.6078 0.7941 52.8015 380.1134)" width="6.8" height="24"></rect>
	<rect x="614.6" y="100.1" transform="matrix(0.7941 -0.6078 0.6078 0.7941 59.1084 398.7256)" width="6.8" height="24"></rect>
	<rect x="645.2" y="100.1" transform="matrix(0.7941 -0.6078 0.6078 0.7941 65.4131 417.34)" width="6.8" height="24"></rect>
	<rect x="675.9" y="100.1" transform="matrix(0.7941 -0.6078 0.6078 0.7941 71.7249 435.9477)" width="6.8" height="24"></rect>
	<rect x="706.5" y="100.1" transform="matrix(0.7941 -0.6078 0.6078 0.7941 78.0272 454.5648)" width="6.8" height="24"></rect>
	<rect x="737.1" y="100.1" transform="matrix(0.7941 -0.6078 0.6078 0.7941 84.3413 473.1698)" width="6.8" height="24"></rect>
	<rect x="763.5" y="69.8" transform="matrix(0.7941 -0.6077 0.6077 0.7941 108.1559 482.9481)" width="6.8" height="24"></rect>
	<rect x="763.6" y="42.7" transform="matrix(0.7941 -0.6078 0.6078 0.7941 124.6619 477.4332)" width="6.8" height="24"></rect>
	<polyline points="778.3,119 761.8,99.9 755.7,105.3 772.1,124.4 	"></polyline>
	<path d="M758.7,8V3.2h-734c-1.3,0-2.5,0.5-3.4,1.4S20,6.8,20,8v94.6c0,1.1,0.4,2.3,1.2,3.1l16.5,19.1c0.9,1,2.2,1.7,3.6,1.7h734
		c1.3,0,2.5-0.5,3.4-1.4c0.9-0.9,1.4-2.1,1.4-3.4V42.6c0-0.7-0.2-1.4-0.5-2.1L763.1,6c-0.8-1.7-2.5-2.7-4.3-2.7V8l-4.3,2.1l16,33.6
		v73.2h-727l-13.9-16.1v-88h729.2V8l-4.3,2.1L758.7,8z"></path>
	<polyline points="754.7,8 754.7,102.6 762.8,102.6 762.8,8 	"></polyline>
	<polyline points="24.8,106.7 758.7,106.7 758.7,98.5 24.8,98.5 	"></polyline>
</g>
</svg>
