<!--?xml version="1.0" encoding="utf-8"?-->
<!-- Generator: Adobe Illustrator 25.2.3, SVG Export Plug-In . SVG Version: 6.00 Build 0)  -->
<svg version="1.1" id="_x34_" xmlns="http://www.w3.org/2000/svg" xmlns:xlink="http://www.w3.org/1999/xlink" x="0px" y="0px" viewBox="0 0 800 171.928" style="enable-background:new 0 0 800 171.928;" xml:space="preserve">
<style type="text/css">
	.st0{fill:#FFFFFF;}
	.st1{fill:#F7EE46;}
	.st2{fill:#FFFC45;}
	.st3{fill:#000001;}
</style>
<g>
	<polygon class="st0" points="796.573,19.423 796.573,143.747 411.697,143.747 399.322,168.501 389.105,155.087 380.473,143.747 
		18.662,143.747 3.427,127.757 3.427,3.427 781.343,3.427 	"></polygon>
	<polygon class="st1" points="782.581,128.057 782.581,128.995 402.272,128.995 391.231,155.648 370.984,128.995 4.665,128.995 
		19.899,144.984 381.711,144.984 390.343,156.325 400.56,169.74 412.935,144.984 797.811,144.984 797.811,144.863 	"></polygon>
	<polygon class="st2" points="797.811,22.74 782.581,4.665 782.581,128.057 797.811,144.863 	"></polygon>
	<path class="st3" d="M796.573,19.423h-3.427v120.897H411.697c-1.301,0-2.484,0.731-3.066,1.895l-9.915,19.835l-6.884-9.039
		l-8.632-11.34c-0.645-0.847-1.662-1.351-2.727-1.351H20.13L6.854,126.385V6.854h773.02l14.217,14.931L796.573,19.423h-3.427
		H796.573l2.482-2.364l-15.23-15.995C783.176,0.382,782.284,0,781.343,0H3.427C2.525,0,1.642,0.365,1.004,1.004
		C0.366,1.642,0,2.525,0,3.427v124.329c0,0.876,0.342,1.73,0.946,2.364l15.235,15.99c0.649,0.681,1.54,1.063,2.481,1.063h360.112
		l7.604,9.989l10.218,13.415c0.714,0.939,1.872,1.446,3.047,1.335c1.175-0.11,2.218-0.824,2.745-1.879l11.427-22.861l382.758,0
		c0.902,0,1.785-0.365,2.423-1.004c0.638-0.638,1.004-1.521,1.004-2.423V19.423c0-0.876-0.341-1.729-0.945-2.364L796.573,19.423z"></path>
	<polygon class="st3" points="778.772,3.427 778.772,125.185 399.317,125.185 389.33,149.29 371.02,125.185 3.429,125.185 
		3.429,130.326 368.47,130.325 390.652,159.531 402.751,130.325 783.913,130.325 783.913,3.427 778.773,3.427 	"></polygon>
	<polyline class="st3" points="779.826,129.199 795.057,145.193 798.091,142.304 782.859,126.311 	"></polyline>
	<polyline class="st3" points="399.291,128.917 409.953,144.91 413.438,142.586 402.776,126.593 	"></polyline>
</g>
</svg>
