<?xml version="1.0" encoding="UTF-8"?><svg id="b" xmlns="http://www.w3.org/2000/svg" width="167.44" height="446.199" viewBox="0 0 167.44 446.199"><defs><style>.e{fill:#fff;}.f{fill:#211715;}.g{fill:#645d5c;}</style></defs><g id="c"><g id="d"><path class="e" d="M68.75,222.116c-4.834-.013-9.224-.025-12.986-.038-2.545-3.704-.459-11.048-.468-15.117-.016-7.003.394-15.69.177-22.691-.139-4.484-.241-8.973-.335-13.482-11.406,0-23.625,0-23.625,0,1.779-16.752,3.099-25.516,8.259-45.226,1.468-6.349,3.632-12.386,8.502-16.315,1.044-.848,5.254-3.244,6.464-3.864,4.718-2.402,11.931-5.998,16.246-7.665l4.946-1.911c6.415,3.793,9.809,4.985,9.809,4.985,5.459,2.475,10.218,2.796,13.383,2.796,5.169,0,9.739-.877,14.116-2.061,0,0,5.923-1.693,10.947-5.095,5.259,1.908,13.628,4.842,17.602,6.865,1.21.62,4.657,2.671,5.701,3.519,4.87,3.929,7.321,9.334,8.79,15.683,5.16,19.709,7.345,29.022,9.124,45.774.248,2.389.089,6.986-.875,10.069-1.243,3.976-2.51,5.811-5.25,8.5-2.275,2.234-7.292,4.527-11.986,4.527h-5.09c0,.022.002.044.002.044.36,8.28.91,12.4.89,17.55-.009,3.576,1.365,10.168-.881,13.313-22.952-.052-52.422-.107-73.461-.162Z"/><path class="e" d="M75.692,156.795c-.199.11-.403.231-.615.368,1.079,8.99,2.248,19.076,3.207,27.467h2.434c.951,1.388,2.95.825,3.486.537,3.744-2.009,6.739-4.296,10.148-5.588,3.612.704,7.608.988,11.916.184l.913-.338c.838-6.399,1.746-14.531,2.286-19.267h-2.751c-3.357.946-6.803-.841-9.91-2.426-1.835-.936-3.697-1.82-5.582-2.652-.99-.437-1.993-.861-3.048-1.103-2.549-.586-5.253-.066-7.655.971-1.986.857-3.247.973-4.83,1.846Z"/><path class="e" d="M126.783,47.99c.932-.895,2.187-1.232,3.261-1.194,2.338.082,3.332,1.347,3.76,2.089,1.278,2.216,1.224,6.299.366,8.825-.607,1.789-1.602,4.526-4.001,6.488-.988.809-2.443,1.341-3.834,1.107l-.368-.062c-.441,1.458-.986,2.887-1.319,3.58-.975,2.646-6.362,11.924-13.177,15.542.102,1.308.271,2.602.499,3.904.356,2.04.246,3.858,3.084,4.884.166.061,6.709,3.173,8.216,3.875-4.802,3.003-10.034,4.498-10.034,4.498-4.377,1.184-8.947,2.061-14.116,2.061-3.165,0-7.924-.321-13.383-2.796,0,0-3.344-1.174-9.667-4.902,2.682-1.238,5.812-2.698,5.92-2.737,2.838-1.026,2.716-2.845,3.084-4.884.203-1.18.363-2.269.461-3.412-3.362-1.466-6.353-3.942-9.192-7.339-3.455-4.135-5.423-8.59-6.509-12.28-1.482.381-3.085-.17-4.148-1.04-2.399-1.963-3.393-4.699-4.001-6.488-.858-2.526-.912-6.609.366-8.825.428-.742,1.423-2.007,3.76-2.089,1.074-.038,2.329.298,3.261,1.194,0,0-6.143-24.857,28.132-24.857s29.577,24.857,29.577,24.857Z"/><path class="e" d="M126.327,438.517c-.117-.109-.234-.218-.351-.328-2.739-2.594-4.675-5.011-8.426-6.157-2.296-.702-6.061-2.615-7.818-4.252-2.445-2.279-1.939-6.349-1.823-9.43.073-1.947.49-7.034,1.35-9.057,0,0,.229-.538.605-1.424,2.642.562,5.798.824,8.596.868,4.093.063,8.183-.475,12.208-1.278,5.443,7.481,12.539,13.943,19.173,20.546,2.228,2.218,4.13,5.186,3.866,8.319-.186,2.204-1.572,4.192-3.381,5.464-1.809,1.272-4.004,1.896-6.197,2.182-5.015.654-10.212-.473-14.583-2.993-1.173-.676-2.221-1.535-3.221-2.459Z"/><path class="e" d="M45.851,440.309c-.967-1.132-1.63-2.511-1.755-3.987-.265-3.133,1.637-6.101,3.866-8.319,6.61-6.579,13.68-13.019,19.116-20.473,3.902.763,7.863,1.266,11.827,1.205,2.941-.045,6.277-.333,8.996-.956.398.936.643,1.512.643,1.512.86,2.024,1.277,7.111,1.35,9.057.116,3.081.622,7.151-1.823,9.43-1.757,1.637-5.521,3.55-7.818,4.252-3.752,1.147-5.687,3.563-8.426,6.157-1.106,1.048-2.26,2.031-3.571,2.787-4.371,2.519-9.568,3.646-14.583,2.993-2.193-.286-4.388-.91-6.197-2.182-.598-.42-1.149-.919-1.627-1.477Z"/><path class="g" d="M98.377,222.184c-16.505-.036-32.087-.072-42.678-.11,1.379,57.235,3.965,126.925,6.468,184.378,5.465,1.316,11.1,2.37,16.739,2.283,4.676-.072,10.349-.758,12.958-2.425,1.495-47.2,3.504-100.213,6.818-149.517,3.316,49.303,5.325,102.315,6.82,149.515,2.606,1.669,8.283,2.355,12.961,2.427,5.638.087,11.272-.967,16.735-2.282,2.517-57.777,4.688-126.725,6.074-184.178-13.17-.029-28.389-.06-42.894-.091Z"/><path class="f" d="M140.202,191.414c.25,5.643.863,11.286.89,16.937.012,2.415.32,4.808.393,7.22.058,1.914.201,4.567-1.317,5.999-1.876,1.77.956,4.595,2.828,2.828,3.981-3.756,2.167-10.414,2.097-15.193-.087-5.942-.628-11.856-.891-17.791-.114-2.564-4.114-2.578-4,0h0Z"/><path class="f" d="M51.339,123.289c1.12,14.922,1.437,29.882,1.743,44.838.142,6.965.458,13.938.454,20.905-.002,3.449-.083,6.896-.151,10.344-.058,2.951.069,5.942-.142,8.885-.365,5.077-2.418,12.137,1.91,16.138,1.888,1.745,4.724-1.077,2.828-2.828-1.523-1.408-1.53-3.724-1.47-5.661.077-2.471.508-4.908.709-7.369.236-2.887.1-5.83.156-8.726.064-3.307.142-6.614.157-9.921.03-6.791-.283-13.587-.423-20.376-.146-7.096-.28-14.192-.501-21.286-.26-8.322-.647-16.639-1.271-24.942-.192-2.551-4.193-2.572-4,0h0Z"/><path class="f" d="M139.206,224.961c-.572,23.453-1.224,46.904-1.947,70.353-.745,24.169-1.566,48.337-2.488,72.5-.491,12.881-1.012,25.761-1.573,38.639l1.468-1.929c-5.318,1.272-10.713,2.29-16.204,2.211-2.179-.031-4.377-.164-6.53-.512-1.84-.297-3.809-.659-5.421-1.642l.991,1.727c-.594-18.731-1.239-37.461-1.986-56.187-.772-19.37-1.651-38.735-2.703-58.092-.588-10.833-1.232-21.663-1.947-32.488-.169-2.555-4.17-2.574-4,0,1.594,24.163,2.841,48.348,3.897,72.54,1.028,23.549,1.87,47.105,2.625,70.664.045,1.395-.361,3.916.699,4.977.795.795,2.151,1.202,3.19,1.537,2.682.862,5.573,1.177,8.373,1.362,6.793.45,13.492-.664,20.079-2.239.88-.21,1.431-1.068,1.468-1.929,1.02-23.438,1.912-46.881,2.726-70.326.838-24.166,1.591-48.336,2.268-72.507.361-12.885.7-25.771,1.014-38.658.063-2.575-3.937-2.574-4,0h0Z"/><path class="f" d="M96.498,259.542c-1.269,19.24-2.317,38.494-3.226,57.755-.907,19.214-1.674,38.435-2.358,57.658-.372,10.451-.719,20.904-1.051,31.356l.991-1.727c-1.558.949-3.449,1.312-5.226,1.609-2.215.371-4.479.511-6.723.543-5.492.079-10.888-.94-16.207-2.212l1.468,1.929c-1.028-23.611-1.985-47.225-2.871-70.842-.911-24.266-1.749-48.536-2.482-72.808-.393-13.002-.754-26.004-1.072-39.008-.063-2.57-4.063-2.579-4,0,.577,23.626,1.295,47.248,2.092,70.868.819,24.27,1.724,48.537,2.7,72.801.523,12.997,1.067,25.994,1.632,38.989.037.858.592,1.719,1.468,1.929,5.91,1.413,11.958,2.517,18.058,2.337,2.66-.079,5.339-.324,7.951-.842,1.037-.206,2.067-.462,3.06-.828,1.032-.381,2.524-.87,2.986-1.967.502-1.191.245-3.049.286-4.333.045-1.419.091-2.839.137-4.258.093-2.866.188-5.733.284-8.599.198-5.907.403-11.814.616-17.721.866-24.023,1.863-48.042,3.108-72.049.702-13.531,1.484-27.059,2.376-40.579.17-2.57-3.831-2.56-4,0h0Z"/><path class="f" d="M86.616,409.824c.911,2.283,1.055,4.937,1.216,7.365.164,2.464.651,5.467-.269,7.823-.431,1.104-1.325,1.768-2.288,2.394-1.288.838-2.67,1.576-4.089,2.168-1.371.573-2.806.931-4.128,1.632-1.433.759-2.713,1.807-3.897,2.907-2.503,2.325-4.667,4.684-7.834,6.129-3.094,1.411-6.536,2.051-9.928,1.881-3.062-.153-6.709-.981-8.495-3.728s-.298-5.899,1.654-8.111c2.783-3.153,6.027-5.95,8.996-8.929,3.016-3.026,5.951-6.133,8.652-9.445.682-.836.818-2.01,0-2.828-.704-.704-2.142-.841-2.828,0-2.701,3.313-5.636,6.419-8.652,9.445-2.969,2.978-6.212,5.776-8.996,8.929-2.5,2.832-4.397,6.63-3.374,10.481,1,3.764,4.354,6.282,7.939,7.365,7.7,2.326,16.798-.002,22.644-5.414,2.578-2.387,4.698-4.861,8.118-6.013,2.982-1.005,6.489-2.578,8.671-4.922,2.671-2.869,2.33-6.982,2.166-10.602-.142-3.119-.254-6.661-1.422-9.589-.4-1.003-1.336-1.706-2.46-1.397-.953.262-1.799,1.451-1.397,2.46h0Z"/><path class="f" d="M84.729,102.52c9.334,4.145,19.355,3.53,29.04.936,2.484-.665,1.43-4.525-1.063-3.857-8.525,2.283-17.685,3.141-25.958-.533-.986-.438-2.149-.287-2.736.718-.498.852-.275,2.296.718,2.736h0Z"/><path class="f" d="M57.541,224.081c21.646.072,43.292.109,64.937.154,6.367.013,12.734.027,19.102.041,2.574.006,2.578-3.994,0-4-22.842-.051-45.683-.092-68.525-.151-5.171-.013-10.343-.027-15.514-.045-2.574-.009-2.578,3.991,0,4h0Z"/><path class="f" d="M107.331,408.76c-1.064,2.667-1.202,5.854-1.376,8.692-.19,3.101-.544,6.495.748,9.413,1.35,3.048,4.825,4.812,7.73,6.092,1.519.669,3.177,1.06,4.62,1.882,1.451.826,2.646,1.97,3.831,3.131,1.37,1.342,2.728,2.687,4.278,3.825,1.627,1.193,3.486,2.063,5.37,2.769,3.85,1.444,8.059,1.902,12.128,1.332,3.8-.533,7.562-2.136,9.692-5.483s1.544-7.425-.512-10.639c-1.201-1.877-2.797-3.403-4.375-4.955-1.694-1.666-3.398-3.321-5.085-4.993-3.47-3.439-6.867-6.956-9.957-10.745-.683-.838-2.119-.709-2.828,0-.828.828-.685,1.989,0,2.828,4.837,5.932,10.423,11.173,15.858,16.542,2.102,2.077,4.776,4.806,4.22,8.065-.551,3.233-3.981,4.765-6.845,5.324-3.455.674-7.098.269-10.416-.843-3.247-1.088-5.737-2.948-8.156-5.321-2.321-2.278-4.655-4.362-7.781-5.446-2.544-.883-5.335-1.991-7.33-3.865-2.086-1.96-1.348-5.89-1.218-8.43.136-2.659.263-5.612,1.26-8.111.4-1.004-.437-2.197-1.397-2.46-1.139-.313-2.058.39-2.46,1.397h0Z"/><path class="f" d="M72.816,99.53c.899-.315,1.77-.767,2.635-1.163,1.335-.611,2.667-1.228,3.999-1.846,1.046-.485,2.091-.972,3.139-1.454.108-.05.219-.096.325-.149.09-.044.272-.119-.16.066-.517.221-.058.031.076-.022.256-.103.513-.206.762-.327,1.014-.489,1.937-1.289,2.475-2.288.501-.93.68-1.914.839-2.943.234-1.514.494-3.019.632-4.546.094-1.045-.987-2.045-2-2-1.164.052-1.899.881-2,2-.16,1.78-.479,3.657-.928,5.51-.06.248.194-.299.035-.101-.055.068-.092.164-.136.241-.221.39.166-.105-.082.108-.067.058-.16.144-.221.213.216-.246.134-.084.014-.012-.102.062-.2.128-.304.188-.038.022-.452.23-.295.159-.147.066-.7.288-1.024.437-2.228,1.023-4.447,2.064-6.675,3.088-.578.265-1.156.53-1.735.791-.184.083-.368.164-.552.246-.454.202.493-.184.119-.053-1.019.357-1.697,1.368-1.397,2.46.272.989,1.436,1.756,2.46,1.397h0Z"/><path class="f" d="M109.498,84.693c.129,1.425.335,2.838.569,4.249.121.734.189,1.486.41,2.2.288.931.777,1.834,1.508,2.492.404.363.857.695,1.343.94.325.164.664.305,1.003.435.657.252-.46-.224-.21-.096,1.977,1.015,4.032,1.903,6.042,2.853.955.451,1.903.92,2.877,1.328.968.406,2.241-.436,2.46-1.397.266-1.17-.36-2.026-1.397-2.46.997.418.059.009-.174-.1-.43-.202-.86-.405-1.29-.608-1.164-.55-2.327-1.101-3.491-1.652-.9-.426-1.799-.854-2.702-1.275-.098-.046-.195-.092-.293-.136-.025-.011-.05-.023-.075-.034-.145-.064-.336-.144-.483-.204-.048-.019-.371-.164-.082-.027-.187-.088-.365-.187-.544-.292-.055-.032-.347-.228-.124-.07.198.14.002,0-.032-.033-.144-.143-.394-.473-.15-.107-.108-.162-.192-.341-.299-.501-.119-.177.097.168.074.185,0,0-.118-.349-.123-.365-.049-.167-.089-.336-.125-.507-.084-.4-.138-.806-.199-1.211-.199-1.317-.374-2.307-.492-3.607-.094-1.039-.853-2.051-2-2-1.003.045-2.101.884-2,2h0Z"/><path class="g" d="M79.975,37.85c-2.376,2.134-4.635,4.424-6.289,6.267l-4.612,3.873c-.932-.895-2.187-1.232-3.261-1.194-.537.019-1.003.1-1.406.225-1.095-4.004-1.559-7.968-1.414-11.408.582-13.767,7.853-22.274,14.274-27.049,5.53-4.113,12.44-6.567,20.578-6.567,8.807,0,15.574,2.81,21.359,7.134,6.452,4.872,12.937,13.245,13.496,26.481.165,3.913-.295,7.104-1.376,11.369-.374-.102-.799-.169-1.28-.186-1.074-.038-2.329.298-3.261,1.194l-4.577-3.626c-1.478-3.718-4.814-7.827-8.295-10.821-2.031-1.747-3.435-2.519-5.281-3.321l-5.733-.704c-3.866,1.629-9.319,5.051-12.379,6.751-.73.406-1.59-.239-1.492-1.124.064-.583.065-1.199-.132-2.011-.204-.84-.849-1.197-1.352-.933-2.238,1.174-4.972,3.319-7.568,5.65Z"/><path class="f" d="M70.488,46.575c-2.075-1.851-4.997-2.284-7.533-1.124-1.817.831-2.93,2.548-3.442,4.428-1.176,4.32-.075,9.372,2.402,13.057,1.693,2.519,4.366,4.789,7.606,4.369,1.071-.139,2-.82,2-2,0-.973-.921-2.14-2-2-2.288.297-3.787-1.595-4.779-3.425-.806-1.486-1.468-3.257-1.621-5.043-.157-1.828-.058-3.812.867-5.271-.316.498.513-.45.238-.246.384-.284.555-.35.972-.443.867-.194,1.78-.081,2.462.527,1.915,1.709,4.754-1.11,2.828-2.828h0Z"/><path class="f" d="M128.197,49.404c.642-.573,1.509-.711,2.33-.556.49.092.689.166,1.103.472-.274-.203.546.733.238.246.442.698.628,1.249.788,2.127.186,1.02.168,2.109.079,3.144-.153,1.784-.818,3.56-1.621,5.043-.992,1.83-2.49,3.722-4.779,3.425-1.073-.139-2,1.019-2,2,0,1.196.924,1.86,2,2,5.278.685,8.516-5.018,9.835-9.284,1.182-3.823,1.135-9.763-2.605-12.211-2.54-1.663-5.992-1.202-8.197.765-1.925,1.717.912,4.538,2.828,2.828h0Z"/><path class="f" d="M124.584,62.593c-.311,1.493-.773,2.956-1.314,4.381-.193.508-.358.848-.586,1.415-.204.507.136-.274-.037.088-.063.132-.123.267-.186.399-.896,1.872-2.014,3.648-3.209,5.342-2.795,3.961-6.619,8.284-11.532,9.439-2.505.589-1.444,4.446,1.063,3.857,5.794-1.362,10.253-6.201,13.61-10.839,1.304-1.802,2.518-3.703,3.488-5.709.207-.428.392-.864.576-1.303.217-.519-.146.342.082-.189.149-.347.297-.695.436-1.047.613-1.545,1.126-3.143,1.466-4.771.524-2.512-3.331-3.586-3.857-1.063h0Z"/><path class="f" d="M67.334,63.554c2.489,10.915,10.702,22.816,22.499,24.595,1.067.161,2.15-.268,2.46-1.397.26-.945-.322-2.298-1.397-2.46-10.504-1.584-17.494-12.108-19.705-21.801-.572-2.509-4.43-1.447-3.857,1.063h0Z"/><path class="f" d="M118.103,5.926c-10.46-6.769-24.036-7.79-35.449-2.802-9.258,4.047-16.62,12.328-19.789,21.884-2.368,7.142-2.368,14.767-.525,22.023.633,2.493,4.492,1.437,3.857-1.063-2.659-10.473-.762-21.867,6.322-30.228,2.773-3.273,6.117-6.06,9.908-8.077,5.07-2.697,10.812-3.806,16.526-3.65,6.162.168,11.964,2.024,17.131,5.367,2.168,1.403,4.175-2.059,2.019-3.454h0Z"/><path class="f" d="M133.374,47.031c1.817-7.461,1.829-15.194-.664-22.518-1.935-5.685-5.275-10.785-9.714-14.829-1.899-1.731-4.736,1.09-2.828,2.828,3.927,3.578,6.968,8.02,8.685,13.064,2.269,6.666,2.32,13.591.664,20.391-.609,2.5,3.247,3.567,3.857,1.063h0Z"/><path class="f" d="M92.304,72.817c1.849.976,3.838,1.397,5.93,1.383,2.195-.014,4.339-.477,6.088-1.84.829-.646.729-2.159,0-2.828-.88-.807-1.944-.689-2.828,0,.689-.537-.039-.003-.258.112-.169.089-.627.23-.002.021-.162.054-.32.123-.483.176-.206.066-.414.122-.625.171-.219.051-.525.047-.727.137.201-.09.316-.038.012-.008-.133.013-.265.024-.398.033-.32.021-.64.029-.961.027-.287-.002-.574-.012-.86-.031-.131-.009-.263-.019-.394-.033-.075-.007-.15-.016-.224-.025-.156-.019-.098-.011.175.023-.121.054-.515-.091-.647-.121-.207-.046-.412-.099-.616-.16-.177-.053-.349-.116-.524-.176-.454-.155.414.199.003.005-.217-.102-.43-.208-.642-.32-.925-.488-2.217-.265-2.736.718-.488.924-.27,2.215.718,2.736h0Z"/><path class="f" d="M96.976,59.161c.247.941.484,1.898.625,2.861l-.071-.532c.017.132.024.262.011.395l.071-.532c-.009.061-.023.119-.043.178l.202-.478c-.018.041-.037.077-.063.114l.313-.405c-.029.036-.057.063-.093.092l.405-.313c-.072.046-.149.084-.227.12l.478-.202c-.125.052-.248.09-.382.111l.532-.071c-.12.014-.238.013-.359,0l.532.071c-.135-.019-.268-.052-.403-.07-.266-.083-.532-.095-.798-.036-.266.012-.514.091-.744.237-.415.243-.811.718-.919,1.195-.117.512-.091,1.087.202,1.541.26.403.695.852,1.195.919.355.048.699.137,1.061.153.579.025,1.109-.157,1.624-.395.647-.3,1.157-.912,1.329-1.607.147-.595.087-1.075-.014-1.672-.156-.922-.369-1.835-.606-2.739-.127-.483-.49-.944-.919-1.195s-1.061-.357-1.541-.202c-.484.157-.951.457-1.195.919-.253.48-.342,1.007-.202,1.541h0Z"/><path class="f" d="M82.361,50.917c-.478,1.553-.166,5.125,2.775,5.429,3.888-.023,4.095-4.342,2.786-6.372-1.072-1.662-4.223-2.354-5.561.944Z"/><path class="f" d="M113.496,50.917c.478,1.553.167,5.125-2.775,5.429-3.888-.023-4.095-4.342-2.786-6.372,1.072-1.662,4.222-2.354,5.561.944Z"/><path class="f" d="M107.622,31.948c2.908,1.273,5.158,3.074,7.347,5.35,1.12,1.164,2.156,2.382,3.052,3.659.47.67.914,1.359,1.318,2.071.184.323.361.651.527.984.097.194.188.391.282.586.165.344-.023-.08.13.297.405,1,1.332,1.707,2.46,1.397.949-.261,1.805-1.453,1.397-2.46-1.399-3.452-3.614-6.489-6.167-9.183-2.406-2.538-5.11-4.746-8.327-6.155-.989-.433-2.147-.29-2.736.718-.496.848-.277,2.301.718,2.736h0Z"/><path class="f" d="M75.1,45.531c2.299-2.549,4.758-4.963,7.355-7.207,1.184-1.023,2.397-2.011,3.681-2.905.588-.409,1.368-.742,1.903-1.212.671-.294.313-.475-1.074-.543.053.155.082.313.087.475-.05.291-.028.704-.027,1.004.004,1.862,1.526,3.531,3.481,3.193,1.422-.246,2.86-1.392,4.092-2.112,3.034-1.772,6.073-3.594,9.308-4.98.993-.426,1.215-1.886.718-2.736-.601-1.027-1.739-1.145-2.736-.718-3.235,1.387-6.274,3.208-9.308,4.98-.685.4-1.37.802-2.058,1.197-.174.1-.349.2-.524.299-.677.288-.334.58,1.028.877.118-.198.041-.712.032-.92-.078-1.841-.918-4.018-3.064-4.101-1.486-.058-3.008,1.223-4.16,2.042-1.457,1.037-2.856,2.162-4.208,3.331-2.596,2.245-5.056,4.659-7.355,7.207-1.72,1.907,1.1,4.745,2.828,2.828h0Z"/><path class="f" d="M138.962,125.885c-.345,11.803.205,23.606,0,35.409-.045,2.575,3.955,2.575,4,0,.205-11.803-.345-23.607,0-35.409.075-2.575-3.925-2.573-4,0h0Z"/><path class="f" d="M120.834,97.313c6.489,2.486,13.271,4.435,19.521,7.501,3.052,1.497,5.773,3.166,7.915,5.456,2.834,3.029,4.512,6.888,5.595,10.847,2.387,8.725,4.617,17.546,6.414,26.413.772,3.807,1.433,7.635,1.985,11.48.566,3.949,1.286,8.017,1.237,12.014-.054,4.345-.902,9.024-3.786,12.438-3.115,3.687-7.562,5.838-12.426,5.907-2.572.037-2.579,4.037,0,4,4.69-.067,9.828-1.767,13.296-5.014,3.182-2.979,5.362-6.731,6.26-11.013.943-4.5.609-8.883.066-13.398-.515-4.285-1.125-8.56-1.883-12.809-1.612-9.037-3.896-17.937-6.209-26.814-1.203-4.618-2.333-9.242-4.948-13.309-2.305-3.585-5.358-6.112-8.982-8.259-7.095-4.203-15.332-6.362-22.992-9.297-1.009-.387-2.194.427-2.46,1.397-.31,1.127.384,2.072,1.397,2.46h0Z"/><path class="f" d="M33.512,170.788c1.2-11.281,2.802-22.429,5.389-33.484.803-3.431,1.662-6.848,2.549-10.257.793-3.049,1.479-6.138,2.782-9.024,1.241-2.748,2.888-5.129,5.16-7.119.9-.789-.271.166.292-.228.182-.127.368-.249.555-.37.384-.249.773-.488,1.164-.725,1.089-.66,2.192-1.296,3.306-1.912,5.386-2.978,11.07-5.785,16.805-8.022,1.006-.392,1.704-1.342,1.397-2.46-.264-.96-1.448-1.792-2.46-1.397-5.725,2.233-11.275,5.036-16.724,7.867-1.946,1.011-3.881,2.112-5.707,3.326-2.413,1.605-4.358,3.88-5.846,6.35-1.674,2.777-2.799,5.886-3.655,9.002-.974,3.546-1.838,7.133-2.71,10.706-1.441,5.905-2.734,11.846-3.731,17.843-1.098,6.601-1.859,13.253-2.567,19.905-.114,1.076,1.001,2,2,2,1.176,0,1.885-.921,2-2h0Z"/><path class="f" d="M147.289,189.37c-11.057.321-22.166-.839-32.985-3.104-1.989-.416-3.97-.873-5.935-1.387-.529-.138-.639-.382-.31.385.404.944.164.445.298.067.106-.298.102-.668.149-.981.137-.922.265-1.846.391-2.77.568-4.189,1.072-8.386,1.561-12.584.252-2.169.5-4.338.746-6.507.1-.879.199-1.759.3-2.638.04-.35.08-.699.12-1.049.018-.155.03-.312.054-.466.01-.087.02-.174.03-.261.021-.26.032-.22.033.119l-.718.718-.182-.031.492.067c.327.043.653.089.98.134.649.089,1.299.179,1.948.27,1.283.179,2.566.36,3.848.542,2.582.368,5.164.744,7.744,1.125,4.862.719,9.72,1.459,14.578,2.203,1.066.163,2.151-.27,2.46-1.397.26-.947-.323-2.296-1.397-2.46-8.395-1.285-16.791-2.557-25.202-3.736-1.053-.148-2.107-.294-3.161-.439-1.113-.153-2.307-.495-3.403-.122-1.654.562-1.92,2.125-2.094,3.638-.277,2.398-.545,4.797-.82,7.196-.665,5.8-1.31,11.609-2.166,17.385-.212,1.428-.685,2.982.332,4.215.971,1.177,2.78,1.361,4.19,1.703,3.205.777,6.441,1.429,9.692,1.983,9.377,1.599,18.911,2.458,28.427,2.182,2.568-.075,2.579-4.075,0-4h0Z"/><path class="f" d="M106.185,158.231c-2.796.694-5.553-.794-7.978-2.025-2.834-1.438-5.773-3.059-8.828-3.974-2.873-.86-6.011-.527-8.782.543-2.339.903-4.871,1.523-6.959,2.954-2.11,1.447-.112,4.915,2.019,3.454.942-.646,1.885-1.08,2.967-1.431,1.238-.402,2.423-.927,3.654-1.346,2.88-.98,5.401-.721,8.155.5s5.404,2.692,8.159,3.921,5.641,2.01,8.656,1.262c2.497-.62,1.439-4.478-1.063-3.857h0Z"/><path class="f" d="M78.484,161.836c-1.615.816-3.231,1.631-4.846,2.447-.432.218-.794.74-.919,1.195-.132.479-.072,1.116.202,1.541.275.427.685.803,1.195.919.543.124,1.042.051,1.541-.202,1.615-.816,3.231-1.631,4.846-2.447.432-.218.794-.74.919-1.195.132-.479.072-1.116-.202-1.541-.275-.427-.685-.803-1.195-.919-.543-.124-1.042-.051-1.541.202h0Z"/><path class="f" d="M77.238,174.896c2.611-1.597,5.35-2.983,8.083-4.357.937-.471,1.277-1.868.718-2.736-.617-.957-1.735-1.221-2.736-.718-2.733,1.374-5.471,2.76-8.083,4.357-.892.546-1.311,1.816-.718,2.736.577.896,1.781,1.302,2.736.718h0Z"/><path class="f" d="M93.92,181.53c4.288.812,8.577.948,12.88.163,1.032-.188,1.709-1.495,1.397-2.46-.358-1.106-1.355-1.599-2.46-1.397-1.049.191-1.697.276-2.831.351-.932.062-1.868.079-2.801.053-.899-.025-1.797-.089-2.691-.187-.135-.015-.269-.031-.404-.047-.223-.029-.268-.034-.135-.016.132.018.088.012-.133-.019-.132-.019-.264-.039-.396-.06-.455-.071-.909-.151-1.362-.237-1.025-.194-2.207.285-2.46,1.397-.224.985.298,2.252,1.397,2.46h0Z"/><path class="f" d="M84.685,174.847c-1.092,1.108-2.206,2.194-3.283,3.317-.753.785-1.628,1.567-2.23,2.476-.558.843-.827,2.016-.762,3.019.155,2.398,2.193,4.075,4.582,3.847,2.08-.199,3.839-1.498,5.58-2.556,1.071-.65,2.137-1.311,3.228-1.927.526-.297,1.057-.583,1.598-.851.584-.29,1.001-.475,1.461-.653,1.007-.39,1.704-1.344,1.397-2.46-.264-.962-1.448-1.789-2.46-1.397-2.38.922-4.555,2.198-6.728,3.521-1.056.643-2.113,1.285-3.193,1.887-.061.034-.749.381-.743.404.347-.14.42-.172.217-.096-.073.025-.146.049-.22.069-.138.039-.7.097-.136.059-.203.014-.4.014-.604.015.274.046.298.047.07.002-.213-.068-.203-.054.032.042-.188-.115-.19-.1-.004.045-.152-.16-.165-.156-.04.011-.111-.197-.115-.189-.013.023-.051-.228-.059-.223-.023.014-.01-.12.081-.794-.013-.369.026-.116.273-.761.054-.323.067-.134.326-.473-.025-.048.405-.492.872-.944,1.31-1.407,1.234-1.304,2.518-2.557,3.777-3.836.758-.769.768-2.061,0-2.828-.762-.762-2.068-.772-2.828,0h0Z"/><path class="e" d="M4.425,128.158c14.344,2.445,54.832,9.428,67.002,11.687.909.169,1.599.9,1.72,1.817,1.628,12.351,4.326,35.784,5.91,49.754.159,1.404-1.06,2.569-2.455,2.343-16.012-2.592-54.681-9.979-66.018-12.469-.846-.186-1.488-.856-1.638-1.709-2.141-12.147-5.727-39.716-6.993-49.037-.194-1.428,1.051-2.628,2.472-2.385Z"/><path class="f" d="M3.893,130.087c15.179,2.587,30.352,5.212,45.519,7.866,6.684,1.169,13.368,2.335,20.043,3.557.411.075,1.068.072,1.441.265.519.269.431,1.258.518,1.936.26,2.019.513,4.039.763,6.059.602,4.871,1.185,9.745,1.76,14.62.586,4.97,1.164,9.941,1.736,14.913.271,2.354.541,4.708.809,7.062.123,1.078.246,2.156.368,3.233.046.408.093.816.139,1.224.023.202.172.76.079.941.085-.168-.203.09-.004-.004-.383.182-1.332-.156-1.739-.224-.818-.136-1.636-.274-2.454-.414-1.708-.292-3.415-.589-5.121-.89-4.005-.707-8.007-1.434-12.007-2.171-8.584-1.581-17.16-3.206-25.728-4.875-3.691-.719-7.38-1.445-11.065-2.19-1.438-.291-2.876-.584-4.312-.883-1.075-.224-2.355-.318-3.378-.718-.428-.167-.26.096-.387-.344-.104-.36-.133-.763-.196-1.132-.142-.829-.279-1.66-.413-2.49-.309-1.911-.604-3.824-.893-5.738-.649-4.31-1.265-8.626-1.868-12.943-1.108-7.935-2.164-15.877-3.23-23.817-.099-.739-.198-1.478-.298-2.217-.08-.593-.219-.618.448-.555,1.077.102,2-.993,2-2,0-1.167-.92-1.897-2-2-2.978-.283-4.742,2.388-4.377,5.087.041.301.082.603.122.904.026.196.053.391.079.587-.042-.312.005.041.012.087.113.841.225,1.681.338,2.522.561,4.198,1.122,8.395,1.692,12.592,1.238,9.123,2.48,18.25,3.924,27.343.273,1.717.379,3.642.943,5.288.712,2.08,2.565,2.585,4.473,2.991,3.096.659,6.2,1.284,9.304,1.903,8.719,1.739,17.451,3.411,26.19,5.049,8.299,1.555,16.604,3.089,24.928,4.507,1.644.28,3.563.869,5.227.743,1.34-.101,2.577-.887,3.249-2.054.704-1.224.508-2.479.357-3.801-.558-4.91-1.12-9.818-1.689-14.727-1.176-10.157-2.358-20.314-3.654-30.457-.282-2.209-.179-4.987-2.333-6.288-1.187-.717-2.801-.805-4.149-1.049-3.308-.6-6.618-1.186-9.929-1.771-16.69-2.946-33.39-5.829-50.095-8.689-1.36-.233-2.72-.465-4.081-.697-1.064-.181-2.154.282-2.46,1.397-.264.961.326,2.278,1.397,2.46Z"/><path class="f" d="M79.986,194.528c1.096-.913,2.117-1.922,3.144-2.91,1.659-1.596,3.299-3.211,4.936-4.83.745-.737.793-2.101,0-2.828-.802-.736-2.033-.786-2.828,0-1.637,1.619-3.277,3.234-4.936,4.83-1.027.988-2.048,1.997-3.144,2.91-.807.672-.747,2.143,0,2.828.858.788,1.968.717,2.828,0h0Z"/><path class="e" d="M27.989,192.145c-3.667-.958-7.105-4.89-6.948-8.719.152-3.692.426-7.355,1.507-11.097.317-1.096,2.221-2.545,3.924-2.226,1.216.228,2.357.991,2.514,2.318.046-.449.083-.777.083-.777.124-1.112,1.436-4.127,4.179-3.746,2.73.379,3.65,2.82,3.551,5.505.324-.89,1.236-2.341,3.69-2.016,3.92.518,3.438,5.113,3.082,7.107.927-1.184,2.733-1.468,4.012-.723,1.491.868,2.343,1.866,2.335,4.435-.012,3.658.294,7.304-.279,9.01-.576,1.716-4.152,3.206-5.912,2.786-3.288.521-13.875-1.15-15.739-1.856"/><path class="f" d="M45.317,179.543c.726-.574,1.755.172,2.123.606.604.712.472,2.345.489,3.528.025,1.768.115,3.542.033,5.309-.026.548-.032,1.088-.218,1.595-.009.025-.097.121-.085.108-.184.184-.359.331-.573.475-.886.594-1.974.951-2.954.899.532.028-1.226.033-.81-.007.295-.029-.249.016-.355.022-.448.027-.897.026-1.346.017-2.325-.045-4.655-.32-6.954-.657-2.023-.297-4.212-.519-6.147-1.221-1.016-.368-2.19.414-2.46,1.397-.306,1.112.378,2.091,1.397,2.46,2.462.893,5.291,1.117,7.868,1.459,2.93.389,5.987.825,8.935.396h-1.063c2.47.478,5.312-.526,7.122-2.245,2.037-1.935,1.7-5.203,1.652-7.765-.052-2.844.454-6.355-1.703-8.599s-5.328-2.545-7.779-.606c-.848.671-.701,2.127,0,2.828.837.837,1.978.672,2.828,0h0Z"/><path class="f" d="M45.241,186.369c.123-2.876.278-5.75.475-8.621.162-2.375.1-4.923-1.655-6.755-1.938-2.024-5.594-2.244-7.712-.404-1.537,1.336-1.725,3.22-1.976,5.109-.398,2.994-.585,6.005-.824,9.014-.086,1.078.981,2,2,2,1.154,0,1.914-.919,2-2,.177-2.216.315-4.435.544-6.646.131-1.265.223-2.323.468-3.535.027-.134.064-.264.097-.396.098-.402.151-.017-.051.069.061-.026.152-.309.187-.369.136-.233.298-.312.022-.066.123-.11.241-.237.362-.352-.269.255-.103.105.117-.021.231-.132-.332.083-.056.033.133-.024.266-.073.4-.099-.422.083.298.015.415.017-.007,0,.339.033.164.008-.195-.028.208.047.247.057.136.034.612.249.308.084.101.055.198.115.298.17.416.228-.124-.138.048.042.074.077.148.154.222.231.195.205-.162-.272-.027-.024.089.163.186.319.267.487-.196-.408.031.144.068.28.028.105.053.211.075.318.012.057.083.513.044.22-.034-.256.02.303.025.389.011.216.014.433.01.65-.008.537-.058,1.073-.095,1.608-.193,2.832-.346,5.666-.467,8.502-.046,1.08.952,2,2,2,1.122,0,1.954-.917,2-2h0Z"/><path class="f" d="M38.794,173.543c.082-2.028-.325-4.102-1.644-5.695s-3.709-2.357-5.714-1.803c-1.736.479-3.076,1.902-3.787,3.514-.755,1.711-.754,3.652-.883,5.493-.183,2.606-.294,5.217-.461,7.824-.069,1.079.969,2,2,2,1.14,0,1.931-.918,2-2,.158-2.455.267-4.912.43-7.367.071-1.06.154-2.12.261-3.177.015-.152.031-.305.048-.457.04-.349.033-.306-.02.126.015-.008.067-.287.072-.306.044-.16.105-.312.157-.469-.174.521-.004.025.061-.099.082-.157.17-.31.266-.459.057-.088.116-.174.178-.258-.152.195-.156.206-.011.034.117-.11.228-.228.344-.34-.324.315.161-.089.264-.154.356-.222-.278.033.145-.047.228-.047.224-.055-.013-.024.123-.012.247-.016.371-.013.381-.019-.091-.07.262.034.093.028.759.297.41.113.063.033.555.353.388.221-.171-.135.251.263.295.311-.29-.315.123.207.174.302.031.057.221.549.089.168.081.232.153.465.208.705.021.091.11.573.06.221.076.528.071,1.071.05,1.602-.044,1.08.95,2,2,2,1.12,0,1.956-.916,2-2h0Z"/><path class="f" d="M30.92,171.933c-.582-3.579-4.981-4.704-7.809-3.054-3.121,1.821-3.313,5.992-3.689,9.222-.393,3.375-.829,6.854.759,9.987,1.447,2.856,4.204,5.114,7.276,5.985,2.481.703,3.54-3.155,1.063-3.857-1.854-.526-3.465-1.804-4.482-3.437-1.233-1.978-1.002-3.983-.842-6.222.09-1.262.208-2.523.41-3.773.112-.691.242-1.378.395-2.06.129-.579.195-1.339.476-1.865-.121.226.324-.31.396-.365.266-.206.646-.409.993-.435.688-.052,1.095.31,1.197.936.173,1.067,1.499,1.661,2.46,1.397,1.134-.312,1.571-1.39,1.397-2.46h0Z"/></g></g></svg>