<svg viewBox="0 0 400 400" xmlns="http://www.w3.org/2000/svg">
  <defs>
    <linearGradient id="blueGradient" x1="0%" y1="0%" x2="100%" y2="100%">
      <stop offset="0%" style="stop-color:#1e3a8a;stop-opacity:1" />
      <stop offset="50%" style="stop-color:#2563eb;stop-opacity:1" />
      <stop offset="100%" style="stop-color:#3b82f6;stop-opacity:1" />
    </linearGradient>
    
    <pattern id="circuitPattern" x="0" y="0" width="40" height="40" patternUnits="userSpaceOnUse">
      <path d="M 10 10 L 30 10 M 20 10 L 20 30 M 10 30 L 30 30" stroke="rgba(255,255,255,0.2)" stroke-width="1" fill="none"/>
      <circle cx="10" cy="10" r="2" fill="rgba(255,255,255,0.3)"/>
      <circle cx="30" cy="10" r="2" fill="rgba(255,255,255,0.3)"/>
      <circle cx="20" cy="30" r="2" fill="rgba(255,255,255,0.3)"/>
    </pattern>
  </defs>
  
  <!-- Background circle -->
  <circle cx="200" cy="200" r="180" fill="white"/>
  
  <!-- Silhouette of person with circuit pattern -->
  <g transform="translate(200, 200)">
    <!-- Body silhouette -->
    <path d="
      M -60 -80
      C -60 -100, -40 -120, 0 -120
      C 40 -120, 60 -100, 60 -80
      L 60 -20
      C 60 0, 50 20, 30 30
      L 30 80
      C 30 90, 20 100, 10 100
      L -10 100
      C -20 100, -30 90, -30 80
      L -30 30
      C -50 20, -60 0, -60 -20
      Z
    " fill="url(#blueGradient)"/>
    
    <!-- Circuit pattern overlay -->
    <path d="
      M -60 -80
      C -60 -100, -40 -120, 0 -120
      C 40 -120, 60 -100, 60 -80
      L 60 -20
      C 60 0, 50 20, 30 30
      L 30 80
      C 30 90, 20 100, 10 100
      L -10 100
      C -20 100, -30 90, -30 80
      L -30 30
      C -50 20, -60 0, -60 -20
      Z
    " fill="url(#circuitPattern)" opacity="0.5"/>
    
    <!-- Laptop/tablet in hand -->
    <rect x="15" y="10" width="50" height="35" rx="3" fill="white" opacity="0.9"/>
    <rect x="20" y="15" width="40" height="25" rx="2" fill="#1e3a8a"/>
    
    <!-- Code lines on screen -->
    <line x1="25" y1="20" x2="45" y2="20" stroke="white" stroke-width="2"/>
    <line x1="25" y1="25" x2="50" y2="25" stroke="#3b82f6" stroke-width="2"/>
    <line x1="25" y1="30" x2="40" y2="30" stroke="white" stroke-width="2"/>
    <line x1="25" y1="35" x2="55" y2="35" stroke="#3b82f6" stroke-width="2"/>
  </g>
  
  <!-- Circuit decoration around -->
  <g opacity="0.3">
    <circle cx="100" cy="100" r="4" fill="#2563eb"/>
    <circle cx="300" cy="100" r="4" fill="#2563eb"/>
    <circle cx="100" cy="300" r="4" fill="#2563eb"/>
    <circle cx="300" cy="300" r="4" fill="#2563eb"/>
    
    <path d="M 100 100 L 150 100 M 250 100 L 300 100" stroke="#2563eb" stroke-width="2"/>
    <path d="M 100 300 L 150 300 M 250 300 L 300 300" stroke="#2563eb" stroke-width="2"/>
    <path d="M 100 100 L 100 150 M 100 250 L 100 300" stroke="#2563eb" stroke-width="2"/>
    <path d="M 300 100 L 300 150 M 300 250 L 300 300" stroke="#2563eb" stroke-width="2"/>
  </g>
</svg>